<svg xmlns="http://www.w3.org/2000/svg" viewBox="0 0 480.6 480.6"><path d="M459.313 460.9V103.8c0-10.4-8.3-19.7-19.7-19.7-10.4 0-19.7 8.3-19.7 19.7v335.3h-333.3c-15.6 0-27-8.3-27-16.6s11.4-16.6 27-16.6h282.4c10.4 0 19.7-8.3 19.7-19.7V19.7c0-10.4-8.3-19.7-19.7-19.7h-268.9c-43.6 0-78.9 30.1-78.9 66.4v357.1c0 32.2 29.1 57.1 66.4 57.1h353c10.4 0 19.7-8.3 18.7-19.7zM61.713 66.4c0-14.5 17.6-26 38.4-26h249.2v326h-261.6c-9.2 0-18 1.6-26 4.5V66.4z"/><path d="M138.013 148.4h131.8c11.4 0 20.8-9.3 20.8-19.7s-8.3-19.7-19.7-19.7h-132.9c-10.4 0-19.7 9.3-19.7 19.7s8.3 19.7 19.7 19.7z"/></svg>