<?xml version="1.0" encoding="UTF-8"?>
<!DOCTYPE svg PUBLIC "-//W3C//DTD SVG 1.1//EN" "http://www.w3.org/Graphics/SVG/1.1/DTD/svg11.dtd">
<!-- Creator: CorelDRAW -->
<svg xmlns="http://www.w3.org/2000/svg" xml:space="preserve" width="297mm" height="210mm" version="1.1" style="shape-rendering:geometricPrecision; text-rendering:geometricPrecision; image-rendering:optimizeQuality; fill-rule:evenodd; clip-rule:evenodd"
viewBox="0 0 29700 21000"
 xmlns:xlink="http://www.w3.org/1999/xlink">
 <defs>
  <style type="text/css">
   <![CDATA[
    .str2 {stroke:black;stroke-width:10;stroke-opacity:0.501961}
    .str0 {stroke:#2B2A29;stroke-width:75}
    .str4 {stroke:black;stroke-width:50}
    .str6 {stroke:#434242;stroke-width:10}
    .str1 {stroke:black;stroke-width:10}
    .str3 {stroke:black;stroke-width:10}
    .str7 {stroke:#2B2A29;stroke-width:7.62}
    .str5 {stroke:black;stroke-width:7.62}
    .fil8 {fill:none}
    .fil0 {fill:#FEFEFE}
    .fil10 {fill:#D9DADA}
    .fil1 {fill:#2B2A29}
    .fil2 {fill:#94ADBD}
    .fil6 {fill:#FEFEFE;fill-rule:nonzero}
    .fil5 {fill:#D9DADA;fill-rule:nonzero}
    .fil9 {fill:#434242;fill-rule:nonzero}
    .fil3 {fill:#2B2A29;fill-rule:nonzero}
    .fil7 {fill:black;fill-rule:nonzero}
    .fil4 {fill:#FEFEFE;fill-rule:nonzero;fill-opacity:0.501961}
   ]]>
  </style>
 </defs>
<symbol id="Capitale" viewBox="14722 10372 256 256">
 <circle class="fil0 str0" cx="14850" cy="10500" r="91"/>
</symbol>
<symbol id="villes" viewBox="14797 10447 105 105">
 <circle class="fil1" cx="14850" cy="10500" r="53"/>
</symbol>
 <g id="Plan_x0020_1">
  <metadata id="CorelCorpID_0Corel-Layer"/>
  <use x="14394" y="14987" width="256" height="256" xlink:href="#Capitale"/>
  <use x="13250" y="14713" width="105" height="105" xlink:href="#villes"/>
  <use x="12902" y="16250" width="105" height="105" xlink:href="#villes"/>
  <use x="12602" y="18469" width="105" height="105" xlink:href="#villes"/>
  <use x="8127" y="18510" width="105" height="105" xlink:href="#villes"/>
  <path class="fil2 str1" d="M17927 5127c-5,0 -7,-10 -9,-15 -5,-10 -13,-27 -26,-27 -9,0 -29,15 -36,21 -25,19 16,29 22,43 5,12 1,37 8,46 9,10 23,4 34,0 9,-4 16,-9 26,-11 13,-3 27,-3 37,-9 5,-3 1,-15 -1,-18 -6,-11 -13,-14 -22,-22l-32 -8zm-7780 10850c45,-10 68,8 115,13 131,68 152,-13 263,-48 28,-9 57,-53 88,-69 203,-106 443,-162 669,-191 46,-6 91,-43 120,-48 3,-5 4,-5 9,-10 51,-28 116,-83 173,-89 59,-6 126,-9 172,-51 29,-27 77,-5 115,-16 52,-15 105,-90 151,-90 105,0 87,-95 148,-166 67,-78 163,-136 175,-249 17,-41 70,-36 98,-73 5,-7 8,-112 5,-121 -23,-51 -22,-31 3,-83 17,-35 49,-100 49,-139 0,-55 89,-100 120,-138 30,-38 -29,-57 -36,-100 -67,-59 -12,-100 -32,-156 -27,-78 36,-52 52,-106 11,-37 50,-87 76,-115 108,-120 384,-224 507,-82 102,118 155,158 246,-7 28,-53 54,-92 57,-154 2,-39 0,-88 40,-106 99,-44 166,-131 265,-175 73,-46 168,-91 251,-112 109,-28 139,-108 223,-169 42,-31 95,-46 141,-77 152,-102 438,61 545,-145 49,-31 93,-65 126,-112 35,-50 37,-100 101,-127 47,-20 263,-161 278,-207 10,-30 7,-45 31,-69 60,-60 101,-115 122,-201 0,-79 -106,-75 -13,-160l189 -172c26,-24 74,-103 103,-131 42,-41 171,-186 230,-175 27,5 43,67 86,75 50,10 96,0 130,-43 38,-47 98,-60 128,-102 19,-22 39,-43 68,-49 32,-8 49,-15 49,-53 0,-71 33,-120 19,-191l-28 -147c-17,-91 -82,-106 -125,-175 -12,-5 -31,-30 -42,-32 -2,-12 -59,13 -69,17l-122 47c-71,27 -141,58 -202,101 -15,11 -101,79 -109,79 0,-30 74,-130 93,-160 43,-67 81,-159 130,-221 36,-56 45,-135 79,-192l92 -154c40,-67 193,-191 271,-191 34,0 62,-27 81,-27 13,0 18,76 18,90 0,41 49,63 49,77 -12,3 -60,14 -64,27 -4,15 15,43 8,51 -38,48 8,61 51,82 27,14 -20,38 -29,55 2,6 2,15 1,21 0,4 -2,9 -3,13 -13,29 -4,65 -25,89 -20,23 -38,44 -67,58 -51,25 39,58 1,99 -9,9 20,49 26,62 12,26 55,90 80,101 55,22 125,34 125,-47 0,-27 -47,-38 -57,-68 -17,-49 -61,-56 -109,-46 -25,5 -41,24 -35,-12 3,-20 3,-35 25,-26 28,12 95,12 127,10 55,-3 96,0 96,-71 0,-37 44,-18 44,-62 -72,-41 -67,-38 -26,-105 42,-68 19,-104 -9,-168 -15,-33 51,-67 62,-97 18,-50 23,-143 66,-179 64,-54 148,-148 179,-227 41,-45 84,-97 118,-148 34,-52 46,-114 84,-165 17,-23 59,-68 64,-95 3,-20 -50,-99 -59,-130 -22,-72 -70,-147 -79,-223 -35,-52 -15,-89 44,-97 26,-46 -27,-111 -40,-155 -23,-78 47,-107 47,-163 0,-45 -24,-80 -20,-130 5,-64 -3,-137 5,-198 -23,-201 250,-226 213,-452 -4,-22 -26,-49 -26,-69 0,-45 103,-86 84,-142 -18,-53 -21,-71 -5,-127 24,-24 68,-44 68,-83 0,-45 -25,-65 -40,-105 -41,-111 99,-127 119,-200 7,-26 -49,-115 -63,-138 -19,-32 31,-58 26,-72 -12,-35 -48,-30 -57,-79 0,-53 41,-79 72,-115 26,-31 54,-124 43,-165 -7,-26 -58,-66 -37,-92 20,-24 37,-78 42,-111 9,-55 17,-196 49,-235 27,-43 37,-38 77,-66 38,-26 -44,-34 -56,-39 -18,-9 -3,-38 -3,-54 0,-48 -15,-33 26,-62 46,-34 -18,-64 -41,-79 -21,-13 60,-105 72,-121 29,-38 40,-82 53,-127 24,-33 78,-63 50,-107 -26,-40 -116,-57 -54,-90 40,-22 36,-14 36,-57 0,-47 68,-54 -16,-75 4,-41 90,-151 121,-177 55,-45 127,-27 112,-117 -65,0 -94,-19 -94,57 0,30 -87,-29 -123,-20 -45,11 -66,48 -99,-14 -13,-24 -8,-69 -26,-93 -34,-47 -88,96 -102,96 -39,0 -30,-32 -77,0 -39,27 -71,72 -111,102 -47,35 -44,119 -47,121 -14,9 -56,5 -73,5 -36,0 -41,27 -62,49 -51,55 -108,177 -158,212 -29,10 -94,68 -104,99 -9,26 -3,61 -12,89 -15,46 -174,47 -197,76 -12,15 -40,93 -32,110 10,20 13,37 5,59 -20,60 -74,112 5,143l0 4c-79,20 42,124 20,194 -33,78 -35,112 -33,195 2,74 -14,138 -18,209 -2,41 3,85 -3,125 -8,59 -38,106 -57,164 -44,70 -38,108 -38,186 0,38 -104,19 -133,38 -31,20 -51,84 -72,115 -26,39 -97,71 -57,104 66,54 -24,90 -32,140 -6,39 0,87 -44,103 -48,36 -76,115 -43,168 20,32 -79,46 -52,114 13,32 -4,62 -16,92 -18,48 -47,126 -74,169 -37,59 -66,129 -104,186 -12,30 -21,52 -36,69l0 0 -166 -40c21,-17 25,-33 40,-49 19,-21 67,-32 75,-68 7,-32 13,-113 35,-137 12,-13 40,-23 55,-29 24,-10 26,-34 38,-53l2 -536c31,-36 60,-86 60,-133 0,-23 -44,-52 -58,-71 -46,-63 -35,-85 -35,-161 0,-29 -3,-66 15,-90 26,-35 60,-42 60,-97 11,-33 9,-61 9,-95 84,-17 62,-160 47,-219 -2,0 -42,-44 -47,-51 -24,-29 -75,-31 -88,-73 -7,-23 -1,-41 -18,-57 -23,-21 -40,-21 -40,-58 61,-90 34,-182 -22,-260 -34,-47 -25,-39 -4,-79 15,-28 14,-73 16,-104 3,-41 76,4 69,-91 -2,-32 -31,-54 -20,-93 22,-77 -14,-103 71,-132 85,-28 90,-39 99,-143 19,-73 54,-84 5,-141 -59,-69 -8,-210 35,-289 48,-88 97,-128 157,-216 87,-128 299,-6 416,-24 41,-6 62,-87 62,-128 0,-170 -110,-16 -204,-101 -46,-41 -98,52 -146,15 -34,-26 -30,-62 -75,-97 -33,-25 -12,-69 -24,-101 -12,-33 -124,-63 -66,-110 34,-27 -36,-160 -47,-194 -114,-156 -138,-165 -327,-165 -10,-71 -89,-119 -113,-183 -25,-67 -22,-66 26,-97 38,-24 6,-83 11,-121 6,-2 3,-5 11,-5 30,-75 206,-218 206,-311l-69 -97c-78,-109 342,-57 356,-128 24,-12 17,-98 51,-115 40,-20 93,3 104,46 3,1 3,0 4,4 37,7 35,-63 60,-86 37,-34 120,-61 153,-29 93,89 117,-20 193,-58 56,-25 92,-80 142,-104 24,-12 47,-52 78,-33 43,27 113,3 166,44 80,61 155,81 254,40 69,-29 130,-140 184,-194 14,-28 24,-42 15,-71 -9,-28 -10,-57 -13,-86 -2,-20 -7,-57 0,-77 10,-21 18,-124 24,-130 9,-8 91,-23 113,-37 36,-22 2,-61 69,-101 137,-79 153,16 254,82 38,25 127,-18 175,-18 40,0 82,18 120,18 1,7 5,7 5,16 101,25 115,52 159,137 39,75 103,69 168,104 47,26 141,-111 254,-91 48,8 51,65 97,68 64,3 120,-27 182,-27 124,0 90,117 228,80 36,-9 75,-13 91,-53 24,-57 76,-108 137,-108 39,0 90,-47 104,-82 24,-60 -41,-97 -15,-152 14,-29 41,-35 55,-69 15,-38 20,-89 51,-121 35,-40 155,-252 199,-252 0,73 54,43 75,77 46,72 -60,157 24,243 50,51 98,90 159,126 56,34 71,65 82,124 18,93 73,-26 139,-42 75,-19 168,11 237,-24 79,-7 63,-13 95,40 37,61 112,139 168,186 35,30 124,4 173,13 23,4 104,29 120,22 31,-13 70,-109 100,-141 16,-17 50,-19 71,-40 13,-13 52,-64 69,-69 63,0 153,-48 206,5 38,39 -4,296 -4,371 0,145 112,163 199,232 68,54 75,119 192,119 72,0 118,-29 168,33 63,78 153,30 235,55 29,9 79,48 102,49 53,3 50,-15 93,-24 3,-17 7,-28 11,-40 115,0 150,-77 288,-29 45,16 117,93 168,122 71,41 144,7 144,108 52,9 41,107 93,110 266,14 113,-46 181,-161 37,-64 116,59 172,-104 42,-123 240,-182 358,-108 43,27 107,93 173,58 53,-27 74,-111 99,-117 1,3 2,2 5,2 11,75 160,48 197,16 80,-69 157,16 195,-48 20,-52 51,-106 60,-159 16,-88 17,-202 99,-252 60,-37 19,-151 47,-166 62,-33 69,-72 108,-121 20,-26 84,-27 88,-35 28,-71 -67,-69 -82,-126 -7,-26 20,-45 38,-62 30,-27 11,-65 29,-97 21,-30 4,-49 45,-50l104 -3c78,-2 86,-33 152,-3 79,36 266,17 349,-8 93,-29 225,-72 302,-130 75,-28 105,-79 141,-146 14,-26 106,-103 136,-89 109,51 257,-44 353,57 36,38 101,43 130,86 23,35 43,89 43,132l5 75c-90,44 -199,-19 -257,92 -21,41 -37,99 -90,108 -57,10 -116,8 -154,54 -47,56 -161,75 -233,122l0 0c-7,5 -15,10 -21,16 -32,27 -51,76 -81,105 -59,59 -121,51 -148,133 -20,61 -36,110 -33,179 5,115 31,154 -9,274 -37,110 -122,106 -185,176 -29,32 -37,99 -4,132 16,16 22,31 44,40 33,14 88,37 120,42 35,5 59,1 93,0 37,-1 64,-16 95,5 6,5 -16,99 -11,115 12,41 26,89 57,117 30,28 148,86 113,152 -20,37 -97,-21 -135,18 -76,77 32,176 18,287 -22,176 44,290 166,402 90,83 -67,75 -78,97 -36,64 74,59 2,168 -35,53 21,156 66,197 102,95 179,130 95,281 -50,89 -71,149 -38,260 30,102 37,82 -4,188 -48,125 148,54 71,199 -35,66 -12,61 31,93 42,31 -14,84 -24,122 -41,160 107,165 62,294 -26,75 42,248 124,177 38,-32 68,-28 97,7 41,51 195,36 250,5 32,-3 46,0 79,-14 150,-62 107,122 223,127 27,1 4,38 3,54 -3,39 -9,78 5,116 17,45 59,77 88,116 68,66 129,144 205,196 20,13 42,30 69,31 82,3 89,-19 112,71 12,46 40,95 56,142 9,28 20,66 5,93 -34,65 34,24 34,82 0,49 51,45 28,107 -4,43 -7,112 31,133 82,47 3,111 49,175 19,26 -79,63 -93,83 -44,63 89,167 -6,188 -38,8 -29,57 -68,69 -41,13 -90,0 -71,66 0,16 -8,45 -5,58 8,33 71,49 20,88 -24,18 -72,40 -89,60 -18,22 23,51 10,80 -25,56 -73,72 -134,72 -52,0 -78,4 -129,-8 -53,-13 -36,82 -36,114 0,15 -16,41 -24,15 -11,-37 -21,-55 -61,-63 -50,34 -54,-48 -126,-48 -60,0 -58,57 -103,12 -51,-51 -74,36 -99,22 -92,-51 -89,-26 -171,20 -27,15 -100,-16 -146,6 -49,24 -28,81 -96,29 -53,-41 -146,28 -190,53 -37,21 -53,21 -93,21 -34,0 -59,49 -88,35 -80,-7 -106,10 -155,69 -43,51 -56,45 -120,58 -56,11 -10,47 -9,86 3,91 0,81 -77,102 -28,8 -33,28 -50,48 -21,26 -49,30 -79,43 -19,15 -45,10 -58,30 -9,13 -5,31 -16,45 -15,18 -51,20 -70,47 -47,65 -128,10 -143,100 -20,118 -48,191 -163,237 -76,30 -26,47 -53,99 -9,17 -29,37 -45,48 -20,13 -19,36 -32,53 -32,47 -50,36 -104,58 -49,19 -52,62 -91,89 -22,15 -64,0 -89,0 -42,0 -41,32 -70,52 -28,19 -121,28 -157,29 -57,2 -65,-7 -78,50 -12,49 -68,159 -104,196 -30,31 -125,1 -176,20 -24,33 -84,142 -125,142 -55,0 -119,47 -166,31 -38,-13 -74,-72 -83,-20 -15,91 -165,77 -234,92 -75,17 39,67 -1,128 -31,48 -98,-12 -111,37 -26,94 -92,20 -140,77 -71,83 23,82 70,110 21,53 36,42 26,108 -9,59 -70,132 -63,183 3,24 17,31 26,48 23,41 -7,82 25,126 25,35 25,46 68,55 70,15 50,35 81,89 10,18 -20,40 -29,53 -17,24 -7,48 2,72 20,22 22,54 38,74 18,22 53,6 76,16 19,9 16,23 26,41 4,9 84,71 91,71 28,2 87,-21 105,6 52,83 43,100 2,177 -16,29 -33,120 32,101 35,-11 61,-52 95,-17 42,43 98,39 141,72 13,10 -34,40 -41,51 -15,23 -23,49 -23,77 0,35 12,72 -15,97 -104,94 -129,201 -59,327 21,37 -10,29 -35,45 -37,23 -30,72 -50,106 -25,42 -64,68 -87,118 -21,41 -81,117 -124,130 -81,24 -60,-7 -110,75 -29,48 -72,-11 -111,7 -35,16 -44,66 -62,72 -22,8 -62,-21 -74,0 -66,117 -218,116 -284,255 -13,28 -40,136 -61,96 -34,-64 -86,-71 -143,-34 -122,69 -331,-29 -441,30l-90 48c-32,17 -41,65 -66,92 -59,65 -122,21 -162,108 -15,33 -82,81 -110,37 -21,-32 -129,43 -182,43 -50,0 -64,-22 -99,-50 -14,-11 -90,-14 -112,-16 -75,29 -127,-30 -147,80 -7,36 -10,153 -58,155 -61,3 -73,65 -119,87 -59,28 -116,21 -146,-40 -25,-51 -146,27 -193,-79 -44,-98 -13,-28 -106,-45 -129,-23 -70,112 -158,153 -24,11 -91,23 -102,44 -18,33 14,78 -28,102 -13,27 -7,71 -27,84l-111 72c-88,57 -127,143 -133,247 -3,50 -30,25 -61,40 -22,11 -19,44 -44,55 -25,11 -49,-8 -63,29 -18,50 -87,40 -132,51 -76,19 -72,128 -169,111 -97,-17 -148,-13 -214,64 -20,68 -77,54 -128,43 -49,-11 -234,41 -233,94 4,147 -30,95 -133,141 -44,19 -85,93 -137,121 -74,40 96,134 -5,214 -19,15 -94,-14 -98,32 -4,58 -35,56 -85,80 -8,38 -24,71 -67,63 -64,-11 -115,37 -189,26 -25,-4 -31,-27 -53,-31 -39,-8 -105,-6 -135,-32 -20,-18 -18,-46 -25,-71 -10,-42 -70,-45 -102,-68 -35,-24 -97,-15 -141,-26 -39,7 -55,-28 -89,-14 -34,14 -71,46 -99,6 -29,-42 -140,-38 -185,-24 -45,14 -46,76 -98,92 -34,11 -94,19 -120,42 -45,40 -32,85 -99,106 -69,21 -81,66 -138,102 -97,142 -394,-19 -422,201 -13,98 -18,53 -63,15 -39,-33 -92,-13 -122,20 -30,32 -152,-80 -181,-103 -43,-35 -15,-96 -51,-135 -23,-24 -36,-48 -49,-80 -26,-63 -56,66 -88,90 -74,58 -111,93 -216,56 -67,-59 -40,24 -94,2 -22,-9 -56,-51 -73,-69 -25,-26 -136,-123 -136,-49 0,46 -11,142 -49,172 -60,48 -255,7 -227,104 31,108 -4,189 -89,252 -20,28 -73,62 -27,82l103 46c14,6 98,66 107,77 18,21 36,55 41,83 13,73 12,99 -55,118 -69,19 -53,57 -99,86 -60,38 -121,-39 -155,29l-110 224c-22,26 -10,79 -16,111 -7,39 -19,67 -19,109 0,39 15,47 -24,69 -69,39 -303,140 -217,243 20,23 35,60 52,86 21,31 13,87 65,83 58,-4 84,-17 139,12 40,26 63,70 109,90 47,22 76,-32 109,-22 58,18 95,126 130,164 48,50 131,5 185,20 12,3 90,55 87,63l-57 122c-13,28 -60,21 -91,21 -45,0 -36,-34 -89,-6 -40,21 -152,-34 -162,23 -8,51 -50,89 -90,115 -37,25 -71,-15 -108,-20 -36,-5 -131,-2 -157,21 -38,34 -23,84 -67,121 -19,31 -40,92 -84,53 -40,-35 -48,-31 -103,-31 -45,0 -43,8 -57,48 -16,45 -81,94 -66,140 16,47 -6,69 -44,89 -57,30 -105,16 -141,77 -17,29 -43,43 -68,62 -28,21 -18,34 -26,66 13,39 27,72 53,104 17,21 27,47 27,73 0,23 -2,32 -17,48 -21,23 -23,37 -2,59 28,29 -7,26 -19,43l-34 12 0 0 -68 10c-68,36 -67,-7 -130,0 -52,6 -80,-41 -118,-26 -39,16 -68,6 -108,8 -72,4 -76,32 -134,-20 -48,-42 -110,-27 -161,-8 -56,20 -168,-73 -176,-132 -106,-21 -86,-38 -128,-130 -3,-23 -11,-50 -21,-72 -8,-18 -40,-32 -42,-50l-14 -103c-5,-35 -64,-38 -96,-60 -51,-35 -126,-78 -166,-126 -16,-19 -40,-51 -64,-62 -47,-22 -102,-10 -150,-27 -49,-10 -235,-76 -268,-38 -73,83 -143,38 -246,58 -70,14 -89,42 -145,-5 -64,-55 -93,-61 -182,-61 -117,0 -13,-143 -97,-143 -58,0 -106,-28 -159,-31 -77,-5 -102,-37 -174,-46l-157 8c-43,2 -100,23 -139,17 -42,-7 -85,-76 -152,-76 -51,0 -87,57 -136,27 -51,-32 -69,-80 -125,-64 -13,4 -94,12 -87,24 20,32 -59,73 -77,84 -75,48 -218,142 -314,97 -18,0 -49,-13 -57,-28 -19,0 -91,-25 -107,-17 -31,16 -32,70 -57,89 -67,50 -168,103 -243,11 -1,-2 -11,-8 -12,-5 -5,0 -72,92 -98,106 -40,22 -103,58 -137,14 -15,-19 -56,24 -91,9 -15,-6 -114,2 -121,11 -43,50 -25,118 -101,138 -72,19 -16,2 -51,55 -25,38 11,91 -64,81 -105,26 -91,106 -218,106 -48,0 -212,-22 -221,-82 -3,-21 -98,9 -104,-9 -24,-75 -69,12 -89,29 -76,62 -91,-30 -141,72 -21,42 -66,-6 -94,-10 -76,-10 -56,8 -78,-54 -6,-17 -58,1 -70,-1 -19,-3 -25,-56 -31,-69 -25,-55 -190,-35 -236,-28 -20,11 -147,73 -159,39 -14,-41 17,-81 6,-114 -14,-41 -36,-28 -20,-75 21,-60 14,-50 -19,-98 -69,-102 -74,14 -134,16 -44,1 -90,-31 -125,-23 -57,13 -99,31 -162,31 -54,0 -63,-64 -136,-66 -44,-1 -23,-28 -42,-48 -39,-43 -131,-53 -144,-122 -3,-18 -138,75 -151,-31 -26,-56 -29,-110 -41,-169 -12,-61 -113,-63 -106,-101 8,-40 2,-64 2,-103 0,-34 -102,-39 -126,-78 -11,-18 -5,-58 -18,-69 -23,-17 -56,9 -67,-27 -6,-21 -24,1 -40,-7 -23,-12 -81,-35 -91,-59 -12,-26 26,-52 34,-76 23,-72 -47,-145 -99,-186 -50,-40 -68,-25 -66,-98 2,-57 -21,-101 17,-146 20,-24 -15,-70 -20,-94 -13,-51 39,-79 19,-116 -15,-28 -29,-102 -46,-116 -24,-21 -54,-11 -65,-44 -13,-41 -20,-60 9,-98 15,-20 -25,-20 -32,-25 -7,-5 -17,-153 -7,-162 33,-31 39,-19 0,-58 -14,-14 4,-24 8,-40 3,-13 -19,-34 -21,-49 -2,-19 -15,-93 -9,-101 22,-28 84,-1 78,-51 -13,-105 -105,-155 -177,-211 -21,-16 -55,6 -76,8 -31,4 -36,-37 -56,-53 -31,-26 -56,6 -85,20 -6,3 -86,-25 -91,-31 -16,-19 -26,-22 -44,-37 -52,-44 -95,-64 -162,-43 -74,23 -119,67 -130,-24 -5,-39 -39,-38 -70,-46 -41,-10 -26,-58 -85,-58 -80,0 -72,115 -162,110 -28,-2 -190,-129 -199,-152 -22,-58 -33,-64 -84,-27 -42,31 -106,51 -124,-8 -3,-40 -19,-74 -19,-114 -34,0 -44,44 -87,36 -59,-12 -42,1 -57,-58 -22,-90 -169,-6 -227,-86 -47,-64 -100,-48 -150,-94 -59,-55 -112,-107 -189,-121 -17,-4 -43,1 -56,-11 -7,-6 2,-25 -6,-28 -33,-14 -66,2 -100,-17 -61,-35 -106,31 -166,31 -6,-10 -9,-20 -9,-34 -53,-13 -143,53 -201,16 -59,-37 -93,-11 -156,-37 -38,-16 -70,-18 -106,5 -52,35 -83,63 -130,5 -13,-17 -70,7 -89,11 -50,10 -54,-10 -81,-39 -28,-21 -3,-88 -51,-104 -73,-24 4,-44 -21,-79 -9,-12 -29,-31 -28,-47 2,-42 1,-48 -12,-89 -2,-7 -1,-41 -5,-44 -14,-9 -135,3 -150,15 -23,18 -29,47 -61,31 -34,-17 -60,34 -81,17 -17,-13 -14,-67 -32,-91 -35,-48 -68,-50 -111,-81 -45,-15 -62,24 -106,19 -31,-3 -58,-34 -81,-24 -21,10 -40,34 -65,18 -32,-21 -40,-34 -79,-44 -37,-9 -30,-77 -30,-106 0,-56 -84,-2 -119,-28 -22,-16 -28,-33 -58,-22 -44,16 -56,20 -88,-16 -23,-26 -18,-65 -53,-58 -58,13 -63,-16 -75,-63 -11,-41 -26,-99 -53,-132l0 0c54,-71 -33,-88 -38,-124 -62,0 -125,-1 -179,-18 21,-49 55,-38 7,-99 -16,-20 -1,-48 -24,-71 -23,-24 -99,-23 -133,-40 -18,-9 -68,33 -100,33 0,-59 26,-126 22,-190 -2,-23 7,-47 2,-68 -11,-43 -50,-71 -9,-117 22,-25 38,-20 57,-66 46,-112 224,-117 168,-241 -3,-29 -25,-71 -16,-97 9,-26 28,-19 49,-33 44,-28 15,-77 88,-86 66,-8 74,-98 73,-155l-2 -110c0,-17 4,-108 -15,-108 -5,-12 -90,-24 -109,-35 -48,-27 31,-144 64,-174 29,-26 38,-124 93,-124 36,0 70,55 100,73 59,37 149,67 212,93 84,34 74,-126 86,-126 1,-4 24,-14 29,-16 0,-16 -20,-32 -29,-44l13 -62 0 0c94,-84 148,-92 182,-218 24,-88 51,-155 164,-137 94,14 168,-52 248,-86 27,-11 68,-1 97,-13 59,-24 69,-108 159,-108 92,0 54,-184 104,-258 53,-78 184,-49 261,-26 43,13 180,-152 294,-152 50,0 37,96 53,130 26,55 48,89 100,132l70 68c-6,8 -10,17 -12,25 -10,42 -24,73 -53,102 -69,69 12,84 4,150 -1,10 -11,22 -5,35 6,13 20,26 16,38 44,46 101,63 139,121 29,44 84,39 103,72 31,54 66,124 89,183 25,63 136,61 189,110 58,58 134,113 172,191 35,72 86,82 159,90 111,11 139,119 224,165 42,23 90,5 129,40 30,27 50,67 86,91 85,79 160,35 255,70 99,37 40,163 137,218 102,57 72,148 214,168 43,216 248,299 418,384 8,38 -40,90 -40,137 36,9 55,98 104,117 93,35 106,-82 142,-88 1,-10 5,-7 7,-15 36,-7 74,-84 115,-60l172 99c82,47 101,-54 150,-38l270 88c31,10 5,98 18,137 22,68 73,118 108,181 50,67 85,179 148,221 62,42 155,24 155,115 38,13 44,97 135,97 29,0 163,-13 170,18 6,3 10,36 11,46 3,23 20,28 22,40 8,4 -2,34 -2,44 60,26 140,0 182,64 55,83 -72,149 -16,252 65,120 -17,175 15,291 50,58 20,202 89,218 41,9 132,85 139,130 3,1 4,2 7,2 3,16 48,-102 66,-58 14,0 37,18 64,18 83,0 127,-73 224,-58 28,4 104,58 139,73 28,12 101,42 128,42l40 669c55,0 125,22 166,-24 35,-38 121,-139 173,-115 45,20 50,24 91,-15 24,-23 62,-55 71,-88 45,-33 101,-93 161,-57 108,67 198,-64 301,-64 48,0 70,35 120,35 55,0 81,-29 122,-35 0,-49 35,-93 20,-150 -13,-53 -41,-184 -41,-243l0 0zm-9147 -14978l27700 0 0 18856 -27700 0 0 -18856z"/>
  <path class="fil3" d="M14872 15226l40 0 0 175c0,30 -3,55 -10,73 -7,18 -19,32 -37,44 -18,11 -41,17 -71,17 -28,0 -52,-5 -69,-15 -18,-10 -31,-24 -39,-42 -8,-19 -12,-44 -12,-76l0 -175 40 0 0 175c0,26 2,46 7,58 5,12 13,22 25,29 12,7 26,10 44,10 29,0 50,-7 63,-20 12,-13 19,-39 19,-77l0 -175z"/>
  <polygon id="1" class="fil3" points="14974,15529 14974,15226 15011,15226 15011,15529 "/>
  <path id="2" class="fil3" d="M15213 15502c-14,12 -27,20 -40,25 -13,5 -26,7 -41,7 -24,0 -43,-6 -56,-18 -13,-12 -19,-27 -19,-45 0,-11 2,-21 7,-29 5,-9 11,-16 19,-21 8,-5 17,-9 27,-12 7,-2 18,-4 33,-6 30,-4 52,-8 66,-13 0,-5 0,-8 0,-10 0,-15 -4,-26 -11,-32 -10,-8 -24,-13 -42,-13 -18,0 -31,3 -39,9 -8,6 -15,17 -19,33l-36 -5c3,-16 9,-28 16,-38 8,-10 19,-17 33,-22 14,-5 31,-8 50,-8 19,0 34,2 46,7 12,4 20,10 26,17 6,7 9,15 12,25 1,6 2,18 2,34l0 49c0,35 1,56 2,66 1,9 5,18 9,27l-39 0c-4,-8 -6,-17 -7,-28zm-3 -83c-14,6 -34,10 -61,14 -15,2 -26,5 -33,7 -6,3 -11,7 -15,12 -3,5 -5,11 -5,18 0,10 4,18 11,25 8,7 19,10 33,10 14,0 27,-3 38,-9 11,-6 19,-15 25,-26 4,-8 6,-21 6,-37l0 -14z"/>
  <path id="3" class="fil3" d="M15304 15529l0 -220 33 0 0 31c16,-24 39,-36 70,-36 13,0 25,2 36,7 11,5 19,11 25,19 6,8 9,17 12,27 1,7 2,19 2,36l0 135 -37 0 0 -133c0,-15 -1,-27 -4,-34 -3,-7 -8,-13 -15,-18 -7,-4 -16,-7 -26,-7 -16,0 -29,5 -41,15 -12,10 -17,29 -17,57l0 120 -37 0z"/>
  <polygon id="4" class="fil3" points="15525,15438 15525,15401 15640,15401 15640,15438 "/>
  <path id="5" class="fil3" d="M15884 15226l40 0 0 175c0,30 -3,55 -10,73 -7,18 -19,32 -37,44 -18,11 -41,17 -71,17 -28,0 -52,-5 -69,-15 -18,-10 -31,-24 -39,-42 -8,-19 -12,-44 -12,-76l0 -175 40 0 0 175c0,26 2,46 7,58 5,12 13,22 25,29 12,7 26,10 44,10 29,0 50,-7 63,-20 12,-13 19,-39 19,-77l0 -175z"/>
  <path id="6" class="fil3" d="M16128 15529l0 -28c-14,22 -34,33 -61,33 -18,0 -34,-5 -48,-14 -15,-10 -26,-23 -34,-40 -8,-17 -12,-37 -12,-60 0,-22 4,-42 11,-60 7,-18 18,-31 33,-41 15,-10 31,-14 49,-14 13,0 25,3 35,8 10,6 19,13 25,22l0 -109 37 0 0 303 -35 0zm-118 -110c0,28 6,49 18,63 12,14 26,21 42,21 16,0 30,-7 42,-20 11,-13 17,-34 17,-61 0,-30 -6,-52 -17,-66 -12,-14 -26,-21 -43,-21 -17,0 -30,7 -42,20 -11,13 -17,35 -17,64z"/>
  <path id="7" class="fil3" d="M16372 15458l39 5c-6,22 -17,40 -34,52 -16,12 -37,19 -63,19 -32,0 -57,-10 -76,-30 -19,-20 -28,-47 -28,-83 0,-37 9,-65 28,-86 19,-20 44,-31 74,-31 29,0 53,10 72,30 19,20 28,48 28,84 0,2 0,6 0,10l-164 0c1,24 8,43 20,55 12,13 28,19 46,19 14,0 25,-4 35,-11 10,-7 17,-19 23,-35zm-122 -60l122 0c-2,-18 -6,-32 -14,-42 -12,-14 -27,-22 -46,-22 -17,0 -31,6 -43,17 -12,11 -18,27 -19,46z"/>
  <path class="fil3" d="M12756 14969l25 -2c1,10 4,18 8,25 4,6 11,12 20,16 9,4 20,6 31,6 10,0 19,-2 27,-5 8,-3 14,-7 17,-13 4,-5 6,-11 6,-17 0,-6 -2,-12 -6,-17 -4,-5 -10,-9 -18,-12 -5,-2 -17,-5 -36,-10 -19,-4 -32,-9 -39,-13 -10,-5 -17,-11 -22,-19 -5,-7 -7,-16 -7,-25 0,-10 3,-20 9,-29 6,-9 14,-16 25,-20 11,-5 23,-7 37,-7 15,0 28,2 40,7 11,5 20,12 26,21 6,9 9,20 10,32l-26 2c-1,-13 -6,-22 -14,-29 -8,-7 -20,-10 -35,-10 -16,0 -28,3 -35,9 -7,6 -11,13 -11,21 0,7 3,13 8,18 5,5 19,10 40,14 22,5 37,9 45,13 12,5 20,12 26,21 6,8 8,18 8,29 0,11 -3,21 -9,30 -6,10 -15,17 -26,22 -12,5 -24,8 -39,8 -18,0 -34,-3 -46,-8 -12,-5 -22,-13 -29,-24 -7,-11 -11,-23 -11,-36z"/>
  <path id="1" class="fil3" d="M13050 14987l26 3c-4,15 -11,27 -22,35 -11,8 -25,12 -42,12 -21,0 -38,-7 -51,-20 -13,-13 -19,-32 -19,-55 0,-25 6,-44 19,-57 13,-14 29,-20 49,-20 20,0 35,7 48,20 12,13 19,32 19,56 0,1 0,4 0,7l-109 0c1,16 5,28 14,37 8,9 18,13 31,13 9,0 17,-2 23,-7 6,-5 12,-12 15,-23zm-81 -40l82 0c-1,-12 -4,-22 -9,-28 -8,-10 -18,-14 -31,-14 -11,0 -21,4 -29,11 -8,8 -12,18 -13,31z"/>
  <polygon id="2" class="fil3" points="13106,15034 13106,14832 13131,14832 13131,15034 "/>
  <path id="3" class="fil3" d="M13270 14987l26 3c-4,15 -11,27 -22,35 -11,8 -25,12 -42,12 -21,0 -38,-7 -51,-20 -13,-13 -19,-32 -19,-55 0,-25 6,-44 19,-57 13,-14 29,-20 49,-20 20,0 35,7 48,20 12,13 19,32 19,56 0,1 0,4 0,7l-109 0c1,16 5,28 14,37 8,9 18,13 31,13 9,0 17,-2 23,-7 6,-5 12,-12 15,-23zm-81 -40l82 0c-1,-12 -4,-22 -9,-28 -8,-10 -18,-14 -31,-14 -11,0 -21,4 -29,11 -8,8 -12,18 -13,31z"/>
  <path id="4" class="fil3" d="M13327 15034l0 -146 22 0 0 21c11,-16 26,-24 47,-24 9,0 17,2 24,5 7,3 13,7 17,12 4,5 6,11 8,18 1,5 1,13 1,24l0 90 -25 0 0 -89c0,-10 -1,-18 -3,-23 -2,-5 -5,-9 -10,-12 -5,-3 -11,-4 -17,-4 -11,0 -20,3 -27,10 -8,7 -11,19 -11,38l0 80 -25 0z"/>
  <path id="5" class="fil3" d="M13479 15047l24 3c1,7 4,13 8,16 6,5 15,7 25,7 11,0 20,-2 27,-7 6,-5 10,-11 13,-19 1,-5 2,-16 2,-32 -11,13 -24,19 -41,19 -20,0 -36,-7 -47,-22 -11,-14 -17,-32 -17,-52 0,-14 3,-27 8,-39 5,-12 12,-21 22,-27 10,-6 21,-10 34,-10 17,0 32,7 43,21l0 -18 23 0 0 126c0,23 -2,39 -7,48 -5,10 -12,17 -22,23 -10,6 -22,8 -37,8 -17,0 -32,-4 -42,-12 -11,-8 -16,-20 -16,-35zm20 -88c0,19 4,33 11,42 8,9 17,13 29,13 11,0 21,-4 29,-13 8,-9 12,-22 12,-41 0,-18 -4,-31 -12,-40 -8,-9 -18,-14 -29,-14 -11,0 -20,4 -28,13 -8,9 -12,22 -12,40z"/>
  <path id="6" class="fil3" d="M13641 14861l0 -28 25 0 0 28 -25 0zm0 174l0 -146 25 0 0 146 -25 0z"/>
  <path id="7" class="fil3" d="M13703 15034l0 -146 22 0 0 21c11,-16 26,-24 47,-24 9,0 17,2 24,5 7,3 13,7 17,12 4,5 6,11 8,18 1,5 1,13 1,24l0 90 -25 0 0 -89c0,-10 -1,-18 -3,-23 -2,-5 -5,-9 -10,-12 -5,-3 -11,-4 -17,-4 -11,0 -20,3 -27,10 -8,7 -11,19 -11,38l0 80 -25 0z"/>
  <path id="8" class="fil3" d="M13850 14991l25 -4c1,10 5,17 12,23 6,5 15,8 26,8 11,0 20,-2 25,-7 6,-5 8,-10 8,-16 0,-6 -3,-10 -7,-13 -3,-2 -12,-5 -25,-8 -18,-5 -31,-9 -38,-12 -7,-3 -12,-8 -16,-14 -4,-6 -5,-12 -5,-20 0,-7 2,-13 4,-18 3,-6 7,-10 12,-14 4,-3 9,-5 16,-7 7,-2 14,-3 21,-3 11,0 22,2 30,5 9,3 15,8 19,13 4,6 7,13 9,23l-24 3c-1,-8 -4,-14 -10,-18 -5,-4 -13,-6 -22,-6 -11,0 -19,2 -24,6 -5,4 -7,8 -7,13 0,3 1,6 3,9 2,3 5,5 10,7 3,1 10,3 22,6 18,5 30,9 37,11 7,3 12,7 16,13 4,6 6,13 6,21 0,8 -2,16 -7,23 -5,7 -12,13 -21,17 -9,4 -19,6 -31,6 -19,0 -34,-4 -44,-12 -10,-8 -16,-20 -19,-35z"/>
  <polygon id="9" class="fil3" points="14001,15034 14001,14832 14026,14832 14026,14947 14085,14888 14117,14888 14061,14942 14123,15034 14092,15034 14044,14960 14026,14976 14026,15034 "/>
  <path class="fil3" d="M11117 16252l0 -24 86 0 0 75c-13,10 -27,18 -41,24 -14,5 -28,8 -43,8 -20,0 -38,-4 -54,-13 -16,-8 -28,-21 -37,-37 -8,-16 -12,-34 -12,-54 0,-20 4,-38 12,-55 8,-17 20,-30 35,-38 15,-8 33,-12 53,-12 15,0 28,2 40,7 12,5 21,11 28,20 7,8 12,20 15,33l-24 7c-3,-10 -7,-18 -11,-24 -5,-6 -11,-11 -19,-14 -8,-4 -18,-5 -28,-5 -12,0 -23,2 -32,6 -9,4 -16,9 -22,15 -5,6 -10,13 -13,20 -5,13 -8,26 -8,41 0,18 3,33 9,45 6,12 15,21 27,27 12,6 24,9 38,9 12,0 23,-2 34,-7 11,-5 19,-9 25,-14l0 -38 -59 0z"/>
  <path id="1" class="fil3" d="M11335 16331l0 -22c-11,17 -27,25 -46,25 -9,0 -17,-2 -24,-5 -7,-3 -13,-7 -17,-12 -4,-5 -6,-11 -8,-18 -1,-5 -2,-13 -2,-23l0 -91 25 0 0 81c0,13 1,22 2,26 2,7 5,12 10,15 5,4 11,6 19,6 7,0 14,-2 21,-6 6,-4 11,-9 14,-16 3,-7 4,-16 4,-29l0 -78 25 0 0 146 -22 0z"/>
  <path id="2" class="fil3" d="M11386 16287l25 -4c1,10 5,17 12,23 6,5 15,8 26,8 11,0 20,-2 25,-7 6,-5 8,-10 8,-16 0,-6 -3,-10 -7,-13 -3,-2 -12,-5 -25,-8 -18,-5 -31,-9 -38,-12 -7,-3 -12,-8 -16,-14 -4,-6 -5,-12 -5,-20 0,-7 2,-13 4,-18 3,-6 7,-10 12,-14 4,-3 9,-5 16,-7 7,-2 14,-3 21,-3 11,0 22,2 30,5 9,3 15,8 19,13 4,6 7,13 9,23l-24 3c-1,-8 -4,-14 -10,-18 -5,-4 -13,-6 -22,-6 -11,0 -19,2 -24,6 -5,4 -7,8 -7,13 0,3 1,6 3,9 2,3 5,5 10,7 3,1 10,3 22,6 18,5 30,9 37,11 7,3 12,7 16,13 4,6 6,13 6,21 0,8 -2,16 -7,23 -5,7 -12,13 -21,17 -9,4 -19,6 -31,6 -19,0 -34,-4 -44,-12 -10,-8 -16,-20 -19,-35z"/>
  <path id="3" class="fil3" d="M11537 16157l0 -28 25 0 0 28 -25 0zm0 174l0 -146 25 0 0 146 -25 0z"/>
  <path id="4" class="fil3" d="M11600 16331l0 -146 22 0 0 21c11,-16 26,-24 47,-24 9,0 17,2 24,5 7,3 13,7 17,12 4,5 6,11 8,18 1,5 1,13 1,24l0 90 -25 0 0 -89c0,-10 -1,-18 -3,-23 -2,-5 -5,-9 -10,-12 -5,-3 -11,-4 -17,-4 -11,0 -20,3 -27,10 -8,7 -11,19 -11,38l0 80 -25 0z"/>
  <path id="5" class="fil3" d="M11747 16258c0,-27 8,-47 23,-60 13,-11 28,-16 46,-16 20,0 37,7 49,20 13,13 19,31 19,55 0,19 -3,34 -8,44 -6,11 -14,19 -25,25 -11,6 -23,9 -35,9 -21,0 -37,-7 -50,-20 -13,-13 -19,-32 -19,-57zm25 0c0,19 4,33 12,42 8,9 19,14 31,14 12,0 23,-5 31,-14 8,-9 12,-24 12,-43 0,-18 -4,-32 -12,-41 -8,-9 -18,-14 -31,-14 -12,0 -23,5 -31,14 -8,9 -12,23 -12,42z"/>
  <path id="6" class="fil3" d="M11904 16258c0,-27 8,-47 23,-60 13,-11 28,-16 46,-16 20,0 37,7 49,20 13,13 19,31 19,55 0,19 -3,34 -8,44 -6,11 -14,19 -25,25 -11,6 -23,9 -35,9 -21,0 -37,-7 -50,-20 -13,-13 -19,-32 -19,-57zm25 0c0,19 4,33 12,42 8,9 19,14 31,14 12,0 23,-5 31,-14 8,-9 12,-24 12,-43 0,-18 -4,-32 -12,-41 -8,-9 -18,-14 -31,-14 -12,0 -23,5 -31,14 -8,9 -12,23 -12,42z"/>
  <path id="7" class="fil3" d="M12058 16331l0 -20 93 -107c-11,1 -20,1 -28,1l-59 0 0 -20 119 0 0 16 -79 93 -15 17c11,-1 22,-1 31,-1l68 0 0 21 -130 0z"/>
  <path id="8" class="fil3" d="M12211 16387l-3 -23c5,1 10,2 14,2 6,0 10,-1 13,-3 3,-2 6,-4 8,-8 2,-2 4,-9 8,-19 0,-1 1,-3 2,-6l-56 -147 27 0 31 85c4,11 8,22 11,34 3,-11 6,-22 10,-33l31 -85 25 0 -55 149c-6,16 -11,27 -14,33 -4,8 -10,14 -15,18 -6,4 -13,6 -20,6 -5,0 -10,-1 -16,-3z"/>
  <path id="9" class="fil3" d="M12344 16258c0,-27 8,-47 23,-60 13,-11 28,-16 46,-16 20,0 37,7 49,20 13,13 19,31 19,55 0,19 -3,34 -8,44 -6,11 -14,19 -25,25 -11,6 -23,9 -35,9 -21,0 -37,-7 -50,-20 -13,-13 -19,-32 -19,-57zm25 0c0,19 4,33 12,42 8,9 19,14 31,14 12,0 23,-5 31,-14 8,-9 12,-24 12,-43 0,-18 -4,-32 -12,-41 -8,-9 -18,-14 -31,-14 -12,0 -23,5 -31,14 -8,9 -12,23 -12,42z"/>
  <path id="10" class="fil3" d="M12510 16331l0 -146 22 0 0 22c6,-10 11,-17 16,-21 5,-3 10,-5 16,-5 8,0 17,3 26,8l-9 23c-6,-3 -12,-5 -18,-5 -5,0 -10,2 -15,5 -4,3 -7,8 -9,14 -3,9 -4,18 -4,29l0 77 -25 0z"/>
  <path id="11" class="fil3" d="M12594 16287l25 -4c1,10 5,17 12,23 6,5 15,8 26,8 11,0 20,-2 25,-7 6,-5 8,-10 8,-16 0,-6 -3,-10 -7,-13 -3,-2 -12,-5 -25,-8 -18,-5 -31,-9 -38,-12 -7,-3 -12,-8 -16,-14 -4,-6 -5,-12 -5,-20 0,-7 2,-13 4,-18 3,-6 7,-10 12,-14 4,-3 9,-5 16,-7 7,-2 14,-3 21,-3 11,0 22,2 30,5 9,3 15,8 19,13 4,6 7,13 9,23l-24 3c-1,-8 -4,-14 -10,-18 -5,-4 -13,-6 -22,-6 -11,0 -19,2 -24,6 -5,4 -7,8 -7,13 0,3 1,6 3,9 2,3 5,5 10,7 3,1 10,3 22,6 18,5 30,9 37,11 7,3 12,7 16,13 4,6 6,13 6,21 0,8 -2,16 -7,23 -5,7 -12,13 -21,17 -9,4 -19,6 -31,6 -19,0 -34,-4 -44,-12 -10,-8 -16,-20 -19,-35z"/>
  <polygon id="12" class="fil3" points="12745,16331 12745,16129 12770,16129 12770,16244 12829,16185 12861,16185 12805,16239 12866,16331 12836,16331 12787,16256 12770,16273 12770,16331 "/>
  <polygon class="fil3" points="12866,18449 12866,18247 12893,18247 12893,18347 12993,18247 13029,18247 12945,18329 13033,18449 12998,18449 12926,18347 12893,18379 12893,18449 "/>
  <path id="1" class="fil3" d="M13051 18506l-3 -23c5,1 10,2 14,2 6,0 10,-1 13,-3 3,-2 6,-4 8,-8 2,-2 4,-9 8,-19 0,-1 1,-3 2,-6l-56 -147 27 0 31 85c4,11 8,22 11,34 3,-11 6,-22 10,-33l31 -85 25 0 -55 149c-6,16 -11,27 -14,33 -4,8 -10,14 -15,18 -6,4 -13,6 -20,6 -5,0 -10,-1 -16,-3z"/>
  <path id="2" class="fil3" d="M13289 18431c-9,8 -18,13 -27,17 -9,3 -18,5 -27,5 -16,0 -28,-4 -37,-12 -9,-8 -13,-18 -13,-30 0,-7 2,-14 5,-20 3,-6 8,-11 13,-14 5,-4 11,-6 18,-8 5,-1 12,-2 22,-4 20,-2 35,-5 44,-9 0,-3 0,-6 0,-6 0,-10 -2,-17 -7,-21 -6,-6 -16,-8 -28,-8 -12,0 -20,2 -26,6 -6,4 -10,11 -12,22l-24 -3c2,-10 6,-19 11,-25 5,-6 12,-11 22,-15 10,-3 21,-5 33,-5 13,0 23,1 31,4 8,3 14,7 17,11 4,4 6,10 8,17 1,4 1,12 1,23l0 33c0,23 1,38 2,44 1,6 3,12 6,18l-26 0c-3,-5 -4,-11 -5,-18zm-2 -55c-9,4 -23,7 -41,9 -10,1 -17,3 -22,5 -4,2 -7,5 -10,8 -2,4 -3,7 -3,12 0,7 2,12 8,16 5,4 12,7 22,7 10,0 18,-2 26,-6 7,-4 13,-10 16,-17 3,-6 4,-14 4,-25l0 -9z"/>
  <polygon id="3" class="fil3" points="13350,18449 13350,18247 13375,18247 13375,18362 13434,18303 13466,18303 13410,18357 13472,18449 13441,18449 13392,18374 13375,18391 13375,18449 "/>
  <path id="4" class="fil3" d="M13491 18449l0 -202 25 0 0 73c12,-14 26,-20 44,-20 11,0 20,2 28,6 8,4 14,10 17,18 3,8 5,18 5,33l0 93 -25 0 0 -93c0,-12 -3,-21 -8,-27 -5,-6 -13,-8 -23,-8 -7,0 -14,2 -21,6 -6,4 -11,9 -14,16 -3,6 -4,15 -4,27l0 80 -25 0z"/>
  <path id="5" class="fil3" d="M13702 18427l3 22c-7,1 -13,2 -19,2 -9,0 -16,-1 -21,-4 -5,-3 -8,-7 -10,-11 -2,-5 -3,-14 -3,-29l0 -84 -18 0 0 -19 18 0 0 -36 25 -15 0 51 25 0 0 19 -25 0 0 86c0,7 0,12 1,14 1,2 2,4 4,5 2,1 5,2 8,2 3,0 6,0 11,-1z"/>
  <path id="6" class="fil3" d="M13822 18431c-9,8 -18,13 -27,17 -9,3 -18,5 -27,5 -16,0 -28,-4 -37,-12 -9,-8 -13,-18 -13,-30 0,-7 2,-14 5,-20 3,-6 8,-11 13,-14 5,-4 11,-6 18,-8 5,-1 12,-2 22,-4 20,-2 35,-5 44,-9 0,-3 0,-6 0,-6 0,-10 -2,-17 -7,-21 -6,-6 -16,-8 -28,-8 -12,0 -20,2 -26,6 -6,4 -10,11 -12,22l-24 -3c2,-10 6,-19 11,-25 5,-6 12,-11 22,-15 10,-3 21,-5 33,-5 13,0 23,1 31,4 8,3 14,7 17,11 4,4 6,10 8,17 1,4 1,12 1,23l0 33c0,23 1,38 2,44 1,6 3,12 6,18l-26 0c-3,-5 -4,-11 -5,-18zm-2 -55c-9,4 -23,7 -41,9 -10,1 -17,3 -22,5 -4,2 -7,5 -10,8 -2,4 -3,7 -3,12 0,7 2,12 8,16 5,4 12,7 22,7 10,0 18,-2 26,-6 7,-4 13,-10 16,-17 3,-6 4,-14 4,-25l0 -9z"/>
  <path class="fil3" d="M8261 18696l0 -25 103 -130c7,-9 14,-17 21,-24l-113 0 0 -24 144 0 0 24 -114 140 -12 14 129 0 0 24 -160 0z"/>
  <path id="1" class="fil3" d="M8542 18678c-9,8 -18,13 -27,17 -9,3 -18,5 -27,5 -16,0 -28,-4 -37,-12 -9,-8 -13,-18 -13,-30 0,-7 2,-14 5,-20 3,-6 8,-11 13,-14 5,-4 11,-6 18,-8 5,-1 12,-2 22,-4 20,-2 35,-5 44,-9 0,-3 0,-6 0,-6 0,-10 -2,-17 -7,-21 -6,-6 -16,-8 -28,-8 -12,0 -20,2 -26,6 -6,4 -10,11 -12,22l-24 -3c2,-10 6,-19 11,-25 5,-6 12,-11 22,-15 10,-3 21,-5 33,-5 13,0 23,1 31,4 8,3 14,7 17,11 4,4 6,10 8,17 1,4 1,12 1,23l0 33c0,23 1,38 2,44 1,6 3,12 6,18l-26 0c-3,-5 -4,-11 -5,-18zm-2 -55c-9,4 -23,7 -41,9 -10,1 -17,3 -22,5 -4,2 -7,5 -10,8 -2,4 -3,7 -3,12 0,7 2,12 8,16 5,4 12,7 22,7 10,0 18,-2 26,-6 7,-4 13,-10 16,-17 3,-6 4,-14 4,-25l0 -9z"/>
  <polygon id="2" class="fil3" points="8603,18696 8603,18494 8628,18494 8628,18609 8687,18550 8719,18550 8663,18604 8725,18696 8694,18696 8645,18622 8628,18638 8628,18696 "/>
  <path id="3" class="fil3" d="M8840 18678c-9,8 -18,13 -27,17 -9,3 -18,5 -27,5 -16,0 -28,-4 -37,-12 -9,-8 -13,-18 -13,-30 0,-7 2,-14 5,-20 3,-6 8,-11 13,-14 5,-4 11,-6 18,-8 5,-1 12,-2 22,-4 20,-2 35,-5 44,-9 0,-3 0,-6 0,-6 0,-10 -2,-17 -7,-21 -6,-6 -16,-8 -28,-8 -12,0 -20,2 -26,6 -6,4 -10,11 -12,22l-24 -3c2,-10 6,-19 11,-25 5,-6 12,-11 22,-15 10,-3 21,-5 33,-5 13,0 23,1 31,4 8,3 14,7 17,11 4,4 6,10 8,17 1,4 1,12 1,23l0 33c0,23 1,38 2,44 1,6 3,12 6,18l-26 0c-3,-5 -4,-11 -5,-18zm-2 -55c-9,4 -23,7 -41,9 -10,1 -17,3 -22,5 -4,2 -7,5 -10,8 -2,4 -3,7 -3,12 0,7 2,12 8,16 5,4 12,7 22,7 10,0 18,-2 26,-6 7,-4 13,-10 16,-17 3,-6 4,-14 4,-25l0 -9z"/>
  <path id="4" class="fil3" d="M8901 18696l0 -146 22 0 0 21c5,-7 11,-13 18,-17 8,-4 16,-7 26,-7 11,0 20,2 27,7 7,5 12,11 15,19 12,-17 27,-26 45,-26 15,0 26,4 34,12 8,8 12,20 12,37l0 100 -25 0 0 -92c0,-10 -1,-17 -2,-21 -2,-4 -5,-8 -9,-11 -4,-3 -9,-4 -15,-4 -10,0 -19,3 -26,10 -7,7 -10,18 -10,33l0 85 -25 0 0 -95c0,-11 -2,-19 -6,-25 -4,-6 -11,-8 -20,-8 -7,0 -13,2 -19,6 -6,4 -10,9 -13,16 -3,7 -4,17 -4,31l0 76 -25 0z"/>
  <path id="5" class="fil3" d="M9236 18649l26 3c-4,15 -11,27 -22,35 -11,8 -25,12 -42,12 -21,0 -38,-7 -51,-20 -13,-13 -19,-32 -19,-55 0,-25 6,-44 19,-57 13,-14 29,-20 49,-20 20,0 35,7 48,20 12,13 19,32 19,56 0,1 0,4 0,7l-109 0c1,16 5,28 14,37 8,9 18,13 31,13 9,0 17,-2 23,-7 6,-5 12,-12 15,-23zm-81 -40l82 0c-1,-12 -4,-22 -9,-28 -8,-10 -18,-14 -31,-14 -11,0 -21,4 -29,11 -8,8 -12,18 -13,31z"/>
  <path id="6" class="fil3" d="M9293 18696l0 -146 22 0 0 21c11,-16 26,-24 47,-24 9,0 17,2 24,5 7,3 13,7 17,12 4,5 6,11 8,18 1,5 1,13 1,24l0 90 -25 0 0 -89c0,-10 -1,-18 -3,-23 -2,-5 -5,-9 -10,-12 -5,-3 -11,-4 -17,-4 -11,0 -20,3 -27,10 -8,7 -11,19 -11,38l0 80 -25 0z"/>
  <path id="7" class="fil3" d="M9440 18653l25 -4c1,10 5,17 12,23 6,5 15,8 26,8 11,0 20,-2 25,-7 6,-5 8,-10 8,-16 0,-6 -3,-10 -7,-13 -3,-2 -12,-5 -25,-8 -18,-5 -31,-9 -38,-12 -7,-3 -12,-8 -16,-14 -4,-6 -5,-12 -5,-20 0,-7 2,-13 4,-18 3,-6 7,-10 12,-14 4,-3 9,-5 16,-7 7,-2 14,-3 21,-3 11,0 22,2 30,5 9,3 15,8 19,13 4,6 7,13 9,23l-24 3c-1,-8 -4,-14 -10,-18 -5,-4 -13,-6 -22,-6 -11,0 -19,2 -24,6 -5,4 -7,8 -7,13 0,3 1,6 3,9 2,3 5,5 10,7 3,1 10,3 22,6 18,5 30,9 37,11 7,3 12,7 16,13 4,6 6,13 6,21 0,8 -2,16 -7,23 -5,7 -12,13 -21,17 -9,4 -19,6 -31,6 -19,0 -34,-4 -44,-12 -10,-8 -16,-20 -19,-35z"/>
  <polygon id="8" class="fil3" points="9592,18696 9592,18494 9616,18494 9616,18609 9675,18550 9707,18550 9651,18604 9713,18696 9682,18696 9634,18622 9616,18638 9616,18696 "/>
  <polygon class="fil4 str2" points="1596,1232 4141,1232 4141,2825 1596,2825 "/>
  <g id="_2626733671392">
   <polygon class="fil5 str3" points="1737,1825 2182,1825 2182,1924 1737,1924 "/>
   <polygon class="fil6 str3" points="2182,1825 2627,1825 2627,1924 2182,1924 "/>
   <polygon class="fil5 str3" points="2627,1825 3072,1825 3072,1924 2627,1924 "/>
   <polygon class="fil6 str3" points="3072,1825 3518,1825 3518,1924 3072,1924 "/>
   <polygon class="fil5 str3" points="3518,1825 3963,1825 3963,1924 3518,1924 "/>
   <polygon class="fil6 str3" points="3162,2124 3874,2124 3874,2223 3162,2223 "/>
   <polygon class="fil5 str3" points="2450,2124 3162,2124 3162,2223 2450,2223 "/>
   <polygon class="fil6 str3" points="1738,2124 2450,2124 2450,2223 1738,2223 "/>
  </g>
  <path class="fil7" d="M2340 1449l57 -28 6 0 0 197c0,13 1,21 2,25 1,3 3,6 7,7 3,2 11,3 21,3l0 6 -88 0 0 -6c11,0 18,-1 21,-3 3,-2 5,-4 7,-7 1,-3 2,-11 2,-25l0 -126c0,-17 -1,-28 -2,-33 -1,-4 -2,-6 -4,-8 -2,-2 -5,-3 -8,-3 -4,0 -10,2 -18,5l-3 -5z"/>
  <path id="1" class="fil7" d="M2974 1414l0 157 40 -37c9,-8 13,-13 15,-15 1,-1 1,-3 1,-4 0,-2 -1,-4 -3,-6 -2,-2 -5,-3 -9,-3l0 -6 69 0 0 6c-9,0 -17,2 -23,4 -6,3 -13,7 -21,14l-41 37 40 51c11,14 19,23 23,27 6,5 10,9 15,10 3,1 8,2 15,2l0 6 -77 0 0 -6c4,0 7,-1 9,-2 2,-1 2,-3 2,-5 0,-3 -2,-7 -7,-13l-48 -62 0 52c0,10 1,17 2,20 1,3 3,5 6,7 3,1 8,2 17,2l0 6 -80 0 0 -6c8,0 14,-1 18,-3 2,-1 4,-3 5,-6 2,-4 3,-10 3,-20l0 -144c0,-18 0,-29 -1,-33 -1,-4 -2,-7 -4,-8 -2,-2 -4,-2 -7,-2 -2,0 -6,1 -11,3l-3 -6 47 -19 8 0z"/>
  <path id="2" class="fil7" d="M3151 1531c11,-12 18,-18 20,-20 5,-4 11,-8 17,-10 6,-2 12,-4 18,-4 10,0 18,3 25,9 7,6 12,14 14,25 12,-14 22,-23 30,-27 8,-4 17,-6 25,-6 8,0 16,2 22,6 6,4 12,11 15,21 3,7 4,17 4,31l0 68c0,10 1,17 2,20 1,2 3,5 6,6 3,2 8,3 15,3l0 6 -77 0 0 -6 3 0c7,0 12,-1 16,-4 3,-2 5,-5 6,-9 0,-2 1,-7 1,-17l0 -68c0,-13 -2,-22 -5,-27 -5,-7 -12,-11 -22,-11 -6,0 -12,2 -18,5 -6,3 -14,9 -22,17l0 2 1 7 0 75c0,11 1,17 2,20 1,3 3,5 7,7 3,2 9,3 17,3l0 6 -79 0 0 -6c9,0 15,-1 18,-3 3,-2 5,-5 7,-9 1,-2 1,-8 1,-17l0 -68c0,-13 -2,-22 -6,-28 -5,-7 -12,-11 -21,-11 -6,0 -12,2 -18,5 -9,5 -17,11 -22,17l0 85c0,10 1,17 2,20 1,3 4,5 6,7 3,2 8,2 17,2l0 6 -78 0 0 -6c7,0 12,-1 15,-2 3,-2 5,-4 7,-7 1,-3 2,-10 2,-20l0 -60c0,-17 -1,-28 -2,-34 -1,-4 -2,-6 -4,-8 -2,-1 -4,-2 -7,-2 -3,0 -7,1 -12,3l-3 -6 48 -19 7 0 0 34z"/>
  <path id="3" class="fil7" d="M2488 1544c0,-27 4,-50 12,-69 8,-19 19,-34 32,-43 10,-7 21,-11 32,-11 18,0 34,9 48,27 18,23 27,53 27,92 0,27 -4,50 -12,69 -8,19 -18,33 -30,41 -12,9 -24,13 -35,13 -22,0 -41,-13 -56,-39 -13,-22 -19,-49 -19,-80zm34 4c0,32 4,58 12,79 7,17 16,26 29,26 6,0 13,-3 19,-8 7,-6 12,-15 15,-28 5,-20 8,-48 8,-83 0,-27 -3,-49 -8,-67 -4,-13 -9,-23 -16,-28 -5,-4 -10,-6 -17,-6 -8,0 -15,4 -21,11 -8,10 -14,24 -17,45 -3,20 -4,41 -4,60z"/>
  <path id="4" class="fil7" d="M2664 1544c0,-27 4,-50 12,-69 8,-19 19,-34 32,-43 10,-7 21,-11 32,-11 18,0 34,9 48,27 18,23 27,53 27,92 0,27 -4,50 -12,69 -8,19 -18,33 -30,41 -12,9 -24,13 -35,13 -22,0 -41,-13 -56,-39 -13,-22 -19,-49 -19,-80zm34 4c0,32 4,58 12,79 7,17 16,26 29,26 6,0 13,-3 19,-8 7,-6 12,-15 15,-28 5,-20 8,-48 8,-83 0,-27 -3,-49 -8,-67 -4,-13 -9,-23 -16,-28 -5,-4 -10,-6 -17,-6 -8,0 -15,4 -21,11 -8,10 -14,24 -17,45 -3,20 -4,41 -4,60z"/>
  <path class="fil7" d="M2576 2391l0 7c-15,1 -27,4 -37,9 -10,5 -19,11 -28,21 -9,9 -17,20 -23,31 -6,11 -11,25 -15,41 16,-11 33,-17 50,-17 16,0 30,6 41,19 12,13 18,29 18,50 0,19 -6,37 -18,53 -14,19 -33,29 -56,29 -16,0 -30,-5 -41,-16 -22,-21 -33,-47 -33,-80 0,-21 4,-41 13,-60 8,-19 20,-36 36,-50 16,-15 30,-24 45,-29 14,-5 27,-8 40,-8l10 0zm-107 120c-2,16 -3,28 -3,38 0,11 2,23 6,36 4,13 10,23 18,31 6,5 13,8 21,8 10,0 19,-5 27,-14 8,-9 12,-23 12,-40 0,-20 -4,-37 -12,-51 -8,-14 -19,-22 -33,-22 -4,0 -9,1 -14,3 -5,2 -12,6 -22,12z"/>
  <path id="1" class="fil7" d="M2607 2514c0,-27 4,-50 12,-69 8,-19 19,-34 32,-43 10,-7 21,-11 32,-11 18,0 34,9 48,27 18,23 27,53 27,92 0,27 -4,50 -12,69 -8,19 -18,33 -30,41 -12,9 -24,13 -35,13 -22,0 -41,-13 -56,-39 -13,-22 -19,-49 -19,-80zm34 4c0,32 4,58 12,79 7,17 16,26 29,26 6,0 13,-3 19,-8 7,-6 12,-15 15,-28 5,-20 8,-48 8,-83 0,-27 -3,-49 -8,-67 -4,-13 -9,-23 -16,-28 -5,-4 -10,-6 -17,-6 -8,0 -15,4 -21,11 -8,10 -14,24 -17,45 -3,20 -4,41 -4,60z"/>
  <path id="2" class="fil7" d="M2917 2500c11,-12 18,-18 20,-20 5,-4 11,-8 17,-10 6,-2 12,-4 18,-4 10,0 18,3 25,9 7,6 12,14 14,25 12,-14 22,-23 30,-27 8,-4 17,-6 25,-6 8,0 16,2 22,6 6,4 12,11 15,21 3,7 4,17 4,31l0 68c0,10 1,17 2,20 1,2 3,5 6,6 3,2 8,3 15,3l0 6 -77 0 0 -6 3 0c7,0 12,-1 16,-4 3,-2 5,-5 6,-9 0,-2 1,-7 1,-17l0 -68c0,-13 -2,-22 -5,-27 -5,-7 -12,-11 -22,-11 -6,0 -12,2 -18,5 -6,3 -14,9 -22,17l0 2 1 7 0 75c0,11 1,17 2,20 1,3 3,5 7,7 3,2 9,3 17,3l0 6 -79 0 0 -6c9,0 15,-1 18,-3 3,-2 5,-5 7,-9 1,-2 1,-8 1,-17l0 -68c0,-13 -2,-22 -6,-28 -5,-7 -12,-11 -21,-11 -6,0 -12,2 -18,5 -9,5 -17,11 -22,17l0 85c0,10 1,17 2,20 1,3 4,5 6,7 3,2 8,2 17,2l0 6 -78 0 0 -6c7,0 12,-1 15,-2 3,-2 5,-4 7,-7 1,-3 2,-10 2,-20l0 -60c0,-17 -1,-28 -2,-34 -1,-4 -2,-6 -4,-8 -2,-1 -4,-2 -7,-2 -3,0 -7,1 -12,3l-3 -6 48 -19 7 0 0 34z"/>
  <path id="3" class="fil7" d="M3184 2384c5,0 9,2 12,5 3,3 5,8 5,12 0,5 -2,9 -5,12 -3,3 -8,5 -12,5 -5,0 -9,-2 -12,-5 -3,-3 -5,-8 -5,-12 0,-5 2,-9 5,-12 3,-3 8,-5 13,-5zm14 83l0 127c0,10 1,16 2,20 1,3 4,6 6,7 3,2 8,2 15,2l0 6 -77 0 0 -6c8,0 13,-1 15,-2 3,-1 5,-4 6,-7 2,-3 2,-10 2,-20l0 -61c0,-17 -1,-28 -2,-33 -1,-4 -2,-6 -4,-8 -2,-1 -4,-2 -7,-2 -3,0 -7,1 -12,3l-2 -6 47 -19 8 0z"/>
  <path class="fil7" d="M1198 2963c0,-17 4,-34 13,-51 9,-17 22,-30 38,-39 17,-9 34,-14 52,-14 18,0 35,5 52,14 17,9 29,22 39,38 9,17 14,34 14,52 0,18 -5,35 -14,52 -9,17 -22,29 -39,39 -17,9 -34,14 -52,14 -18,0 -35,-5 -52,-14 -17,-9 -30,-22 -38,-39 -9,-17 -13,-34 -13,-51zm17 0c0,15 4,29 11,43 7,14 18,25 32,32 14,8 28,12 43,12 15,0 29,-4 43,-12 14,-8 24,-18 32,-32 8,-14 12,-28 12,-43 0,-15 -4,-29 -12,-43 -8,-14 -18,-25 -32,-32 -14,-8 -28,-11 -43,-11 -15,0 -30,4 -43,12 -14,8 -25,19 -32,32 -7,14 -11,28 -11,43zm104 -33l5 -17c12,3 21,9 28,18 7,9 10,20 10,33 0,16 -5,29 -16,39 -10,10 -25,15 -44,15 -12,0 -23,-2 -32,-7 -9,-5 -16,-11 -20,-20 -5,-9 -7,-18 -7,-29 0,-12 3,-22 9,-30 6,-8 14,-14 24,-17l4 16c-7,3 -12,7 -16,12 -4,5 -6,12 -6,19 0,11 4,19 11,26 8,7 18,10 32,10 14,0 25,-3 32,-10 7,-6 11,-15 11,-25 0,-8 -2,-16 -7,-22 -5,-6 -11,-10 -20,-12z"/>
  <path id="1" class="fil7" d="M1404 2668l-19 0c14,9 22,23 22,41 0,12 -3,22 -10,32 -6,10 -15,17 -27,23 -12,5 -25,8 -40,8 -15,0 -28,-2 -40,-7 -12,-5 -21,-12 -27,-22 -6,-10 -10,-21 -10,-33 0,-9 2,-17 6,-24 4,-7 9,-12 15,-17l-73 0 0 -25 202 0 0 23zm-73 78c19,0 33,-4 42,-12 9,-8 14,-17 14,-28 0,-11 -4,-20 -13,-28 -9,-8 -22,-11 -41,-11 -20,0 -35,4 -44,12 -9,8 -14,17 -14,29 0,11 4,20 13,28 9,7 23,11 42,11z"/>
  <polygon id="2" class="fil7" points="1343,2616 1318,2616 1318,2539 1343,2539 "/>
  <path id="3" class="fil7" d="M1404 2512l-146 0 0 -22 21 0c-7,-5 -13,-11 -17,-18 -4,-8 -7,-16 -7,-26 0,-11 2,-20 7,-27 5,-7 11,-12 19,-15 -17,-12 -26,-27 -26,-45 0,-15 4,-26 12,-34 8,-8 20,-12 37,-12l100 0 0 25 -92 0c-10,0 -17,1 -21,2 -4,2 -8,5 -11,9 -3,4 -4,9 -4,15 0,10 3,19 10,26 7,7 18,10 33,10l85 0 0 25 -95 0c-11,0 -19,2 -25,6 -6,4 -8,11 -8,20 0,7 2,13 6,19 4,6 9,10 16,13 7,3 17,4 31,4l76 0 0 25z"/>
  <path id="4" class="fil7" d="M1385 2181c8,9 13,18 17,27 3,9 5,18 5,27 0,16 -4,28 -12,37 -8,9 -18,13 -30,13 -7,0 -14,-2 -20,-5 -6,-3 -11,-8 -14,-13 -4,-5 -6,-11 -8,-18 -1,-5 -2,-12 -4,-22 -2,-20 -5,-35 -9,-44 -3,0 -6,0 -6,0 -10,0 -17,2 -21,7 -6,6 -8,16 -8,28 0,12 2,20 6,26 4,6 11,10 22,12l-3 24c-10,-2 -19,-6 -25,-11 -6,-5 -11,-12 -15,-22 -3,-10 -5,-21 -5,-33 0,-13 1,-23 4,-31 3,-8 7,-14 11,-17 4,-4 10,-6 17,-8 4,-1 12,-1 23,-1l33 0c23,0 38,-1 44,-2 6,-1 12,-3 18,-6l0 26c-5,3 -11,4 -18,5zm-55 2c4,9 7,23 9,41 1,10 3,17 5,22 2,4 5,7 8,10 4,2 7,3 12,3 7,0 12,-2 16,-8 4,-5 7,-12 7,-22 0,-10 -2,-18 -6,-26 -4,-7 -10,-13 -17,-16 -6,-3 -14,-4 -25,-4l-9 0z"/>
  <path id="5" class="fil7" d="M1460 2120l-203 0 0 -23 19 0c-7,-5 -13,-11 -17,-18 -4,-7 -6,-15 -6,-24 0,-13 3,-24 10,-33 6,-10 15,-17 27,-22 12,-5 25,-7 38,-7 15,0 28,3 40,8 12,5 21,13 28,23 6,10 10,21 10,32 0,8 -2,16 -5,22 -3,7 -8,12 -13,16l71 0 0 25zm-129 -23c19,0 33,-4 42,-11 9,-8 13,-17 13,-28 0,-11 -5,-20 -14,-28 -9,-8 -24,-12 -43,-12 -19,0 -33,4 -42,11 -9,8 -14,17 -14,27 0,11 5,20 15,28 10,8 24,12 43,12z"/>
  <path id="6" class="fil7" d="M1360 1973l-4 -25c10,-1 17,-5 23,-12 5,-6 8,-15 8,-26 0,-11 -2,-20 -7,-25 -5,-6 -10,-8 -16,-8 -6,0 -10,3 -13,7 -2,3 -5,12 -8,25 -5,18 -9,31 -12,38 -3,7 -8,12 -14,16 -6,4 -12,5 -20,5 -7,0 -13,-2 -18,-4 -6,-3 -10,-7 -14,-12 -3,-4 -5,-9 -7,-16 -2,-7 -3,-14 -3,-21 0,-11 2,-22 5,-30 3,-9 8,-15 13,-19 6,-4 13,-7 23,-9l3 24c-8,1 -14,4 -18,10 -4,5 -6,13 -6,22 0,11 2,19 6,24 4,5 8,7 13,7 3,0 6,-1 9,-3 3,-2 5,-5 7,-10 1,-3 3,-10 6,-22 5,-18 9,-30 11,-37 3,-7 7,-12 13,-16 6,-4 13,-6 21,-6 8,0 16,2 23,7 7,5 13,12 17,21 4,9 6,19 6,31 0,19 -4,34 -12,44 -8,10 -20,16 -35,19z"/>
  <polygon id="7" class="fil7" points="1404,1815 1376,1815 1376,1786 1404,1786 "/>
  <path id="8" class="fil7" d="M1350 1648l3 -24c17,3 30,9 39,20 9,11 14,24 14,40 0,20 -7,36 -20,48 -13,12 -32,18 -56,18 -16,0 -30,-3 -41,-8 -12,-5 -21,-13 -27,-24 -6,-11 -9,-22 -9,-35 0,-16 4,-29 12,-39 8,-10 19,-17 34,-19l4 24c-10,2 -17,6 -22,12 -5,6 -7,13 -7,21 0,13 4,23 13,31 9,8 23,12 42,12 20,0 34,-4 43,-11 9,-8 13,-17 13,-29 0,-10 -3,-18 -9,-24 -6,-7 -15,-11 -27,-12z"/>
  <path id="9" class="fil7" d="M1331 1612c-27,0 -47,-8 -60,-23 -11,-13 -16,-28 -16,-46 0,-20 7,-37 20,-49 13,-13 31,-19 55,-19 19,0 34,3 44,8 11,6 19,14 25,25 6,11 9,23 9,35 0,21 -7,37 -20,50 -13,13 -32,19 -57,19zm0 -25c19,0 33,-4 42,-12 9,-8 14,-19 14,-31 0,-12 -5,-23 -14,-31 -9,-8 -24,-12 -43,-12 -18,0 -32,4 -41,12 -9,8 -14,18 -14,31 0,12 5,23 14,31 9,8 23,12 42,12z"/>
  <path id="10" class="fil7" d="M1404 1445l-146 0 0 -22 21 0c-7,-5 -13,-11 -17,-18 -4,-8 -7,-16 -7,-26 0,-11 2,-20 7,-27 5,-7 11,-12 19,-15 -17,-12 -26,-27 -26,-45 0,-15 4,-26 12,-34 8,-8 20,-12 37,-12l100 0 0 25 -92 0c-10,0 -17,1 -21,2 -4,2 -8,5 -11,9 -3,4 -4,9 -4,15 0,10 3,19 10,26 7,7 18,10 33,10l85 0 0 25 -95 0c-11,0 -19,2 -25,6 -6,4 -8,11 -8,20 0,7 2,13 6,19 4,6 9,10 16,13 7,3 17,4 31,4l76 0 0 25z"/>
  <rect class="fil8 str4" x="1000" y="1000" width="27700" height="18856"/>
  <g id="_2626733665056">
   <polygon class="fil4 str2" points="4272,1239 5088,1239 5088,2832 4272,2832 "/>
   <path class="fil9" d="M4620 1676c-1,3 -2,6 -2,9 0,3 -1,5 -1,7 0,6 2,10 5,12 3,2 10,3 18,3l4 0 -5 23 -78 0 5 -23 3 0c7,0 13,-2 16,-5 4,-3 6,-8 8,-16l38 -154c1,-3 1,-6 2,-8 0,-3 1,-6 1,-9 0,-5 -2,-9 -6,-11 -4,-2 -11,-3 -20,-3l-3 0 5 -23 72 0 62 184 31 -129c1,-4 2,-8 2,-10 0,-3 1,-5 1,-6 0,-6 -2,-10 -5,-12 -4,-2 -10,-3 -18,-3l-4 0 5 -23 79 0 -6 23 -3 0c-7,0 -13,2 -16,5 -4,3 -6,8 -8,16l-51 208 -22 0 -72 -209 -37 155z"/>
   <line class="fil8 str5" x1="4681" y1="2699" x2="4681" y2= "1930" />
   <line class="fil8 str5" x1="4399" y1="2423" x2="4962" y2= "2423" />
   <line class="fil8 str5" x1="4536" y1="2563" x2="4830" y2= "2276" />
   <line class="fil8 str5" x1="4533" y1="2276" x2="4831" y2= "2565" />
   <line class="fil8 str5" x1="4681" y1="1933" x2="4585" y2= "2051" />
   <line class="fil8 str5" x1="4681" y1="1933" x2="4769" y2= "2051" />
  </g>
  <g id="_2626733662496">
   <polygon class="fil4 str2" points="8158,1239 8158,1713 5849,1713 5849,1239 "/>
   <path class="fil9" d="M6926 1578l0 -202 40 0 48 143c4,13 8,23 10,30 2,-7 6,-18 11,-32l49 -141 36 0 0 202 -26 0 0 -169 -59 169 -24 0 -58 -172 0 172 -26 0z"/>
   <path id="1" class="fil9" d="M7259 1531l26 3c-4,15 -11,27 -22,35 -11,8 -25,12 -42,12 -21,0 -38,-7 -51,-20 -13,-13 -19,-32 -19,-55 0,-25 6,-44 19,-57 13,-14 29,-20 49,-20 20,0 35,7 48,20 12,13 19,32 19,56 0,1 0,4 0,7l-109 0c1,16 5,28 14,37 8,9 18,13 31,13 9,0 17,-2 23,-7 6,-5 12,-12 15,-23zm-81 -40l82 0c-1,-12 -4,-22 -9,-28 -8,-10 -18,-14 -31,-14 -11,0 -21,4 -29,11 -8,8 -12,18 -13,31z"/>
   <path id="2" class="fil9" d="M7315 1578l0 -146 22 0 0 22c6,-10 11,-17 16,-21 5,-3 10,-5 16,-5 8,0 17,3 26,8l-9 23c-6,-3 -12,-5 -18,-5 -5,0 -10,2 -15,5 -4,3 -7,8 -9,14 -3,9 -4,18 -4,29l0 77 -25 0z"/>
   <path id="3" class="fil9" d="M7505 1524l24 3c-3,17 -9,30 -20,39 -11,9 -24,14 -40,14 -20,0 -36,-7 -48,-20 -12,-13 -18,-32 -18,-56 0,-16 3,-30 8,-41 5,-12 13,-21 24,-27 11,-6 22,-9 35,-9 16,0 29,4 39,12 10,8 17,19 19,34l-24 4c-2,-10 -6,-17 -12,-22 -6,-5 -13,-7 -21,-7 -13,0 -23,4 -31,13 -8,9 -12,23 -12,42 0,20 4,34 11,43 8,9 17,13 29,13 10,0 18,-3 24,-9 7,-6 11,-15 12,-27z"/>
   <path id="4" class="fil9" d="M7646 1560c-9,8 -18,13 -27,17 -9,3 -18,5 -27,5 -16,0 -28,-4 -37,-12 -9,-8 -13,-18 -13,-30 0,-7 2,-14 5,-20 3,-6 8,-11 13,-14 5,-4 11,-6 18,-8 5,-1 12,-2 22,-4 20,-2 35,-5 44,-9 0,-3 0,-6 0,-6 0,-10 -2,-17 -7,-21 -6,-6 -16,-8 -28,-8 -12,0 -20,2 -26,6 -6,4 -10,11 -12,22l-24 -3c2,-10 6,-19 11,-25 5,-6 12,-11 22,-15 10,-3 21,-5 33,-5 13,0 23,1 31,4 8,3 14,7 17,11 4,4 6,10 8,17 1,4 1,12 1,23l0 33c0,23 1,38 2,44 1,6 3,12 6,18l-26 0c-3,-5 -4,-11 -5,-18zm-2 -55c-9,4 -23,7 -41,9 -10,1 -17,3 -22,5 -4,2 -7,5 -10,8 -2,4 -3,7 -3,12 0,7 2,12 8,16 5,4 12,7 22,7 10,0 18,-2 26,-6 7,-4 13,-10 16,-17 3,-6 4,-14 4,-25l0 -9z"/>
   <path id="5" class="fil9" d="M7762 1556l3 22c-7,1 -13,2 -19,2 -9,0 -16,-1 -21,-4 -5,-3 -8,-7 -10,-11 -2,-5 -3,-14 -3,-29l0 -84 -18 0 0 -19 18 0 0 -36 25 -15 0 51 25 0 0 19 -25 0 0 86c0,7 0,12 1,14 1,2 2,4 4,5 2,1 5,2 8,2 3,0 6,0 11,-1z"/>
   <path id="6" class="fil9" d="M7777 1505c0,-27 8,-47 23,-60 13,-11 28,-16 46,-16 20,0 37,7 49,20 13,13 19,31 19,55 0,19 -3,34 -8,44 -6,11 -14,19 -25,25 -11,6 -23,9 -35,9 -21,0 -37,-7 -50,-20 -13,-13 -19,-32 -19,-57zm25 0c0,19 4,33 12,42 8,9 19,14 31,14 12,0 23,-5 31,-14 8,-9 12,-24 12,-43 0,-18 -4,-32 -12,-41 -8,-9 -18,-14 -31,-14 -12,0 -23,5 -31,14 -8,9 -12,23 -12,42z"/>
   <path id="7" class="fil9" d="M7943 1578l0 -146 22 0 0 22c6,-10 11,-17 16,-21 5,-3 10,-5 16,-5 8,0 17,3 26,8l-9 23c-6,-3 -12,-5 -18,-5 -5,0 -10,2 -15,5 -4,3 -7,8 -9,14 -3,9 -4,18 -4,29l0 77 -25 0z"/>
   <circle class="fil10 str6" cx="6067" cy="1473" r="119"/>
   <rect class="fil10 str6" x="6525" y="1364" width="227" height="227"/>
   <line class="fil8 str7" x1="6241" y1="1472" x2="6461" y2= "1472" />
   <line class="fil8 str7" x1="6459" y1="1472" x2="6395" y2= "1538" />
   <line class="fil8 str7" x1="6459" y1="1471" x2="6395" y2= "1410" />
  </g>
 </g>
</svg>
