<svg viewBox="0 0 1429 930"><path class="prefix__map-part" data-part="7" d="M701.384 670.002l1.027-3.081-2.857-.089-1.072-1.518-.625-1.875-1.339.715-.447-1.697-2.451.001-.406-3.572H690v3.214l-3.482-.089-.089-5.536-5.09.357-.803-2.768-.447-.178-.268 6.25 1.25 1.875.893 4.107-4.464 2.768.804 1.785-4.108 1.34 2.054 2.321 1.786-1.161 2.321.804 1.607-5.714.268 1.607 2.054 1.071-.357 2.5-2.59 2.59 1.384 2.187 9.063.58 1.696 1.875.893 3.393 1.786.09.446-7.143 5.536-.625-.536-1.25-.223-5.134z"/><path class="prefix__map-part" data-part="1" d="M575.327 838.89l1.538-3.076.77-2.051 2.82.256-.257-4.359 2.051-2.563 2.564.512v-2.05l4.615-.257h1.538v-3.077l-3.076-5.127 1.025-2.564 7.435-5.897 3.333-.513 2.308-2.307 3.59-.77v-2.05l-1.026-.513.513-3.333 6.153-.77 3.59-4.358h2.563l2.051-1.538 2.82-.257 1.026-.769 3.076.77 1.026 1.538 2.82 2.307 1.539 1.026h2.05l.77 3.845-.77 2.308 1.539 6.666-2.308 1.795-.512 2.307 1.794 3.333-1.794 2.564 1.282 3.846 1.282 1.282 4.614.512.77 2.308.256 1.282 9.743 10.255v2.308l2.05 1.281 1.539.77.77-.77-1.026-3.845 2.563-.77v4.36l.77 1.281 3.845.256.77-.769 4.102-.256 2.05 1.282 1.026 3.076v1.539l1.539.769 1.538-1.282 4.102-.256 4.359 3.845 1.025-1.282 4.359.513v2.564l.512 1.282 5.385.256 1.281-1.025 2.82.513 1.283 1.025 3.845-.77 7.948-.255h2.051l-.769 2.563-3.59 3.846h-2.307l-3.333 2.82-.769 2.82h-2.564l-.769 5.641.257 2.308 1.282 3.333 1.538 1.281-.513 2.82-.77 2.052 1.283 2.05-2.564 1.796-2.051-.77-2.051 1.795-3.846.256-1.795-1.281-1.538.769-4.102-1.795-1.795 1.026-3.846-.513-1.538 1.025-2.05-.512h-2.308l-3.333-2.308-4.103-.77-1.025 1.283-1.795.256-4.102-1.794-2.82-2.82v-1.795l-4.102-.513-2.564-4.359v-2.564l-3.59-5.127.257-5.384-14.358-11.025-13.075-4.102-2.564-.513-.77.77-3.076-1.283h-1.282l-.769 2.564-2.051 1.026-1.795.256-2.564-.769-1.538.256-3.59 1.282h-1.794l-2.564 1.282-4.102-2.05-2.307-2.821h-8.205l-1.025-3.333 1.282-2.564z"/><path class="prefix__map-part" data-part="2" d="M186.812 684.287l2.813-4.562 2.25.25L194 678.35l2 1.25 1-1.125.875 3.25 1.75-.25.875-1.875 3.375-.5-1.25-2.125 3.5-1.125 3.25 4.125 1.75-.125 1.75-3.5 4.75-.25-.125-1.875 6.5-3.125 1.625-2.75 5.25 8.25 6-4.25.5 1.5 3.75.125 3.25-2.875 2.625.875 2.125-3 7.5-3.5 1.75 1.875 5.875-4 3.5 1.25H272l1.75-2.75 2.625 1.125.25 1.375 3.75-1.125L280 661.6l2.625-.125 1.75 2.625 5 .625 8.25-6.875.25-2.25 3.375-2.125 9.75.875 3.625-2.75h6.75l1.5 3.875 1.75.25 2.5-2 1.375 3.375 6.375 3.375 7.375 1.125 5.25-2.625-1.625-2.125.875-1.875-10.5-10.375-.125-3.25-7.5-7.875-.25-8-8.875-2-3.75-3.875-6.75 4.25-3.625-3.875-4.75-.25-.125-1.75-1.875-.75L293 619.6l-.25 3.625-2.75 2.125-6.5-2.125-2.125.75L279 616.6l5-3.625-2.625-.375-14.875-10.375-2.125.625-.875-8.625-7.875-2.75-1.875-4-1.25 1-5-5.375v-2.75l-3.375-5.125-9.875-1-.125-2.5h-2.875l-1.875-3.625-9-4.75-.25-2.5-3.5-.125-1.75-1.875-7-.375L202 549.1l-7.5-6.125-8.875-4.75-.125-3.25-4.5-6.75-2.125.875-1-3.75-6.875-4.625-1.75-4.75.625-2.375-2.5-.75 5.5-3.5-2.5-1.875L173 506.6l-1.375-2.125 2.25-.5-2.75-3.375-8.125-8-.375-5.5-5.875-2.125-2.125.125.25 1.5-1.375 1.75-2.875-.625-.75 2.375.5 1.625-.875 2-4.875-.25-2.375-3.125-2.625-.125-1 2.875-3.5.75-2.875-2.125v2.5l-.625 1.375-1.375 3.5 2.75 3.625-2 5-3.75-.25-2.25 4.5-1.125-.875-.625 2.625-6.375.5-.5 1.25-1.375-.75-4.75 4.875-5-2.25-7.25 2-1.375 2.5L98 523.1l.125 4.875-3.5 5-1.125-.25-4.25 1.5-.75 2.875 2.625 2.75-3.5 2.5.375 5.625-1.75-.375-2.875.875-11.5-5.5-1.375-3.125-3.875-.375L66 543.6l-2 .625.625 2.625L61 551.975l1.25 1.75-1.5 2.625 5.625-.875 2 2.25-1.25 2.125v2.875l1.625 3.5-1.75.5.5 5.375-1.5 1.375-3.75-.875.125 3.625-1.125 1.375-2.875.125-2.75 1.875 1.375.875.25 3-1.375.625 4.25 3.375-2.5 1L58 590.85l-2.25-.625-1.25 1.5-1.375-.625.125 2.75-2.75.375.875 1.5-2.625 3.75-2.875-.125-.125 4.125 3.75 5-3 8.75 1.75 2.625 2.25-3.625 3.375.25.875 1.75 1.875.875 1.25-1.625 1.875 1.125-.5 1.875 1 3-2.125 4.5 2.25 1 3.25-2 6.875 4.25-1.5 2.25 3.125 9.625 3.375.125 1.125.875.125 1.625 1.375.125L80 648.725l2.375-1.5 3.375.875 2.5 2.125.375-1.125 1.75.25.125 4.25-1.125.875 4.75 2 2.375 2s1.875-2.25 1.375-2.25 1.5.875 1.5.875l5.375.25 2.125-1.875 1.5.625-.625 1.25 3.875 3.375 1.75 5.5.75-1.5 2.5-1.125 1.625 1.5 1-1.25 7.75-2.25 1.75 4-.875 4.875 1.75.875-1 3.75h2.125l.125 2.25 1.625 2.75 2.25 3.5.75-1.625 2.75.75V681.1l6.25 2.625 4.25-3.375 6.25 2.125 2.875-.75 2.375 1.125 6 .625 3.375-2-.125 2.375 2.875.75v-1.5l6-1.5.5 1.625 3.875-.75.75 2.75 3.312-.938z"/><path class="prefix__map-part" data-part="3" d="M415.214 752.716l-4.857 2.42-4.464-2.143.536-3.929-5.715-5-3.928-.893.535-1.428-1.25-1.964-3.75-1.965.179 1.965-6.964 1.607-6.072.893 2.322 9.642-2.5 2.143 1.25 2.857-4.286 1.429 1.429 1.607-1.429 1.607-2.857-3.75 1.428-2.143-3.214-3.928-7.857-1.072-2.321.536-5.893-3.036-.715 3.036-3.035.536.714 1.607-9.821 7.143-2.679-1.429-2.857 1.607-3.393-1.428.893-3.929-.536-1.785-8.357 4.41-7.196-6.393-5.84-.125-.571 1.75-7.322-2.142.179 1.785-4.107-.893-2.5 3.75.536 2.322-3.081.214c-.598.018-2.348-.732-2.348-.732l-.75-5.5 1.375-3.75h1.75l-.125-1.25-2.5-2.375 1.125-1.875-2.5-2.875 1.25-5.125 3.625.5.75-1.875-4.25-7.75-7.375-3.625-1.5 1.5-.75-1.25-1.625.125-.375-2-3.5-.5-2 2.125-.375-1.125-4.875-1.625-.75-1.625-3-1-.875-1-9.625 2 .125-3.625-2.375-1.5-1.5 1.625.125-2.75-4.75-1.125L245 711.6l.125 2.75-1.75 1.375-4.875.125-1.75-1.125 1-1.125-1.375-2.25-4.125-1.375-2-4.875h-1.75l-2.375 2.875-4.625.25v-2.375l-2.5-4.875-1.375 2.5-1.25-1-3.125-.125.625-2.375-2.625-2.625-2.75-.375-1.375 1.625-5.875-3.875.625-.875-2.5-.25-.875-1.875-7.375-3.25-1.25-2.625-1.5 1.125-1.437-2.813 2.687-4.437 2.25.25L194 678.35l2 1.25 1-1.125.875 3.25 1.75-.25.875-1.875 3.375-.5-1.25-2.125 3.5-1.125 3.25 4.125 1.75-.125 1.75-3.5 4.75-.25-.125-1.875 6.5-3.125 1.625-2.75 5.25 8.25 6-4.25.5 1.5 3.75.125 3.25-2.875 2.625.875 2.125-3 7.5-3.5 1.75 1.875 5.875-4 3.5 1.25H272l1.75-2.75 2.625 1.125.25 1.375 3.75-1.125L280 661.6l2.625-.125 1.75 2.625 5 .625 8.25-6.875.25-2.25 3.375-2.125 9.75.875 3.625-2.75h6.75l1.5 3.875 1.75.25 2.5-2 1.375 3.375 6.375 3.375 7.375 1.125 5.25-2.625-1.625-2.125.813-2 3.312.25-.125 3.75 8.125 5 7.25-.25.625 2.125L369 667.6l-2.375 1.75 3.625 2.5 3.625-.125 2.875 3.375.5 3.875-3.125 5.5.875 4.625 2.25 1.75-4.5 3.375-.875 2.75L374 698.1l-.25 1.5 2.125 1.25-2.625 2.5 1.625 1.125-.375 4.5 5.875 2.75v2.125l2.875 3.625 1.75-2v-2.25l2.5.5.625 1.75L391 713.1l1.625.625 7.625-2.625 14.625 6.75.339 34.866z"/><path class="prefix__map-part" data-part="4" d="M463.293 850.63l4.913-10.72-1.642-9.723-3.157-9.217-1.767-3.914-.505-9.344-4.42.631-4.167-2.904v-1.768l-3.283-1.894-2.272 1.641-3.283-1.894-.379.884-8.334-3.535 1.136-3.788 8.46-2.904 1.011.883.631-1.767 1.768 1.894.884-1.642 4.293.632.252-1.895 3.031.758 1.01-2.02 2.778 1.136 3.788-.884 1.389-1.389 1.136.758 3.662-4.041 2.399-.505-4.546-3.156-.505-2.526 1.642-1.515-1.137-1.894 2.021-2.652-1.642-4.672 2.021-3.283.631-2.904 2.967-.505.695-5.682-2.778.379.757-2.399-1.136-.505 1.389-2.652-2.02-2.399-2.273-5.556 5.045-8.492-2.863 1.45-6.25-3.929-3.036.357.357 1.607-7.143 3.393-2.5-1.607-3.392 1.429-1.429-1.25-8.393 2.321.357 2.322-6.607 4.464-1.786-1.429-4.285.715.357 2.321-3.929 5.179-2.857-.715-3.036 2.143-.178 1.25-2.054-.982-4.732 2.411-4.464-2.143.536-3.929-5.715-5-3.928-.893.535-1.428-1.25-1.964-3.75-1.965.179 1.965-6.964 1.607-6.072.893 2.322 9.642-2.5 2.143 1.25 2.857-4.286 1.429 1.429 1.607-1.429 1.607-2.857-3.75 1.428-2.143-3.214-3.928-7.857-1.072-2.321.536-5.893-3.036-.715 3.036-3.035.536.714 1.607-9.821 7.143-2.679-1.429-2.857 1.607-3.393-1.428.893-3.929-.536-1.785-8.357 4.41-7.196-6.393-5.84-.125-.571 1.75-7.322-2.142.179 1.785-4.107-.893-2.5 3.75.536 2.322-3.152.598-1.598 1.652-.215 2.357 4.607 2.536 1.858 7.428-1.429 2.143.357 3.572 2.143 1.785v2.857l-2.786 1.536-.125 7.339 6.054 4.054 4.714 5.643-2.678 4.286.178 1.607 3.572 2.143 1.964-.893 1.607 3.571 3.393-.178v2.321l1.786 2.679 4.285.357 1.965 5.178-.358 2.5 4.822 2.679 1.25 8.036 1.786 4.107 3.214.535 2.321-1.25 1.786.893.893 2.679 5 2.5 1.25 2.678 1.607.715 1.607-.357 3.214 2.857 7.143-.715 3.75-1.25 2.5 1.429 3.857-3.214 1.25.178 4.822 4.286.714 2.143-2.443 2.328 1.443 3.386-1.964 3.036.178 1.786 3.572.357 6.25-3.215 7.857 1.608 3.214 4.285 2.5-1.25.536 3.215 5.536.535 1.785 1.429 1.25-.357.893-3.036 2.857-.893 1.25 1.429 3.393-4.822 2.679.536.714 2.143 1.072-1.429 2.5.536.535 1.964 6.786 2.322 6.429.535 6.428-5.535 1.429 1.071 2.678-2.5-.357-1.964 1.964-3.214 2.322.535 5.357-9.035 3.929 1.25v-1.608l2.864 1.209z"/><path class="prefix__map-part" data-part="5" d="M1093.52 104.585l.1 3.89-7 1.75-.62 6-8 7.5-1.63-1.375-15 5.875-1 7-3.12 4.125 6.75 12.125-.88 3.25h2.25l-.25 2.625 1.63.25 1.12 5.125-2.12 1.125 2.5 1.75.5 3.625-2.13 3.125 4.63 1.5 2.87 5.125.38 3.375-2.88 2.25.13 3.25-5.13-.5.25 1.375.75 1.5-3.37-.25-3 2-3.25-3.25h-3.63l-1.87 2.375-9 1.125-2.88 2.625.5 1.625-3 2.125v2.25l-4 2.875-.87 10.375-5.25 5 2.75 3.375-1.25 2.625 4.62 4.75 2.88-.875 3.12 6.125-.5 2 2.13 1.625 2.75-.5.5 4.375 2-.25.37 2.125 2 1.375v1.75l1.75-.25-.5 3 3.13 2.875-.13 2.687-.87.813-.13 5.375-3.62-.75-.88 1.25-3.87.375-2.88 3.125-1.12-.625-2.88.625-1.25-4-4.5-2.375-.12-4-2-3-6.38-.25-.87-1-3.25 1.25-1.38 3.625-4.37.25-2.38 5.375-2.25 1-3.62.25-.63 1.25-9.12 1.375-1-3.5.875-2.125-1.75-.875-3.875 1.75-3.75-3.875h-2.875l1.75-2.875-1.5-2.375L980 251.1l-4.625.375-1-4.625-3.75-1.375-2.25.625-6.375.375-2.75-3.75-1.625-.25-1.75-2.375-3.375.875-3.5-1.625-.875-2.75-2.75-.625-.75-1.375-3.625 1.75-.75 1.25-2.875 1-1.052 5.192-4.073 2.558.25 1.5-1.75 1.75 1.75 1.375-1.625 2.375.625 1.625-4.875 11.375-2.125.125.25 3.25-2.375 2.625-2.5-1.25-.875 1.125-4.125-1.375L911 272.6l-3.5 2.875-1.625 3.75h-1.5l-5.5 3-.25 2 3.5 2.125-.75 1.5 1.75 7.25 3.25.625-1.75 3.625-1 4-4.875.625.25 4.75-1.875 2.375-2.75-2.125-6.25 7.25-3.875 1.25.625 5.25-.625 3.875h-2l-1.375 2.5 2.5 1.125h3.875l-1.375 2.125 1.875 1.125.625 4.5-1.625 3.5.875 2.875-18.375 10.375-1.375 4.125H865v2.125l-4.875 1.625.75 1.25-1.875 2.125-.125 2.875-1.625.125.625 8 2.125 1 .875 3-1.5 2.375 2.625 2.875-1.75 4.5.75 1.375-2.875 3.75 1.125 3.125-2.875 6.875-2 .625-.875 3.75-2.625 1.875-2.5-.25-2.375-2.5-2.375 1-.875-1.75-1.625.875-3.75-.875-4.25-2.375-1.125.875-3.5-4.5-.25-2.875-2.25-3-2.125-.25-40-14 10-18.125-29-13.5-6-.875 6.25-5.125.875-4.25-.625-1 1-2.625 3.75-.5 1.25-8.5-1.875-.875 2.25-6.375-1.75-2.75 1.25-2.625-.25-2.75-1.625-2.875 3.5-4.375.375-1.875-4.25-5.25-.5-9.5 3.375-4.375-.625-3 4.5-4.625-2-3.375 1.625-1.25-.875-3.125-5.125-3.375.25-2.625-4.125-2.25 1.25-12.5-2.625-3.375h-2.25l2.625-3.375-.25-3 1.5-1.125 3.125.125-.875-5.625-1.5-1.375-.5-1.875 1.75-1.375-1-2.5 3.375-1.25 3.375.375 1.375-9.75 1.375-1.25-2.5-6.5 3-7.875-.25-3.25 3.375-3 1.875.25 1.5-4.25 1.125-.125 2-3.375 1.125-.25 2 2.5 1.25-.125 1-1.25 3 2.375 2.875-.875.625 1 3.875-.25L806 186.6l-1-1.625 2.375-3-1.875-3.5V175.6l-1.25-.125-.625 2.5L802 179.1l-2 .125-6.125-3.75-4 2.25-.5-1.25-1.5.625-3.875-4 .875-2-2.125-3.625-2.625-.25-.125-1.375 2.875-3.25L775 149.975l-3.625-2-1.375 2-3.25-2.75-.875 1.75-2.375-.125-.375-2.25-3.625-3.25-.5-2.875-2.25-1.375.625-2.25 1.625.375 1.75-3.5-1.75-.875 2.5-4.25 2.125-.125.125-4.375 6-6.375-1.75-4-3.5-2.75 2.625-1.875 5.25.25 2.875-1.25 1.75 1.25 4-1.75.875 1.875 3.75-3.625-.875-2.25 2.875-.375 1.5-2.125 1.125.75-.625 2.125 3.875 1.625 1.625-6.375 2.25.375.875-1.625 5.5 1.25 1.875 1.625 6-2.75 7.625-7.5 4.75 1.375 4.25-1.375 4.375 5.625 2-1.125 4.625.875 5.625-2-.625-1.375 5.375-6.375 2.5-.375 1.125-1.75-2.625-2 .125-2.625-1-1.125 2-2.5-.125-1.75 2.75-4.625 2.75.75 1.125-3-.5-2.75 2 .75 1.25-2 3.375.875 1.875-2.125 1 1.75 5 2.25.5 2.125 5.125.25v-1.875l8.75.75 2.375 2-.75 1.75 5.875.75 1.5-1 1.375 1.25-.875 4.5L905 80.1l6.75-7 5.75 1.25 3.5 4.25 11-3.5 7.75 6.25L947 78.6l3.5-6.5 7-1 1.5-3.75-3.5-4.75 5.5-7.75 8.5-10.5 6.75 3-2.5 8.5 2.5 2.5 5.75 1 4.5 6 .25 5L992 69.1l1-3.5 15.75-.5 8.5 11.75 8.75-.75 6 1.75 2-2.25v-2.25l8.5-6.5 8.25-1.5 3.5 2.25-4.75 10.5 3.5 6v5.5l9.5 4.25.25 4.25 14 .5 1.5 3.75 5.75 1.5 3.5-2.25 6.02 2.985zM802.692 227.894l.758-2.778 2.778.127v-2.147l1.389-2.147-.379-2.904 3.283-.379 1.389-.883 1.01 1.262 2.021-.505 3.156 2.399-1.136 7.324-10.859 3.409-3.41-2.778z"/><path class="prefix__map-part" data-part="6" d="M474.267 760.866l5.429-.632 1.642-2.651 1.894-.253 5.303-2.778.783-5.278 8.182-3.055.429-2.273 1.49-5.48 3.814.454 6.202-4.606.884 1.263 4-1.657 1.389 1.263 2.5-3.384 1.389 1.136 3.536-1.894 4.76.467-1.174 6.932 1.136 1.137-1.464 5.126-2.021.632-.379 1.767 9.041 4.243-1.515 5.177 1.086 5.581-1.515-.126.631 4.167-2.02.126-.505 1.642 1.389 4.192-.127 1.768 3.031 2.399 3.662.757.757.758 1.389-1.389 2.273-.379.884 1.136.126 1.389 1.894.379 2.399-1.894 4.167.632 1.389 2.02 3.662 1.01 3.03 5.935 2.273-.379 1.642 1.01 1.262-1.768h3.031l3.283 3.157-.884 4.167h1.894l.126 3.157-1.01 2.525 1.642 2.147 2.778-2.273.252-1.389 2.399-3.788 3.41-.127 1.262 1.894 8.839.253 2.147-2.02-.505 2.273 1.262 3.788-.757 1.262 1.01 1.389-1.01.758.631 5.556h-3.03l.252 2.525-2.399 2.399.947 1.389-1.831 2.399.379 2.652 2.778 2.778-.505 3.409-5.935-.505 1.01 3.03-2.778-1.262-2.651 2.904-.632 4.041h-1.641l-2.462 4.608-3.347-1.452-5.682.884-2.778-.631-2.651-2.652h-1.137l-1.389 1.137-1.262-1.389-5.304 2.02-4.419-1.263-1.642 1.515-3.156-1.515-.632-1.389-4.166-1.262-2.4 1.515-3.788.631-5.556-4.672-8.313 1.768.505 1.894-2.904 3.283-1.136-.631-.884 1.894-2.399.126-4.041 2.147-1.01-.758-1.01 1.136-5.703.127-.631-1.768-6.051-.758-1.389 1.642-.379 2.904-3.283 1.136-1.136 2.273-2.662.632-2.525-2.4-.758.253-1.768-1.263-2.02 1.01-1.01 4.041h-3.662l-2.778 2.273-3.157-1.642-2.525.695 4.546-10.165-1.642-9.722-3.157-9.218-1.767-3.914-.505-9.344-4.42.631-4.167-2.904v-1.768l-3.283-1.894-2.272 1.641-3.283-1.894-.379.884-8.334-3.535 1.136-3.788 8.46-2.904 1.011.883.631-1.767 1.768 1.894.884-1.642 4.293.632.252-1.895 3.031.758 1.01-2.02 2.778 1.136 3.788-.884 1.389-1.389 1.136.758 3.662-4.041 2.399-.505-4.546-3.156-.505-2.526 1.642-1.515-1.137-1.894 2.021-2.652-1.642-4.672 2.021-3.283.631-2.904 3.157-.631z"/><path class="prefix__map-part" data-part="8" d="M473.934 733.597l3.566-5.247-.014-4.286 1.607-1.25-.715-1.785-2.5-1.072-.357-8.036-2.037-17.346 50.937-12.577 26.238-14.698 13.183-13.637 27.426-45.027 73.816-59.183 17.148 18.979-.127 3.283-2.272-.253-.884 1.642 2.399 4.798-.253 2.146-2.272 1.263.757 1.389-2.146 1.263-.632 2.399 2.526 2.778 1.767-1.01.632 2.399 3.156 4.04-2.778.884-1.641 1.137.126 2.651-3.156.379-1.137-2.651-3.283-.127-2.525 2.652-4.041 2.904-.379 2.02-5.303-2.651-2.399 3.03-7.703-.252-5.177 1.515 1.516 2.399-.884 2.147.757 3.409-2.777 3.409-2.905 6.819 1.642 2.146-.505 3.283 1.515 1.01-1.263 4.041 5.935 8.965 2.904 5.935.505 6.692-.884 2.904-2.651.632-.253 2.777-3.788 2.778-3.788-.505.126 4.167-3.662 4.041-1.767-.505-1.894 3.283-3.41-1.768-2.146 3.157-1.515-1.389-1.768 1.894.379 1.515-3.283 1.894-2.526-2.273.379-2.525-2.904-1.389-2.526 2.399-.378 4.293-2.021 1.01v3.283l-1.969 3.207-2.425.203-2.55 3.485-1.134 4.174-3.18 2.937-.758 2.273-4.293-2.778.127 2.146-2.147.884-.505 2.652-3.788 2.525 2.652 1.01.631 2.147-1.768 7.955-2.399-2.02-2.904 2.651-3.915-2.778.253-2.146-1.136.252-1.011-3.545-2.272-.632-4.546 2.905-2.147-1.127v2.399l-1.894 2.399 1.389 1.516-1.136 2.651 1.641 2.642-2.02 1.768-1.389-.758-3.03.01-3.283-1.389-1.137 2.273-2.273-1.515-3.03.505-2.652 4.293-.757-1.641-1.516 1.262-2.146-1.894-1.01 2.778-2.652.126-.631 1.768-5.177 2.147-3.662-2.147-1.642-2.525-1.894.126-.505-1.389-1.01.126-1.063 3.465-4.851-.323-3.536 1.894-1.389-1.136-2.5 3.384-1.389-1.263-4 1.657-.884-1.263-6.202 4.606-3.814-.454-1.49 5.48-.429 2.273-8.182 3.055-.783 5.278-5.303 2.778-1.894.253-1.642 2.651-5.493.632.569-5.556-2.778.379.757-2.399-1.136-.505 1.389-2.652-2.02-2.399-2.273-5.556 5.223-8.581z"/><path class="prefix__map-part" data-part="9" d="M603.627 697.191l-3.238 2.803-.758 2.273-4.293-2.778.127 2.146-2.147.884-.505 2.652-3.788 2.525 2.652 1.01.631 2.147-1.768 7.955-2.399-2.02-2.904 2.651-3.915-2.778.253-2.146-1.136.252-1.011-3.545-2.272-.632-4.546 2.905-2.147-1.127v2.399l-1.894 2.399 1.389 1.516-1.136 2.651 1.641 2.642-2.02 1.768-1.389-.758-3.03.01-3.283-1.389-1.137 2.273-2.273-1.515-3.03.505-2.652 4.293-.757-1.641-1.516 1.262-2.146-1.894-1.01 2.778-2.652.126-.631 1.768-5.177 2.147-3.662-2.147-1.642-2.525-1.894.126-.505-1.389-1.01.126-1.101 3.554-1.227 6.987 1.136 1.137-1.465 5.126-2.02.632-.379 1.767 9.041 4.243-1.515 5.177 1.086 5.581-1.515-.126.631 4.167-2.02.126-.505 1.642 1.389 4.192-.127 1.767 3.031 2.4 3.662.757.757.758 1.389-1.389 2.273-.379.884 1.136.126 1.389 1.894.379 2.399-1.894 4.167.632 1.389 2.02 3.662 1.01 3.03 5.935 2.273-.379 1.642 1.01 1.262-1.768h3.031l3.283 3.157-.884 4.167h1.894l.126 3.157-1.01 2.525 1.642 2.147 2.778-2.273.252-1.389 2.399-3.788 3.409-.127 1.263 1.894 8.839.253 2.147-2.02-.505 2.273 1.262 3.788-.757 1.262 1.01 1.389-1.01.758.631 5.556h-3.031l.253 2.525-2.399 2.399.884 1.263 3.535-3.788h.758l1.389-1.389 2.399-.884 1.642.379 2.146-2.399 3.914-.884.253-1.515-1.263-1.263.632-3.409 5.934-1.137 3.788-4.167h3.41l1.01-1.894 2.399.505 2.02-1.01 4.293 2.147 2.526 3.156 4.293.695 5.051-1.705 3.409-3.788-.505-2.02.884-2.02 2.525-.884 2.715-3.283-1.831-3.031h-1.515l-1.01-1.389-.379-3.788h5.051l.757-2.778h-1.515v-1.389l1.01-.505-2.02-5.808 1.894-.505.379-4.42h-1.516l1.894-2.904-1.767-.379.189-3.03-3.472-5.808-2.273 1.01-1.137-1.137-3.156.632.505-4.546-1.01-3.283 1.515-1.642-.505-1.262 1.262-1.768 2.147-.126 2.525-3.157-.757-2.399.252-6.566-4.04-1.389-1.642 1.136-1.01 2.273-3.788.253-4.546-2.526 2.526-2.778.252 2.273 3.915-1.641 1.262-2.273-.126-2.778 2.399-1.515.379-3.157 1.894-.884-.379-4.04 1.389-1.768-4.041-.758-.631-2.02h-.884l-1.515 1.894-5.177-4.419-1.515.883-.253 1.137-1.136 1.01-2.652-3.283-3.535 2.147-1.526.495-1.894 1.894-1.01-1.389-.631 1.894-1.263-1.389-2.02.631-1.642-1.768-3.535.884-.884-3.409-3.283-.758-.308-1.54z"/><path class="prefix__map-part" data-part="10" d="M724.911 717.745l4.798 1.578.758-1.262 7.197 2.399.884-1.263 5.303 1.01 2.399-1.641 1.263.884 1.515-1.389.884 1.136 1.389-.631 1.265 1.447-2.524 2.837-.372 4.428-1.137 5.556-4.546 2.399-1.515 3.788 1.137 2.147 2.02-1.515 3.409 3.914 6.44 3.409.631 6.945-4.545 4.419.631 1.137-4.293 2.778-1.894-1.642-1.137 1.137-4.419-1.01-1.199 4.989-3.104-.57-1.516 2.273-1.01.252-2.651-1.262-2.021 1.515-1.136-1.137-.253 2.021-2.272-.253-.758 4.672-5.935-2.778-.884 2.021-2.525-.127-3.03 4.293-1.768-.883-1.894 1.389-2.526-1.263-6.061 3.03-5.808 1.263-4.041-.126-1.262-1.01h-2.273l-2.02 4.545-1.516-.757-3.788 1.894-3.156-.632-3.662 4.167v1.642l-2.147 1.01-1.894 5.051-5.808.378-3.915-1.894-5.303-5.934-1.515.379-.631-2.4 1.515-.631-1.137-2.146-2.399-.064-2.02-2.841h-1.515l-1.01-1.389-.379-3.788h5.051l.757-2.778h-1.515v-1.389l1.01-.505-2.02-5.808 1.894-.505.379-4.419h-1.516l1.894-2.905-1.767-.378.189-3.157 2.589 1.641 6.187-2.273-.253-3.535 10.354-2.02 4.925.505 1.515-.758-.505-1.641.884-1.137-1.768-4.419 4.925-3.031.252-2.146 2.778-1.263 1.894-3.788 2.652-3.409 2.273-.632 1.388 2.021 3.915-1.768.631 2.02 2.778-1.01-.252-2.778 5.682.253 1.767-1.389 2.147 1.389 1.641-1.011.127-2.272 2.02-1.389 1.642 1.389 1.894.378.378 1.389 1.894-.505 3.915 3.031.631-1.137-.757-2.272h2.525l1.01-1.516-1.01-2.02 3.662-.947z"/><path class="prefix__map-part" data-part="11" d="M682.771 678.255l9.015.541 1.696 1.875.893 3.393 1.786.09.446-7.143 5.536-.625-.536-1.25-.268-5.045 8.215-.58 8.75 8.035v2.233l-1.518 4.375 1.785.535-.446 3.125-4.643 4.643-.446 2.232 1.518 1.429-1.608 2.678 1.429 2.233-.625 2.053-3.482 3.125 2.5 2.322 1.964-.09.982 1.697 1.697-2.143 4.196-2.322-.625-1.517 3.929-2.143 3.66 3.125.09 1.428 1.696-.178-1.875 2.232-.357 1.875-.714-.179-4.375 3.215 1.982 4.219-3.769.944 1.01 2.02-1.01 1.515h-2.525l.757 2.273-.631 1.137-3.915-3.031-1.894.505-.378-1.389-1.894-.378-1.642-1.389-2.02 1.389-.127 2.272-1.641 1.011-2.147-1.389-1.767 1.389-5.682-.253.252 2.778-2.778 1.01-.631-2.02-3.915 1.768-1.388-2.021-2.273.632-2.652 3.409-1.894 3.788-2.778 1.263-.252 2.146-4.925 3.031 1.768 4.419-.884 1.137.505 1.641-1.515.758-4.925-.505-10.354 2.02.253 3.535-6.187 2.273-2.526-1.641-3.535-5.682-2.273 1.01-1.137-1.137-3.156.632.505-4.546-1.01-3.283 1.515-1.641-.505-1.263 1.262-1.768 2.147-.126 2.525-3.157-.757-2.399.379-6.629-.253-2.336 4.798-4.041.632-3.156 2.778-1.516-2.021-2.146 2.652-1.516 1.136 1.768 2.652-1.894 7.324-1.01 3.788-3.157 1.767-5.429 1.642 1.136-1.263-3.409 2.778-3.662-.379-2.399 2.147-.758-1.515-3.03 1.767-1.263 4.799-7.702 2.399 1.641.539-1.672z"/><path class="prefix__map-part" data-part="12" d="M651.878 656.529l3.122 1.732 2.768-2.59 1.071 1.697 1.875-1.161 3.929.447.893-1.161 1.071.893 1.518-2.232 1.161.267 2.678-3.928.447-2.322 3.75.179 2.5-3.839 1.339 1.696.804-2.053 5.982-2.59 1.607 3.215 2.857 2.767.179 2.233 3.372 2.076 1.538 2.031.09 2.053-.893 1.965.625.892-2.499 3.771-.448-3.681H690v3.214l-3.482-.089-.089-5.536-5.09.357-.803-2.768-.447-.178-.268 6.25 1.25 1.875.893 4.107-4.464 2.768.804 1.785-4.108 1.34 2.054 2.321 1.786-1.161 2.321.804 1.607-5.714.268 1.607 2.054 1.071-.357 2.5-2.59 2.59 1.476 2.092-.583 1.806-2.399-1.641-4.799 7.702-1.767 1.263 1.515 3.03-2.147.758.379 2.399-2.778 3.662 1.263 3.409-1.642-1.136-1.767 5.429-3.788 3.157-7.324 1.01-2.652 1.894-1.136-1.768-2.652 1.516 2.021 2.146-2.778 1.516-.632 3.156-4.798 4.041.253 2.336-4.167-1.326-1.642 1.136-1.01 2.273-3.788.253-4.546-2.526 2.526-2.777.252 2.272 3.915-1.641 1.262-2.273-.126-2.778 2.399-1.515.379-3.157 1.894-.884-.379-4.04 1.389-1.768-4.041-.758-.631-2.02h-.884l-1.515 1.894-5.177-4.419-1.515.883-.253 1.137-1.136 1.01-2.652-3.283-3.535 2.147-1.526.495-1.894 1.894-1.01-1.389-.631 1.894-1.263-1.389-2.02.631-1.642-1.768-3.535.884-.884-3.409-3.283-.758-.276-1.709 1.044-4.139 2.55-3.485 2.425-.202 1.969-3.208v-3.283l2.021-1.01.378-4.293 2.526-2.399 2.904 1.389-.379 2.525 2.526 2.273 3.283-1.894-.379-1.515 1.768-1.894 1.515 1.389 2.146-3.157 3.41 1.768 1.894-3.283 1.767.505 3.662-4.041-.126-4.167 3.788.505 3.788-2.778.253-2.777 2.651-.632.835-2.69z"/><path class="prefix__map-part" data-part="13" d="M724.892 717.811l4.817 1.512.758-1.262 7.197 2.399.884-1.263 5.303 1.01 2.399-1.641 1.263.884 1.515-1.389.884 1.136 1.389-.631 1.233 1.521 1.716-.487 1.625 2.25 1.75-1.125L760 720.6l.375-3 1-.625-.125-6.25 2.875-1.125 6.375 6.625 1.25-.375.5 2.125 3-.375 1.375-2.5 1.375.375-.125 1.25 4.25 2.25 1-1.375 1.375.5 4.25-2.5.375-2.375 2.625.75.625-1.875-.75-2.625 1.25-.563.125-3.062 3.125-.375 1.625-3.25 1.875 1.875 2.25-3.25 1.75.75.875-1.375 4.125-1.5.125-3.25 6.25-3.625 2.125-5.625-2.625-1 2.625-10.625-2.5-1.5-1.438-9.938-3.937-.687-3.375 1.875-2.75 3.375-9.375-1.375-2.5 3.125-5.875-1.5-1.75 2.75-5.5-2.25-11.25-1.5-2.125-4.375 1.75-2.875-2.5-3.125 2.125-3-2-.375 2.5-1.625 1.625-2.875 3.125-.25-.875-2.875 2.375-4.25-.875-3.875 3.125-.375 3.312-3.25 2.313-5-4.375-4.25-7.063-2.063-6.812-3.312-1-3.125-2.625-2.25-1.875 2.125-2.25-3.625 1.625-2.375-3-1-.75-3.25-1.875 1-1.736-1.838-3.269 5.34-2.02.884.884 2.904-2.652 4.924-3.157.632 1.642 3.283-2.526 3.662-1.136-.379-4.419 2.904-2.905-2.525-.631 1.136-6.692 2.147.252 2.272-3.03-.378-.631 5.555-3.031.253-1.136 1.768h-2.399l-.506 1.767-3.283 2.147-4.166.758-.506 1.262h-3.914l-3.535 1.894.378 2.778-1.988 1.674 1.701 2.337.09 2.053-.893 1.965.625.892-2.363 3.483 2.273.178.447 1.697 1.339-.715.625 1.875 1.072 1.518 2.857.089-1.116 3.125 8.259-.535 8.75 8.035v2.233l-1.518 4.375 1.785.535-.446 3.125-4.643 4.643-.446 2.232 1.518 1.429-1.608 2.678 1.429 2.233-.625 2.053-3.482 3.125 2.5 2.322 1.964-.09.982 1.697 1.697-2.143 4.196-2.322-.625-1.517 3.929-2.143 3.66 3.125.09 1.428 1.696-.178-1.875 2.232-.357 1.875-.714-.179-4.375 3.215 1.856 4.282z"/><path class="prefix__map-part" data-part="14" d="M985.5 646.225l-4.625-2.875-.875-2.625-4.375 2.125-4.25-5-2.5 1.5-2.5-.625-.75-3-2.75 1.375-.125 1.375-1.5.75-2-2.125-3.25 1-.375 1.625-2-.125-3.5-3.125 1.125-2.5-2.125-2-5.875 3.5-1-1.5-7.75 3.125-1.125-4.375-1.625.125.375-1.75-1.375-3-1.375-.125-.125 2.125-5.75 3-1.5.25-7.75 7.625-3-.125-.75 2.25-1.375.25-1.5-2.625-18.28 4.129-3.47 4.996-4.875 2.125-3.75-1.875.5-2.375 1.75.875.875-1.625-.25-.75 1-1.125-1.25-1-1 .5-.875-.25-2.75 2.75-.125 1.375-1.5.625-.125 1.375-2.25-.375-5.875-3.125-.25.625-3.75-1.5-1.625 4-7.75-.5-4.875-2.625-3.375-5.625-.625-.25 1.25-2.375h-3.625l.125-2.375-1.5.75.125 2.875-3.75.5-.75 2.25-2.625-.125-2.125 1.5-2.125-.375-.75 3.75.625.75-3.25 1 .75 4-1.375 1-.125 4.75-5.125 3.5-5.5.75 1.25 9.875 2.5 1.5-2.625 10.625 2.625 1L815 691.85l-6.25 3.625-.125 3.25-4.125 1.5-.875 1.375-1.75-.75-2.25 3.25-1.875-1.875-1.625 3.25-3.125.375v3.312l1.375 3.813 1.625.125 1.625 3.125-1.25 3.25 6 4.375 1.75 2.875L809 726.1l2.25-2.375 4.125 2.75h1.25l-.625-2.75 2.125-.875.75-3h2.625l2.75-2 3.375.875.375-1.25 3.625-.5 1.75.75.875-2.5 3.125-.125 3.25-4.5 3.375.125 5.25-6.5 5.875-1.875 2.25-2.625.375-2.625 3.125.75 2.875-1.875L869 699.1l2.625-.75 2.875 1.625 7.75-1 4.25 2.625h2.625v3.5l2.875 3.5 3.5.75 1.625-1 1.75 2.375 5.5.125 1.5-2.5 5.5 1.25 1.5-4 2.5-.25 1.625-4 4.5-1.625 2.125-3.125-.875-3.5-1.75-.5.25-2.25 5.875-4.125.75-2.125 5.375.125 1.25-5.75-1.125-2.625 7.25-2.625 3.5-2.75 2.25 2 6.5-2.5.75-2.875 3.5-1.875 3.625.75 5-.625.375-2.375 2.875-2.25 5.625-1.875.25-3.25 3.25-.375 1-2.5 3.5.75-.25-1.375 1.25-1 1.875-4.875z"/><path class="prefix__map-part" data-part="15" d="M724.518 489.867L751 507.975h1.375l1.75 1.375 1.375-.375-1.125 1.5 1.25 1.75-2 1.625v3.875l2.25 2.375-1.125 1.375 1.5.75-.875 2.125 1.875 3.125 1.125-1.5 1.75.125-.125-1.5 2.25-1.375.375-1.25 3.5.25.875 2.5 2.625-.875 1.125 1 1.25-1 .75 1.125 5.5-.5 3.125-4.375.875 1.25 2.375-2.25v-1.25l1.875 1.375 5.5-2.625.125-2.625 2.25-1.5.5.625 8.375-4.625 1.875 1 3-4.625 2.375.625 3.875-2.5.875-1.875 5.875-3.75.125-2.125 1.125-1.375 2 .625.625-1.875 1.25.75 2.75-3.625-.5-1.625 3.125-1.75.625 1.25 2.625-2 1.875.625 1.125 3h1l1 2 5.625-1.5 1.875.625 1.875-.875-.625-1.875 2.375-1.75 2.25.875.875-1.25 1.875 1.75 3.625-.25 2 .875 3.625-1.625.125 3.5 1.5 2.25.25 2.625-6.125 5.25 5.875 6.25 1.625-.375 1.75 1.125 1.75-2 1.75.625 6.625-2.125 1-2.625 2.25-1.5 1.75 3 2.375-3.75 3 .625 1.125 1.625 4-.375 1.25-2h4.75l.125-.75 5.625 3-2.875 4.375-1.125 3.625-4.375 1.125-.5 1.5-4.375-1-7.375 5 1.375 1.875-.25 2.625 1.937.187-.937 3.313-5.125 3.25-2.375-.5-2.125 1.75-3.375-1.625-2.375 4.5-3 1.25 3.25 3.75-2.5 1.125-2.625-1-2 4.625-4.5.375-.875-1.125-1.5 1-2.625.375-3.25-2.125-5.125.5-1.375-4.125-3.125.25-2.125-1.625-11.5.875.25 2.25-3 .625-2.375 3.625-.5 3.75-4 .125-1 2-3.75-.625-.875-1.5-5.875-.125-2.375-1.125-.125-1-2.75-.125v1.375l-3.375-.125-3.25 3.5-1.5-.375-2.375 1.5-2.375-.125.375.75-4.875 1.875-.75 2.625-4.375 1.75.5 1.375-3.125 3 .125 1.875-1.875.75 1.25 3.25-2.875 1.5.875 4.75-3.25-1 .25 2.875-4.25 2.5.875 3.375-1.125.875-.875 2.5.75 2.125-1.5 3.5-8.125 1.375-.875 2.625-5.625 3.25-4.375 6.5.264 2.537-3.269 5.34-2.02.884.884 2.904-2.652 4.924-3.157.632 1.642 3.283-2.526 3.661-1.136-.378-4.419 2.904-2.905-2.526-.631 1.137-6.692 2.146.252 2.273-3.03-.378-.631 5.555-3.031.253-1.136 1.768h-2.399l-.506 1.767-3.283 2.147-4.166.758-.505 1.262h-3.915l-3.535 1.894.378 2.778-1.589 1.673-3.608-1.769-.179-2.233-2.857-2.767-1.607-3.215-5.982 2.59-.804 2.053-1.339-1.696-2.5 3.839-3.75-.179-.447 2.322-2.678 3.928-1.161-.267-1.518 2.232-1.071-.893-.893 1.161-3.929-.447-1.875 1.161-1.071-1.697-2.768 2.59-2.983-1.732-.595-6.906-2.904-5.935-5.935-8.965 1.263-4.041-1.515-1.01.505-3.283-1.642-2.146 2.905-6.819 2.777-3.409-.757-3.409.884-2.147-1.516-2.399 5.178-1.515 7.702.252 2.399-3.03 5.303 2.651.379-2.02 4.041-2.904 2.525-2.652 3.283.127 1.137 2.651 3.156-.379-.126-2.651 1.642-1.137 2.777-.884-3.156-4.04-.632-2.399-1.767 1.01-2.526-2.778.632-2.399 2.146-1.263-.757-1.389 2.272-1.263.253-2.146-2.399-4.798.884-1.642 2.273.253.126-3.283-17.236-19.572 55.243-46.72 4.279-12.273z"/><path class="prefix__map-part" data-part="16" d="M902.125 497.35l-.25 1h-4.75l-1.25 2-4 .375-1.125-1.625-3-.625-2.375 3.75-1.75-3-2.25 1.5-1 2.625-6.625 2.125-1.75-.625-1.75 2-1.75-1.125-1.625.375-5.875-6.25 6.125-5.25-.25-2.625-1.5-2.25-.125-3.5-3.625 1.625-2-.875-3.625.25-1.875-1.75-.875 1.25-2.25-.875-2.375 1.75.625 1.875-1.875.875-1.875-.625-5.625 1.5-1-2h-1l-1.125-3-1.875-.625-2.625 2-.625-1.25-3.125 1.75.5 1.625-2.75 3.625-1.25-.75-.625 1.875-2-.625-1.125 1.375-.125 2.125-5.875 3.75-.875 1.875-3.875 2.5-2.375-.625-3 4.625-1.875-1-8.375 4.625-.5-.625-2.25 1.5L792 516.6l-5.5 2.625-1.875-1.375v1.25l-2.375 2.25-.875-1.25-3.125 4.375-5.5.5-.75-1.125-1.25 1-1.125-1-2.625.875-.875-2.5-3.5-.25-.375 1.25L760 524.6l.125 1.5-1.75-.125-1.125 1.5-1.875-3.125.875-2.125-1.5-.75 1.125-1.375-2.25-2.375v-3.875l2-1.625-1.25-1.75 1.125-1.5-1.375.375-1.75-1.375H751l-25.983-18.169 14.288-37.668 44.508-69.935 40.062 14.272 2.125.25 2.25 3 .25 2.875 3.5 4.5 1.125-.875 4.25 2.375 3.75.875 1.625-.875.875 1.75 2.375-1 2.375 2.5 2.5.25 2.567-1.668 2.433 2.793 1.875.125.625 1.375h1.875l.75 1.375 1.75.375 1.75-2.875 9.5 3.375 2.875-4.25 1.5.75L881 411.85l3.625 1.75 2.5-1.25 1.5.5 3.75-5-.875-1.25 3.625-1.5.25-1.875 2.875.125.625-1.375 2.375-1.875 2.5 1.375 1.125-1-1.75-2.625.125-.875 4.375.875 1.75-1 4.125.625 2.375-2.375 3.25-.5 1.5 4-2.75 1.5 2.375 3.75-1.875 1.5.5 5.875 3.75 1.5 4.25 2.375 1.875-1 1.5 2.875 2.625-.875.75 1.875 4.75-1 1.75 4.75 4 1 1.5.125-.375 2.375-3.875 5-1.875 4.125 3.125.25-.125 3.5-2 2 2 4.25-1.875 4-1.875.375-1.375 4.375-2.5.75-3.625-2.375-1.625 1.625-2.75-1.75-4.75 3.875-3.875 6.125.375 2.625-1.125 3.25-1.75.625.875 2.625-2.75 4.125-3 .625.625 3.5-1.5 6.25h-1.875l-3.5 3.75.875 3-2.5 2.25-.875 3.375z"/><path class="prefix__map-part" data-part="17" d="M889.97 520.089l3.405-.489 1.375.875.5 3.625 4 .25 1.125-1.75 2.875 2 1.937.187 2.188 4.813 2 .625 1.125 2.375-.625 1.375.875 3.625 1.875 1.5-.375 3.875-2.125.875-2.5 1.875 1.25 2.125-.5 1.25 1.75.75 2.75 6.75-4.625 3.75-4.75 1.125-1.375 1.75 1.375 4.125-1.375 3.25 2.5 1.5-.625 3.375-3.25-.875-.875 1.125-2.25-.875-.875 2.625-1.875-1-3.75 2.375.125 2 1.375 1.75.125 3 2.5 3.125-.25 3.25h1.25l1.625 1.875v3.125l.875 3.25-1.5 8 1.875 3.25-3.625 2.625-2.25-2.125-.25 4.125-6.125.875-6 4.25.75 1.75-1.25 1.125 4.625 8.625 2.25 1.375-2.375 2.5 1.875 1.625 2.125-.25.937 5.937-3.937 5.938-4.875 2.125-3.75-1.875.5-2.375 1.75.875.875-1.625-.25-.75 1-1.125-1.25-1-1 .5-.875-.25-2.75 2.75-.125 1.375-1.5.625-.125 1.375-2.25-.375-5.875-3.125-.25.625-3.75-1.5-1.625 4-7.75-.5-4.875-2.625-3.375-5.625-.625-.25 1.25-2.375h-3.625l.125-2.375-1.5.75.125 2.875-3.75.5-.75 2.25-2.625-.125-2.125 1.5-2.125-.375-.75 3.75.625.75-3.25 1 .75 4-1.375 1-.125 4.75-5.125 3.5-5.563.687-4.062-.687-3.375 1.875-2.75 3.375-9.375-1.375-2.5 3.125-5.875-1.5-1.75 2.75-5.5-2.25-11.25-1.5-2.125-4.375 1.75-2.875-2.5-3.125 2.125-3-2-.375 2.5-1.625 1.625-2.875 3.125-.25-.875-2.875 2.375-4.25-.875-3.875 3.125-.375 3.312-3.25 2.313-5-4.375-4.25-7.063-2.063-6.812-3.312-1-3.125-2.625-2.25-1.875 2.125-2.25-3.625 1.625-2.375-3-1-.75-3.25-1.875 1-1.75-1.875-.25-2.5 4.375-6.5 5.625-3.25.875-2.625 8.125-1.375 1.5-3.5-.75-2.125.875-2.5 1.125-.875-.875-3.375 4.25-2.5-.25-2.875 3.25 1-.875-4.75 2.875-1.5-1.25-3.25 1.875-.75-.125-1.875 3.125-3-.5-1.375 4.375-1.75.75-2.625L792 549.1l-.375-.75 2.375.125 2.375-1.5 1.5.375 3.25-3.5 3.375.125V542.6l2.75.125.125 1 2.375 1.125 5.875.125.875 1.5 3.75.625 1-2 4-.125.5-3.75 2.375-3.625 3-.625-.25-2.25 11.5-.875 2.125 1.625 3.125-.25L849 539.35l5.125-.5 3.25 2.125L860 540.6l1.5-1 .875 1.125 4.5-.375 2-4.625 2.625 1 2.5-1.125-3.25-3.75 3-1.25 2.375-4.5 3.375 1.625 2.125-1.75 2.375.5 5.125-3.25.845-3.136z"/><path class="prefix__map-part" data-part="18" d="M1131.56 463.975l-5.68 1.125-.63 2.875-2.37.25-2.38 2.125.5 1.25-1.88 1.125h-3.62l-.88-1.625-1.62.75-.62 2.625-1.88-1.25-2.62.875.24 1.5-.12 1.5h-2.38l.88-1.875-3.62-.5 1.87 5-2.25-2.875-1.38.25-.24 2.25-1.5-.375-.63 1.625-2.37-.5.37 4.625-1.25 6.125-6.62 12.25.5 7.125 1.5 1.25-2.13 4.375h-3.5l-6.63 8.5.38 3.875-3.12 5.875-8.26 4.75-2.5-1.625-10.74-2.625-.76-2 1.88-1.75-.38-2.125-2-1.375-1.5-3.875-.24-6.875-2-4.75-4.13 1.125-6.87 6.375-3.76-4.875-2 .125-6-7.375-1.24-5.625-1.5.375-3.13-2.375-5.63 1.625-1.24-.75-1.5-5-.13-14-4.13 1-2.12 3.75-6.25 1.5-1.125 1.375-1.875-1.625-4.625 3.5-3.5-1.75-1.375 1.75-1.25 4.5-9.125-1.125-1.25 1.125-2-2.25-3.625 5.75 2 3.375-1 2-2.125-.375L964 508.6h-2.25l-1.125 2.125-5.125.375-2.75-2.625-6.125 3-1.625-1.25-4.5 1.375-1.25 5-3.75-1.5-2.375 1.375-2.5-1.625-6.625 3.875-.75-.625-4.375 1.625-2.375 2.875-4.375-.25-2-1.375-1.875.375-.875 3-2.25.5 2.25 4.75 2 .625 1.125 2.375-.625 1.375.875 3.625 1.875 1.5-.375 3.875-2.125.875-2.5 1.875 1.25 2.125-.5 1.25 1.75.75 2.75 6.75-4.625 3.75-4.75 1.125-1.375 1.75 1.375 4.125-1.375 3.25 2.5 1.5-.625 3.375-3.25-.875-.875 1.125-2.25-.875-.875 2.625-1.875-1-3.75 2.375.125 2 1.375 1.75.125 3 2.5 3.125-.25 3.25h1.25l1.625 1.875v3.125l.875 3.25-1.5 8 1.875 3.25-3.625 2.625-2.25-2.125-.25 4.125-6.125.875-6 4.25.75 1.75-1.25 1.125 4.625 8.625 2.25 1.375-2.375 2.5 1.875 1.625 2.125-.25.875 5.875.125 1 17.75-4.125 1.5 2.625 1.375-.25.75-2.25 3 .125 7.75-7.625 1.5-.25 5.75-3 .125-2.125 1.375.125 1.375 3-.375 1.75 1.625-.125 1.125 4.375 7.75-3.125 1 1.5 5.875-3.5 2.125 2-1.125 2.5 3.5 3.125 2 .125.375-1.625 3.25-1 2 2.125 1.5-.75.125-1.375 2.75-1.375.75 3 2.5.625 2.5-1.5 4.25 5 4.375-2.125.875 2.625 4.813 2.687 1.187-4.062h1.875l-.375-2.375 2.5-.75.25-2 4.125-.625-.375-2.375 1.625-.625 1.625-1.75-.125-3.125.5-1.375 4.75-.875.5-2.75 2.87-1-.37-3.375h1.5v-1.625l5.13-.125.24-1.625 2-.75 1.63 4.25-.25 1.5 3.62 2.25 4.5-1.125 2.26 1.375-.5 1.25h2.74l2.13 2.125 4.5-3.75 4-1.5-.37-5.25 1.12-.875-.25-2.125 2.63-3 1.74.125 1.88-1.625 3 2.25 1.62-1.75 2.63 2.75 1.5-.25.87 1.25 4.88-.375 1-1.75 2.5.75 1.75-1.875 2.37 2.375 2.13-.75-.5-1 3.13-3.75 2.37 1 1.37-2.375 3.88-1.625.25-2.125 1.5-.125-.5-1.125.75-.75 1.5.75 1.38-2.25 9.24-2.25 2.13 1.125 11.87-1 4.38-2.375 3.5 4.25 2.25-5.125 2-1.375-.5-2.75 5.5-3.25 1.87-3h2.38l2.62-4.125 2.63 1.625 2-1.25.37-1.75 2.88-1.75 1.12.5 1.88.125 4.62-4.625 4 .625 2.88-5.875 2.12-.875-.5-1.5 2.38-2 3.62-7.5 2.5-.625-2.87-4.875 4.13-11h1.87l.37-2.25-1.37-2.25 1.5-2.25-.87-1.5.87-1.125h2.37l1.63-2.375-3.75-.25-2.62.375-1.63-3.125h-2.5l-1.37 2.125-3.26-1.75-.87 1.75h-.5l-.37-5.375 1.74-.125 1.88-1.25.38-6.125-3-1.5-3.5 1.375-1.63-2.25-3.25-.625-.25-2.875 1.25-1-1.12-1.125-1.38 1-1.25-.75-3 1.5-1.25-1.5-.38-3.125-1.37-.375-.25-1.5 2.38-2.25-.13-2-1.87-1.125 1.37-1.5-.87-1.125-4.76-1.5-3.37-5.875 1.63-1.875-1.76-1.875.5-4.625 2.63-1.25.75-2.75-1-1.875.5-1.875-4.44-3.375z"/><path class="prefix__map-part" data-part="19" d="M995.188 266.225l-.938-3.875.875-2.125-1.75-.875-3.875 1.75-3.75-3.875h-2.875l1.75-2.875-1.5-2.375L980 251.1l-4.625.375-1-4.625-3.75-1.375-2.25.625-6.375.375-2.75-3.75-1.625-.25-1.75-2.375-3.375.875-3.5-1.625-.875-2.75-2.75-.625-.75-1.375-3.625 1.75-.75 1.25-2.875 1-1.052 5.192-4.073 2.558.25 1.5-1.75 1.75 1.75 1.375-1.625 2.375.625 1.625-4.875 11.375-2.125.125.25 3.25-2.375 2.625-2.5-1.25-.875 1.125-4.125-1.375L911 272.6l-3.5 2.875-1.625 3.75h-1.5l-5.5 3-.25 2 3.5 2.125-.75 1.5 1.75 7.25 3.25.625-1.75 3.625-1 4-4.875.625.25 4.75-1.875 2.375-2.75-2.125-6.25 7.25-3.875 1.25.625 5.25-.625 3.875h-2l-1.375 2.5 2.5 1.125h3.875l-1.375 2.125 1.875 1.125.625 4.5-1.625 3.5.875 2.875-18.375 10.375-1.375 4.125H865v2.125l-4.875 1.625.75 1.25-1.875 2.125-.125 2.875-1.625.125.625 8 2.125 1 .875 3-1.5 2.375 2.625 2.875-1.75 4.5.75 1.375-2.875 3.75 1.125 3.125-2.875 6.875-2 .625-.871 3.957 2.371 2.793 1.875.125.625 1.375h1.875l.75 1.375 1.75.375 1.75-2.875 9.5 3.375 2.875-4.25 1.5.75L881 411.85l3.625 1.75 2.5-1.25 1.5.5 3.75-5-.875-1.25 3.625-1.5.25-1.875 2.875.125.625-1.375 2.375-1.875 2.5 1.375 1.125-1-1.75-2.625.125-.875 4.375.875 1.75-1 4.125.625 2.375-2.375 3.25-.5 1.5 4-2.75 1.5 2.375 3.75-1.875 1.5.5 5.875 3.75 1.5 4.25 2.375 1.875-1 1.5 2.875 2.625-.875.75 1.875 4.75-1 1.75 4.75 4 .937 1.25-3.187 2.875-1.375-.375-1.75 2.25-1.75-.625-1.625.625-3.125 2.75-1.25.875.5 1.5-3.625-1.125-.75 1.875-2.5-1.75-2.125.625-4.25-3.25-7.125.5-3.5 4.25-.875-.125-4.25 3.5-1.875 1.125-2.875 3.5-2.25.375-2.625-2-.75 2.25-2.5-.875-1.375 2.25-3 .875-2.75 3.25.75 2.5-5 1.625-2 1.375.25 2.625-4.25-.25-2.625 3.25-3.125.125-2.625-2.25-3.125 1.25-3.125-2.5-2.5-1.75-.625 1.375-5.875L975 323.35l-1.75.75-1-2.5.25-2.5 4.25-1.5 1.75-4.625-1.375-.75-1-3.125 1.375-2.625 1.875-.25v-1.75l2.75-.375-1.125-2.625-6.25-.25-.875-4.125 4.875-2.875.75-4.75 5.625 2.375 2.25-.875.875-3.125 2.625-4 4.375-2 .125-1.75-1.5-1 1.25-3.625-2.375-2.125 2-1.25.438-5.875z"/><path class="prefix__map-part" data-part="20" d="M1284.69 250.725l-3.44.375-4.75-1.5-7.75 3.125-2.37-2.375-1.88 1.375-3.88-2-3.62 3.375-3.25-.625-2.37 3-5.26.75-3 4.125-4.62 1.375.38 2.625-3.26-.125-4 3.5-2.24-.875-.5 1.375-5 1.25-2-.875-5.13.25-2.13-4.625 2.13-1.5-2.75-1.75-.5-3.125-2.88-2.75-2.24.625-4.88-2.75-.5-6.5 1.5-2.125-7.62-3.125-.13-2.625-2.87-2.5-.13-4.625 2.13-.875 1-2.5-1.13-2.125-9.5-.625-3.5-6.625 1.75-3.625-1-3.5-4.62-.375-1.88-2.125-.12-2.625-5.5.5-.26-2.125-11.62-.25-.25-1.75h-1.75l-4.38 2.5-1.12-1.375-2.38.75-5.24-3.25-3.88-.5-.88-2.875-2.74 1.25.87-3.5-5.25-.375-5.25 1.875-.37 1.125 1.12 1.75-2.88 3-4.87 1.25-1.13 2.5-2.37-1.375-12.5 6.75-3.63 4 1.26 4-1.63 1.625-4.87.375.24 1.625-3.62-.25.75 6.375-3.87 4.625-4.5-1.5-2.38 3.25h-2.62l-.63 1.875h-1.5l-2.25-4.5h-1.5l-1.25 3.25-5.13 3.75 1.5 2.125-.5 3.625-1.37 1.75.5 3.5.75 1.75-.25 1.75-5 1.625-.5-1.625-4.13.875-4.37-.25v-2.75l-3.13-2.875.5-3-1.74.25v-1.75l-2-1.375-.38-2.125-2 .25-.5-4.375-2.75.5-2.13-1.625.5-2-3.12-6.125-2.88.875-4.62-4.75 1.25-2.625-2.75-3.375 5.25-5 .87-10.375 4-2.875v-2.25l3-2.125-.5-1.625 2.88-2.625 9-1.125 1.88-2.375h3.62l3.25 3.25 3-2 3.37.25-.74-1.5-.26-1.375 5.13.5-.13-3.25 2.88-2.25-.38-3.375-2.87-5.125-4.63-1.5 2.13-3.125-.5-3.625-2.5-1.75 2.13-1.125-1.13-5.125-1.63-.25.26-2.625h-2.26l.88-3.25-6.75-12.125 3.13-4.125 1-7 15-5.875 1.62 1.375 8-7.5.62-6 7-1.75.07-3.688 4.31.313 1-2.75 2.75.875 4.75-4.25 17.12 8.5.88-1.875 2.75 1.75 1.62 3.25-1.87 1.5.5.875h1.87l.38 2.125-.5 1.25 3.37 2.5 5.38-3 1.62.75 2.88-3.5-2.13-1.25 3.5-2.75 4.75-1.25 2.88-7.25 2.12-.875-.37-1.5 1.5-.625 4.75 2.5 4.37-1.625 1.63.875 6.5.875 1.25 3.5 6.37-3-.87-2.75.62-.875 5.38 1 .75 2 2.37-.125 1.38-2.5 7.87-.875 1.75 1.625.63-1.625 1.5-.5.25-2.375 2.37-.875.88-10.75 4.25-5.5 2.5.25.62-2.875-.87-2.375 7.87-7.125 4.25-.125-.5-4-5.62-3.5 4.75-2.625.12-1.875-1.12-.5 2.37-3.75 9.88.25 1-1.875 2.87.375-.25 1.625L1244 49.6l13.75-2.125 2.25-2 2.87-.75 2.88 1.375.75-1.375 2.25-3 2.87-.875.88-2.25-.75-1.625.87-1.5 2.63.375 1.87-4.125L1283 34.1l2.5-2.5 2.87.75-.12 1.5 3.62.5 1-2.25 6.88 1.25 2.25 1.625-.5 2.625 6.37 5.875-.12 1.75-3.5 2.125-3.88-.75-3.37 2.125-2.63 5-5.62 1.25-.63 1.375-5 .375v1.625l-6.75 2-5.75 3.25-2.75 4.625-6.87 3 .5 2.125-2.5 1.5.5 3.125-.88 2.25 2.25 7.25-2.37 1.875.5 4-3.25 4-9.25 3.25-.13 2.75-1 5.25 2.63 1.25 7 1.75 2.37-1 8.13.25.12 2.25-1 2.875 1.13 4.5 5.87 4 3.38 4.125-1.63 2.125-2.25-.75-2.62-2-2.63 1.25-1.62 2.875 1.75 6.125-1.63 2-.5 4.75 2.63 2.5 5 10.25 3.12.875 1.25 2.125-.5 1.75-4.75.375v3.25l2.25 2.75-3 3.125 2.38 3.625-.38 4.5 6.63 3.75 3.12 3-2.5 7.25-2.87 1.5v10.875l2.25 2.5-2 3-.5 4.5 6 2.5-2.13 7.125 3.13 1.625-3.13 5.25 1.13 6.25 3.37 2 2.25 2.875-4 4.25 2.07 2.375z"/><path class="prefix__map-part" data-part="21" d="M1131.25 463.912l-5.37 1.188-.63 2.875-2.37.25-2.38 2.125.5 1.25-1.88 1.125h-3.62l-.88-1.625-1.62.75-.62 2.625-1.88-1.25-2.62.875.24 1.5-.12 1.5h-2.38l.88-1.875-3.62-.5 1.87 5-2.25-2.875-1.38.25-.24 2.25-1.5-.375-.63 1.625-2.37-.5.37 4.625-1.25 6.125-6.62 12.25.5 7.125 1.5 1.25-2.13 4.375h-3.5l-6.63 8.5.38 3.875-3.12 5.875-8.26 4.75-2.5-1.625-10.74-2.625-.76-2 1.88-1.75-.38-2.125-2-1.375-1.5-3.875-.24-6.875-2-4.75-4.13 1.125-6.87 6.375-3.76-4.875-2 .125-6-7.375-1.24-5.625-1.5.375-3.13-2.375-5.63 1.625-1.24-.75-1.5-5-.13-14-4.13 1-2.12 3.75-6.25 1.5-1.125 1.375-1.875-1.625-4.625 3.5-3.5-1.75-1.375 1.75-1.25 4.5-9.125-1.125-1.25 1.125-2-2.25-3.625 5.75 2 3.375-1 2-2.125-.375L964 508.6h-2.25l-1.125 2.125-5.125.375-2.75-2.625-6.125 3-1.625-1.25-4.5 1.375-1.25 5-3.75-1.5-2.375 1.375-2.5-1.625-6.625 3.875-.75-.625-4.375 1.625-2.375 2.875-4.375-.25-2-1.375-1.875.375-.875 3-2.063.437-2.062-.187-2.875-2-1.125 1.75-4-.25-.5-3.625-1.375-.875-3.063.375-2.187-.25.25-2.625-1.375-1.875 7.375-5 4.375 1 .5-1.5 4.375-1.125 1.125-3.625 2.875-4.375-5.563-3.125.938-3.5 2.5-2.25-.875-3 3.5-3.75H910l1.5-6.25-.625-3.5 3-.625 2.75-4.125-.875-2.625 1.75-.625 1.125-3.25-.375-2.625 3.875-6.125 4.75-3.875 2.75 1.75 1.625-1.625 3.625 2.375 2.5-.75 1.375-4.375 1.875-.375 1.875-4-2-4.25 2-2 .125-3.5-3.125-.25 1.875-4.125 3.875-5 .375-2.375-1.437-.438 1.187-2.937 2.875-1.375-.375-1.75 2.25-1.75-.625-1.625.625-3.125 2.75-1.25.875.5 1.5-3.625-1.125-.75 1.875-2.5-1.75-2.125.625-4.25-3.25-7.125.5-3.5 4.25-.875-.125-4.25 3.5-1.875 1.125-2.875 3.5-2.25.375-2.625-2-.75 2.25-2.5-.875-1.375 2.25-3 .875-2.75 3.25.75 2.5-5 1.625-2 1.375.25 2.625-4.25-.25-2.625 3.25-3.125.125-2.625-2.25-3.125 1.25-3.125-2.5-2.5-1.75-.625 1.375-5.875L975 323.35l-1.75.75-1-2.5.25-2.5 4.25-1.5 1.75-4.625-1.375-.75-1-3.125 1.375-2.625 1.875-.25v-1.75l2.75-.375-1.125-2.625-6.25-.25-.875-4.125 4.875-2.875.75-4.75 5.625 2.375 2.25-.875.875-3.125 2.625-4 4.375-2 .125-1.75-1.5-1 1.25-3.625-2.375-2.125 2-1.25.651-6.28 8.969-1.345.63-1.25 3.62-.25 2.25-1 2.38-5.375 4.37-.25 1.38-3.625 3.25-1.25.87 1 6.38.25 2 3 .12 4 4.5 2.375 1.25 4 2.88-.625 1.12.625 2.88-3.125 3.87-.375.88-1.25 3.62.75.13-5.375.87-.813 4.5.313 4.13-.875.5 1.625 5-1.625.25-1.75-.75-1.75-.5-3.5 1.37-1.75.5-3.625-1.5-2.125 5.13-3.75 1.25-3.25h1.5l2.25 4.5h1.5l.62-1.875h2.63l2.37-3.25 4.5 1.5 3.88-4.625-.75-6.375 3.62.25-.25-1.625 4.88-.375 1.62-1.625-1.25-4 3.63-4 12.5-6.75 2.37 1.375 1.13-2.5 4.87-1.25 2.88-3-1.13-1.75.38-1.125 5.25-1.875 5.25.375-.88 3.5 2.75-1.25.88 2.875 3.87.5 5.25 3.25 2.38-.75 1.12 1.375 4.38-2.5h1.75l.25 1.75 11.62.25.25 2.125 5.5-.5.13 2.625 1.87 2.125 4.63.375 1 3.5-1.75 3.625 3.5 6.625 9.5.625 1.12 2.125-1 2.5-2.12.875.12 4.625 2.88 2.5.12 2.625 7.63 3.125-1.5 2.125.5 6.5 4.87 2.75 2.25-.625 2.88 2.75.5 3.125 2.75 1.75-2.13 1.5 2.13 4.625 5.12-.25 2 .875 5-1.25.5-1.375 2.25.875 4-3.5 3.25.125-.37-2.625 4.62-1.375 3-4.125 5.25-.75 2.38-3 3.25.625 3.62-3.375 3.88 2 1.87-1.375 2.38 2.375 7.75-3.125 4.75 1.5 3.11-.143 1.26 2.143 2.38 1.5 3.12-1.625.75-1.75h3.25v2.25l.88 2.375 5.62-2.5 5.25 1.125 2.25-2 1.88.375 3-2.75 2.5-.125 1.25 1.875-.13 2.625 1.75.25 1 2 1.88-.5 1.75 1.375-2.75 1.5 1.5 2.5-.75 2.75 1.25 2.75 8.25 4.75 1.87 3.875 4.25-.125v2l3.25 1 1.63-2.375 1.75.75-.13 1.875 3 3.5-.25 1.875 3.13 1.375-.5 3.25-2.13 2.375.38 2.125 3.75-1.875-1.63 2.75.88 1.625 2.62-.5-2.12 2.5-.25 1.625 1.75 2.5-.25 3h2.37l.25 5.25-1.37 1.5 2.12 1.5-2.5 1.125-2.12 2.25-.38 5.125.63.375 1 2.125-.13 1.875-3.12-.5-.25 2.625-.13 1.75-4.75.75-1 2 1.63 2.5-1 1.625.12 1.5 1.63-.75v2.875l-6 3.625 2.75 2 .12 2.25-4.12 1.125-.63 1.375-1.62 1.375-1.5-1.25-3 2-4.13-1.125-.75 3.5 1.88 2.75-3.38.5-1-2.875-1.87.125-1 1.625-2.25-3-4.5-.875-1.38 3.125-2.37-2.5-1.75-.5-1.63 2.875-2.12-1-1.75.625.75-2.25h-1.63l-1.87 1.5-2.13.375v1.75l-1 .625-5.5-1.25-4 4.125-2.87-2.375-2.38 1.75-5.12.125-2.88 2.75-3.25-.75-2.75 2.125-2.5-.75-2.37 1.625-3.63.875-.62 3.625-6.13.875-1.12 1 1.25 3-.88 4.25-2.75.375-2.5 3-2.87 1.125-1.88-.875-2.5 4.5-4.25.625-.37 2.625-2.13 1.625-3.25-.5-1 1.125 1 4.125-1.87 1.75-.25 2.75-3.5 1.375.25 1.25-6.13 2.375.38 3.875.75 1.25h-2.75l-.38 4.125-3.25-.25-1.5 2.75-2.75-.375-1.37.875.62 1.375-1.5 1.375-6.87-.375-.38 2.125-1.62.625-3.25-.5-1.38 1.75-6.25-.375-.25 4.5-3.5 2.25v3.375l-1.75.875.38 1.75-3-1.125-2.63 1.5-3.5-2.125-2 1.5-.12 4-7.63 3.875-1.12-.875h-1.75l-1.75 1.625-1.5-2.375-2.13.25-2.12 2.625-8.63.75-3 2.875 2.38 2.375-.88 4.375-5.25-.75-.75 2.625-1.12.625-1.13-.625-2.5.125-2.87 4.25 2 .937z"/><path class="prefix__map-part" data-part="22" d="M710.25 854.594l-9.078.574-2.399.884-1.389-.757-4.419-.621-.884 1.262-2.147-.126-1.263-.758h-3.156l.757-1.767-1.136-1.894-3.157-.379-1.262 1.515-4.294-3.409-3.156-1.137-3.915 2.273-.631-1.515.758-1.642-1.263-3.03-1.768.631-1.01-1.767-1.515 1.01-1.389-.253-2.021 1.137-3.661-.884-.505-5.43-2.526.631 1.768 5.051-5.177-2.02-.631-3.536-5.682-6.439-3.157-2.263-1.137-3.914-5.177-.379-1.894-5.935 2.147-1.515-2.02-3.536.252-2.778 3.031-2.02-2.4-7.071 1.263-1.01-.757-1.515.694-2.589 4.988-1.831 3.409-3.788-.505-2.02.884-2.02 2.525-.884 2.715-3.346 2.588-.063 1.137 2.146-1.515.631.631 2.4 1.515-.379 5.303 5.934 3.915 1.894 5.808-.378 1.894-5.051 2.147-1.01v-1.642l3.662-4.167 3.156.632 3.788-1.894 1.516.757 2.02-4.545h2.273l1.262 1.01 4.041.126 5.808-1.263 6.061-3.03 2.526 1.263 1.894-1.389 1.768.883 3.03-4.293 2.525.127.884-2.021 5.935 2.778.758-4.672 2.272.253.253-2.021 1.136 1.137 2.021-1.515 2.651 1.262 1.01-.252 1.516-2.273 3.055.745-.015 1.886.632 2.778-1.768.379-1.768 7.702-1.768 2.778 1.137 2.905-.505 6.944-3.536-1.136-8.334 4.672-.884 1.768-2.651.252 1.515 2.147-.631 1.768 8.46 10.354 1.894-1.768 3.157-.379 1.515 2.525 6.187 3.662 4.167-1.136.252 2.273 4.42.252 4.545 6.945 4.294-.126 1.389 1.262 1.894-1.767 3.156.126.884 3.157-2.399 2.272-.252 2.905-3.283 2.272-3.41-2.525-1.136 1.389-1.01-1.515-5.177 2.778-.758-1.515-1.894.126-2.02 4.924-2.399-.252-1.516 1.641-.505 1.263-3.661.379-1.895-2.021-1.641 1.137-1.263-1.389-1.894.505-3.662 5.303 1.389 1.642-2.778 1.01-.631 4.419-8.207-4.293-3.157 2.526-.505 4.293-2.928 1.193z"/><path class="prefix__map-baikal" d="M843.482 292.011l-4.196 2.768-1.786 4.642 2.411 3.661-1.161 4.286-2.768 1.25-.268 4.196 1.34 1.607-3.036 3.304-1.25 2.411 1.428 4.732-1.071 2.411-.179 4.91-1.696 1.875-3.036.804-1.518 3.214-2.5 2.054-.803 13.035.357 1.34-.625 3.928.804 1.429-2.411 6.071v4.018l2.232 1.429.089 3.928-3.125 2.054 1.429 6.339 2.589 2.857.893 5.268 2.589 3.214-3.482 5.893-3.482 8.482-15.357 18.304-2.322 6.429.179.892-2.589 1.429-1.34 2.857 1.072 1.072.446 1.071 1.25-.179-1.696 2.054 1.786-.446.625 1.964-2.59.178 1.429 1.518-2.411 3.572v.714l2.857 1.429-1.071 2.946-2.322.893.893 1.339-1.339 1.161-4.821.268-6.786-1.518-1.339-.982 2.5-2.947 1.25-.089v-.982l.982-.357-.447-1.875.625-1.161 1.518-.893-1.071-.714-.09-1.161 3.125-2.053-2.946-.536-2.5-2.679 2.589.625-2.143-2.321 1.072-2.768 2.321 2.143-.714-2.411 1.429.357-.09-1.071-2.232-1.875-.893-5-5.625 2.053-3.125-.178-2.589 2.053-.804 1.34-6.875 5.893-1.071 4.642-3.393 5.179-.357 3.036-5.357 9.285-5.179 6.25.536 1.786-3.036 3.572 6.786-3.393.536-1.429 18.214-7.5 5.357 5.536 2.5 6.607.893 13.393-4.107 4.464-1.25-.714-1.072 2.857-3.035 1.786-2.143-.179-1.964 3.393-3.393 1.964-3.036-.357-2.679-3.393-3.214-.357-6.428 5.536-.536 1.607-6.786 6.786.536.893-6.072 5.357-5.892 3.214.714 2.321.178 1.965 1.429-.179 1.786 2.857-2.143 4.286-2.143.536.714 3.035-3.75 1.429-1.785 2.5.178 2.143-15.536 10.714-3.75 7.143-4.285 2.679-1.965 1.785-7.857 4.465-5.357-.536-.357-1.964-1.071 1.785-7.679-.714-.893 1.429-9.643 5-.535 2.321-4.643 4.286-14.107 4.285-1.608 2.322-15.714 10.536-.536 8.214-3.214 7.143-4.286 2.143-5.178-3.215-.357-1.785-2.857-.179.535-2.143-1.785-.178-1.25 3.392-.358-2.321-3.035 2.143v-2.322l-1.429 1.608-.536-1.608-1.428 1.786-1.964-1.25-.893-1.786-1.072 2.5-1.25-.357-.893 1.607-1.607-.714v1.25l-3.928-.178-1.25 2.321-1.607 3.75L595 614.6l-4.286 3.75v4.107l.536.536.357 2.678-1.25.893.714 1.786 2.143 2.857 1.429 2.5-2.679 3.393-1.428-.179-.179 3.036-.893-1.071-1.071 5.535-1.607 1.965-3.929 7.321 1.25-2.321 2.857 3.571.357 2.679-6.607 4.107 1.607-7.143-1.607 7.321-1.428 4.465-6.072 7.143-3.928 8.392-5.357 1.786-.536-1.071-1.964 2.5-4.643 1.785-.357-.892-2.5.178-2.5 2.143-8.75 3.214-3.929.357-4.821 4.465-9.465 2.678-10.714 1.607-11.429 4.643-3.571.179-4.286 4.107-4.285.714s-3.393 3.572-3.929 4.465c-.536.892-11.607-3.215-11.607-3.215l-7.679 3.036-6.964-4.286-3.75 1.607-11.786-2.857-1.785-3.035-3.75.714-3.929-3.929-4.107.536-6.429-6.429-5-.714-10.357-6.428-.536-3.393 1.34-4.197 7.589.447 2.589-1.25 1.518.714 7.947-2.589 8.839-1.072 7.143-3.125 10-1.518.089 1.072 1.518-1.339 2.411-.179.892 1.161 2.322-.715 3.303.358 3.215-.536 3.303.268 1.518 1.428 6.25-5.268.268-1.875 1.518-2.41 2.143.178 1.16-.803 3.036.357 4.822 3.482 13.928-7.411 1.429-.178.893.893 3.214-.09 2.946-2.143 2.054-.089 2.143-1.607.982-4.375 1.607-1.964 1.696-.09 5.893-5 2.59.179 2.232-3.839 6.696-6.161 6.875-10 .893-4.107 6.161-7.322 5.535-9.017.268-1.608 3.929-5.446 2.678-5.625 5.983-4.821 3.482-1.161 1.16-1.607 7.233-2.947 1.071.536.357-.982 9.643-6.697 5.357-.892 2.411-1.608 9.821-11.696-.714-4.464 2.5 1.25 1.339-1.34-.982-.446v-.536l1.072-.178-.09-1.25 6.072-3.572 2.143-.178.803-1.607 1.072-.715.357-1.785-.357-1.429.714-4.107 1.964-1.25.714-2.322 3.215-.535-.179-1.786 5.536-3.214-2.143-.893.536-1.786-2.679-.714.893-1.964-3.036 1.607 1.965-3.572-7.858 4.286 1.965-4.821 2.5-.179-.536-2.679 4.643-1.25.357-4.285 7.321-4.643 2.143-5.893 5-2.679 1.25-2.678 7.143-3.214 3.75-4.465.893.536 12.5-8.393.179-1.428 6.428-2.679 1.429-5-1.607-1.429.535-4.464 6.607-12.857 20.358-16.964 3.214-1.25 3.928-4.822 4.643-.893.179-2.142 4.821-3.929 2.322-3.929 2.143-.892-.893-1.429 1.071-8.036 2.143.09 1.518-4.554.714.179 1.607-5.893-.625-2.857.09-1.965 4.196-3.928 5.714-7.768-.535-2.411 4.017-4.107 2.054-.179.536-1.875-1.429-1.339.982-5.089 1.161-1.25-.536-1.607 1.429-2.054-.982-2.232 4.91-9.018 5.447-5-.357-1.071 2.857-2.59v-.892l2.232-4.018.893.178v-1.785l2.857-4.197 1.429-5.803 1.071-.358-.536-4.196 2.322-2.054.893-2.232-1.518-2.5 2.41-5.357 3.036-.089-.446-1.875.803-4.197 2.322-1.16.089-2.054-2.232-1.696-.089-1.607 4.375-3.036 2.857-4.822 6.607-1.25-.089-3.839-1.161-1.518 5.178-8.571.179.268 2.321-16.607-.892-4.822 1.071-2.857 1.964-.893-1.071-2.143 1.25-1.607-1.607-1.071.893-.893-2.143-1.429-1.25-2.5 1.785-.535-2.321-2.858 3.214-4.464-1.785-3.75 1.785-1.786-.535-1.964 10-2.5 1.607-6.964 4.464-2.679 9.821-11.785 4.286-.358-.893-2.142 8.036-8.393 5 3.214-.536 4.464 8.75 5.357 2.5 4.286-2.678 2.143 3.75 2.5.714 3.036-2.857 1.607-.893 3.928-4.107 3.75-1.429 5 3.036 1.965-3.214 2.143.178 3.75 4.643 2.142-4.821 1.608-1.965 8.75.715.892-1.607 5.358-2.322 3.035 2.143 3.393-.536 5.536-5.178 5.536.357 2.857 2.5 3.035-1.786 1.25 3.125 8.84z"/></svg>