<svg width="78" height="94" viewBox="0 0 78 94" fill="none" xmlns="http://www.w3.org/2000/svg">
<path d="M17.2296 88.9859V90.3201H17.84C18.3682 90.3201 18.4974 90.5444 18.4974 91.0403V92.3272C18.4974 92.9765 18.4739 93.2245 17.8517 93.2245H16.5957V88.3838H18.3095V88.9859H17.2296ZM17.2296 90.9104V92.646H17.617C17.7813 92.646 17.84 92.5987 17.84 92.4334V91.1465C17.84 90.9694 17.8048 90.9104 17.6052 90.9104H17.2296Z" fill="white"/>
<path d="M21.2441 92.1498C21.2441 93.0943 20.7394 93.2832 20.1994 93.2832C19.6594 93.2832 19.2368 93.0589 19.2368 92.1498V89.6114C19.2368 89.1745 19.2955 88.3599 20.2698 88.3599C21.1267 88.3599 21.2559 88.9856 21.2559 89.6232V92.1498H21.2441ZM20.622 89.635C20.622 89.1273 20.575 88.9148 20.2581 88.9148C19.8707 88.9148 19.8707 89.2572 19.8707 89.4815V92.2442C19.8707 92.504 19.9059 92.7519 20.2346 92.7519C20.6102 92.7519 20.622 92.4449 20.622 92.1734V89.635Z" fill="white"/>
<path d="M24.2144 93.2361H23.5805V89.0212H22.9936V91.9728C22.9936 92.9764 22.794 93.2361 22.0897 93.2361H21.8784V92.6576H21.9019C22.2423 92.6576 22.348 92.4569 22.348 92.0082V88.4072H24.2027V93.2361H24.2144Z" fill="white"/>
<path d="M25.6339 88.3955V90.4026H26.2443C26.7725 90.4026 26.9016 90.6269 26.9016 91.1228V92.3389C26.9016 92.9882 26.8782 93.2362 26.256 93.2362H25.0117V88.3955H25.6339ZM25.6339 92.6459H26.033C26.1973 92.6459 26.256 92.5986 26.256 92.4333V91.2173C26.256 91.0402 26.2208 90.9811 26.0212 90.9811H25.6339V92.6459Z" fill="white"/>
<path d="M27.6064 93.2362V88.3955H28.2403V92.6104H28.6864V88.3955H29.3203V92.6104H29.7781V88.3955H30.412V93.2362H27.6064Z" fill="white"/>
<path d="M31.2222 93.2362V88.3955H32.8069V88.9976H31.8561V90.4144H32.7012V91.0166H31.8678V92.6222H32.8069V93.2362H31.2222Z" fill="white"/>
<path d="M36.1173 93.2361V90.9929C35.9764 91.0637 35.7886 91.1345 35.589 91.1345C35.1782 91.1345 34.9199 90.9574 34.9199 90.4616V88.4072H35.5303V90.2018C35.5303 90.4734 35.6712 90.5206 35.8003 90.5206C35.9177 90.5206 36.0233 90.4852 36.1173 90.4261V88.4072H36.7511V93.2479H36.1173V93.2361Z" fill="white"/>
<path d="M37.5493 93.2362V88.3955H39.134V88.9976H38.1832V90.4144H39.0284V91.0166H38.1949V92.6222H39.134V93.2362H37.5493Z" fill="white"/>
<path d="M42.0921 93.2362C42.0921 93.2362 42.0921 90.1547 42.0687 89.34C41.9395 90.2373 41.5404 93.2362 41.5404 93.2362H41.0005L40.4605 89.34V93.2362H39.8618V88.3955H40.7657L41.2704 91.6069L41.74 88.3955H42.6791V93.2362H42.0921Z" fill="white"/>
<path d="M45.6959 88.9859V90.3201H46.3063C46.8345 90.3201 46.9637 90.5444 46.9637 91.0403V92.3272C46.9637 92.9765 46.9402 93.2245 46.318 93.2245H45.062V88.3838H46.7758V88.9859H45.6959ZM45.6959 90.9104V92.646H46.0833C46.2476 92.646 46.3063 92.5987 46.3063 92.4334V91.1465C46.3063 90.9694 46.2711 90.9104 46.0715 90.9104H45.6959Z" fill="white"/>
<path d="M49.1233 93.2362L49.0059 92.3507H48.2781L48.1724 93.2362H47.5503L48.2311 88.3955H49.0059L49.7454 93.2362H49.1233ZM48.6068 89.2338L48.3368 91.7486H48.912L48.6068 89.2338Z" fill="white"/>
<path d="M51.7053 93.2363V90.5798L51.0479 92.705V93.2363H50.4141V88.3956H51.0479V90.9812L51.7053 88.8561V88.3956H52.3392V93.2363H51.7053ZM51.3766 87.699C51.5762 87.699 51.6466 87.6046 51.6466 87.333H52.1514C52.1514 87.7817 51.9988 88.1122 51.3766 88.1122C50.7662 88.1122 50.6136 87.7817 50.6136 87.333H51.1184C51.1184 87.6046 51.1771 87.699 51.3766 87.699Z" fill="white"/>
<path d="M54.6167 93.2362L53.7833 91.0048V93.2362H53.1494V88.3955H53.795V90.6151L54.4759 88.3955H55.1215L54.3233 90.7922L55.2624 93.2362H54.6167Z" fill="white"/>
<path d="M57.3874 93.2362L57.27 92.3507H56.5422L56.4366 93.2362H55.8145L56.4953 88.3955H57.27L58.0096 93.2362H57.3874ZM56.8709 89.2338L56.6009 91.7486H57.1761L56.8709 89.2338Z" fill="white"/>
<path d="M60.8741 93.2366H60.2402V89.0217H59.6533V91.9733C59.6533 92.9769 59.4537 93.2366 58.7494 93.2366H58.5381V92.6581H58.5616C58.902 92.6581 59.0076 92.4574 59.0076 92.0087V88.4077H60.8623V93.2366H60.8741Z" fill="white"/>
<path d="M13.743 78.4429V80.3437H8.40196V81.1584H11.2192C13.2265 81.1584 14.3417 81.6543 14.3417 83.4961C14.3417 85.3379 13.0974 85.8928 11.4423 85.8928H5.7373V78.4547H13.743V78.4429ZM8.40196 84.1927H10.691C11.407 84.1927 11.677 84.0392 11.6888 83.4843C11.6888 83.0474 11.4188 82.8349 10.7027 82.8349H8.40196V84.1927Z" fill="white"/>
<path d="M20.2934 81.6071L21.9016 78.4312H24.7775L21.4203 84.1455C20.6808 85.4088 19.7652 86.0346 18.2391 86.0346C17.7579 86.0346 17.0653 85.9637 16.7014 85.7866V83.8976C17.1592 84.0865 17.4761 84.1455 17.8518 84.1455C18.2626 84.1455 18.603 84.0393 18.8026 83.7205L14.835 78.4312H18.0631L20.2934 81.6071Z" fill="white"/>
<path d="M30.7874 78.443C31.9612 78.443 33.0529 78.4902 33.5812 79.5646C33.6985 79.8125 33.8394 80.1903 33.8394 80.8043C33.8394 81.1585 33.7925 82.1502 32.9003 82.7523C32.1843 83.2364 31.163 83.2482 30.353 83.2482H28.3575V85.8693H25.7163V78.4312H30.7874V78.443ZM28.3575 81.5717H30.0831C30.3883 81.5717 30.5291 81.5717 30.6817 81.5245C31.0104 81.4418 31.1982 81.1821 31.1982 80.8397C31.1982 80.6508 31.1395 80.5209 31.1043 80.4619C30.9282 80.1431 30.5996 80.1195 30.2826 80.1195H28.3575V81.5717Z" fill="white"/>
<path d="M43.0076 85.8693H40.3429V83.4017H38.9225C37.3144 83.4017 37.7839 85.1491 37.0209 85.8693H34.1919C35.3892 85.2671 35.1192 83.4017 36.2931 82.8704C35.4362 82.5989 34.9432 81.7724 34.9432 80.9932C34.9432 79.1041 36.2696 78.4312 38.2065 78.4312H42.9958V85.8693H43.0076ZM40.3546 80.1195H38.8873C37.9482 80.1195 37.6196 80.3556 37.6196 80.9459C37.6196 81.3356 37.8426 81.7252 38.8638 81.7252H40.3546V80.1195Z" fill="white"/>
<path d="M49.2638 80.1076V85.881H46.5992V80.1076H43.9697V78.4429H51.8815V80.1076H49.2638Z" fill="white"/>
<path d="M52.8442 78.4429H55.5089V82.4335L59.1126 79.3992V78.4429H61.7773V85.881H59.1126V81.9022L55.5089 84.9365V85.881H52.8442V78.4429Z" fill="white"/>
<path d="M71.6497 85.8693H68.985V83.4017H67.5646C65.9564 83.4017 66.426 85.1491 65.663 85.8693H62.834C64.0313 85.2671 63.7613 83.4017 64.9352 82.8704C64.0783 82.5989 63.5853 81.7724 63.5853 80.9932C63.5853 79.1041 64.9117 78.4312 66.8486 78.4312H71.6379V85.8693H71.6497ZM68.985 80.1195H67.5177C66.5786 80.1195 66.2499 80.3556 66.2499 80.9459C66.2499 81.3356 66.4729 81.7252 67.4942 81.7252H68.985V80.1195Z" fill="white"/>
<path fill-rule="evenodd" clip-rule="evenodd" d="M65.2755 31.5C65.792 33.3182 67.1654 35.9275 67.8462 39.0444C67.7875 38.0172 67.9636 36.0455 67.3884 34.5343C66.8132 33.0231 66.0502 32.5272 65.2755 31.5ZM53.0204 23.259C55.7555 25.2898 54.206 24.298 57.0819 27.0489C54.7577 22.9048 55.9668 24.3334 53.0204 23.259ZM29.0032 18.7371C31.5857 18.6073 32.1844 18.6663 34.7786 19.0205C36.8798 18.5718 37.6311 18.2176 40.6362 18.1114C38.8402 17.6627 34.7669 16.6946 29.0032 18.7371ZM22.9579 13.377C26.679 10.9212 31.2218 9.13841 39.791 9.46899C43.43 9.61067 50.4144 12.031 50.4144 12.031C46.9633 11.9956 43.5004 11.9484 40.0492 11.9129C37.3729 11.8303 33.7222 9.39815 22.9579 13.377ZM11.2076 30.9215C10.1628 32.0195 9.92804 34.1565 9.64632 35.6087C9.84587 35.2781 10.4211 35.1128 10.6206 34.7822C10.7028 33.8495 11.0549 31.8896 11.2076 30.9215ZM4.59873 30.7562C5.46738 28.0643 6.52386 26.8364 8.07335 24.8647C9.79892 21.1457 10.9493 18.7253 13.0622 15.6438C16.0086 12.3498 20.4106 9.00854 26.9842 6.48194C31.1749 5.57283 41.8335 2.11351 56.7767 9.835C64.8059 11.4525 72.483 22.1492 73.469 31.7007L73.962 33.7669C74.4316 38.5957 75.3237 50.3787 67.1889 53.4838C66.2498 52.9643 65.745 51.3468 64.8059 50.8155C64.9937 50.3433 65.9798 50.4967 66.9306 47.3916C65.1229 50.4967 66.4611 48.041 64.1955 50.5912L62.9982 49.139C61.7774 46.6832 61.9417 46.1165 61.9182 45.3727C61.343 44.9241 58.3849 44.074 57.4224 43.6489C56.495 43.4246 55.4385 42.2676 54.4408 42.2204C52.5039 41.3349 52.9969 36.4942 52.9147 36.3289C52.5391 35.4906 51.1539 33.8731 50.2149 33.2828C50.5083 33.8613 50.9309 34.2509 51.0953 35.0066C49.5458 36.0455 50.297 35.1246 48.1371 33.7669C47.1394 33.2828 46.4468 32.7279 45.6016 31.441L42.667 26.9781C40.8944 23.6959 41.4344 24.7821 40.2958 24.1681C37.7485 23.6959 35.2951 23.5896 33.7808 26.2107C30.8227 36.8956 24.1552 34.062 24.5308 38.8555C24.6952 39.6701 21.1736 42.9169 20.1289 43.6489C20.1289 41.4411 18.1803 40.0952 20.1524 35.7504L19.225 36.6359C18.5442 39.8 17.5346 38.6902 18.9315 42.3857C19.1546 42.9878 18.2155 42.6926 19.3189 44.0976C19.0372 44.4636 18.2742 43.9441 16.3138 46.5888L15.14 48.466L13.5905 50.6266C13.1914 50.6384 13.7313 51.6184 13.6257 52.2087C13.5318 52.799 9.90457 54.7353 9.49372 54.1922C8.26117 52.5393 7.34556 49.3043 6.4769 50.0953C3.53052 42.6926 3.01402 38.2297 4.59873 30.7562Z" fill="#FFCB05"/>
<path fill-rule="evenodd" clip-rule="evenodd" d="M9.14131 62.8226C11.3247 62.3385 11.9351 62.433 13.7194 61.9961C15.3275 61.6892 16.1845 61.3232 17.5227 60.6148C18.1096 60.296 19.0487 59.7765 19.5887 59.2688C19.6121 59.2924 19.976 58.8084 19.976 58.8084C19.976 58.8084 23.2511 55.4317 23.4506 53.5309C23.5093 53.0232 25.0236 52.9996 25.7279 52.6454C26.8196 52.0905 31.562 48.6075 32.2663 47.5804C33.405 46.7421 34.5553 43.2001 35.4944 42.6924C35.5296 42.0195 36.1753 41.4055 36.3161 41.2639C36.8561 40.9451 38.3704 39.8589 39.1921 40.3548C39.826 40.402 41.7511 42.0313 42.1737 42.5272C42.385 43.2237 42.6902 43.4835 43.9462 45.7858C44.6388 47.0491 44.8383 46.9074 44.944 47.1317C45.6131 47.8873 46.47 48.6548 47.5147 49.2333C47.5147 49.2687 47.5147 49.3041 47.5147 49.3631C48.0195 49.7173 48.5712 49.9535 49.1229 50.2132C50.0738 50.7209 51.588 51.4411 53.0671 52.5509C53.2784 52.5745 53.4779 52.7162 53.6892 53.1058C53.654 54.0385 53.8066 54.5226 53.9827 55.1011C54.0531 55.4317 54.5931 56.3998 54.8514 56.6832C54.9805 56.8131 55.72 57.5333 56.3069 57.7576C56.3069 57.793 56.3069 57.8284 56.3069 57.8875C56.3774 57.8993 56.4595 57.9229 56.5534 57.9583C59.2533 59.8828 62.0941 61.2405 65.6039 61.5121C66.6838 61.5121 67.8225 61.6065 68.9259 61.6538C69.3368 61.6656 69.642 61.7246 69.9354 61.7246L71.7432 61.8663C72.2597 61.9017 72.8466 62.0198 73.504 62.2677C73.6566 62.9643 74.3491 62.6101 74.6661 63.4365C74.8422 63.5664 75.0065 63.6845 75.1826 63.8262C75.1943 63.9915 75.3 64.0859 75.3117 64.3102C75.1708 64.3693 75.0182 64.4283 74.8774 64.4991C74.9009 65.2193 74.9948 65.4791 74.3374 66.1048C74.3374 66.1402 74.3374 66.1757 74.3374 66.2111C74.3022 66.1993 74.2787 66.1993 74.267 66.1993C74.1965 66.6479 73.5979 67.7223 73.3396 67.6633C72.3653 67.9821 70.5693 68.1828 69.6655 68.1946C68.9377 68.2772 68.0455 68.289 67.2943 68.2772C67.2238 68.2064 64.5239 68.2418 64.3596 68.2536L58.9716 66.8486C57.5395 66.3055 56.0839 65.8333 54.91 65.2902C54.6518 65.3846 54.7809 65.3138 54.5931 65.2311C53.1375 64.3929 51.318 63.106 50.2264 62.1969C49.2755 61.4885 49.2403 61.028 48.4656 60.2724C48.4304 60.2724 48.3951 60.2724 48.3717 60.2724C47.996 59.7529 47.8199 59.4223 47.5265 59.0563C47.0687 58.2299 46.2 57.3326 46.247 56.5297C46.1883 56.4353 46.1531 56.3526 46.1061 56.2582C44.7327 55.904 42.385 54.5462 41.0703 53.4364C40.2955 53.0232 39.0747 51.2404 38.6756 51.0515C38.476 51.1105 37.76 52.2557 37.0791 53.0468C35.1775 54.9949 33.2171 56.7658 30.846 58.1944C30.7168 58.2889 29.766 58.6195 29.3434 58.7966C29.3082 58.7848 29.1086 58.891 29.0852 58.8792C28.6626 59.1508 28.5921 59.7175 28.3339 60.1779C27.5474 61.3468 26.6788 62.126 25.8571 63.0233C25.0823 63.6491 24.3076 64.2748 23.5446 64.9124C23.7324 64.9006 24.0963 64.7707 24.108 64.8297C23.6854 65.054 23.1689 65.3256 22.7229 65.5027C22.6289 65.5381 22.4411 65.5381 22.3355 65.5145C19.6943 67.1438 17.1001 66.9549 14.2359 67.7105C6.2184 68.8794 3.80026 69.3634 4.02329 67.6161C3.9059 67.5688 3.812 67.5098 3.71809 67.4626C3.85895 67.3799 5.51409 66.7896 5.51409 66.7306C5.42018 66.6951 3.68287 67.0139 3.6007 67.0021C3.57722 66.8368 3.58896 66.8132 3.57722 66.6597C3.58896 66.6243 4.50457 66.2583 4.53979 66.2347C4.48109 66.2229 3.51853 66.4 3.45984 66.4C3.31898 65.975 3.33071 65.8805 3.35419 65.4909C3.56549 65.3492 3.77678 65.3256 3.48332 65.0895C3.49505 64.8651 3.65939 65.0068 3.63592 64.8179C4.34023 64.0623 5.88973 63.6136 7.54487 63.1768L9.14131 62.8226Z" fill="#0067B3"/>
<path fill-rule="evenodd" clip-rule="evenodd" d="M59.7347 68.1004C61.6012 68.49 63.0215 68.5136 64.8527 69.34C65.3223 69.4581 65.0053 69.5289 65.2871 69.9068C65.4514 70.0012 65.9092 70.2255 65.9092 70.6624C65.4866 70.8395 65.5101 70.8867 65.4045 71.3826C65.3458 71.3826 65.0875 71.2763 65.0288 71.2999C65.1814 71.3944 65.3927 71.5951 65.4397 71.6069C65.1697 72.6577 64.4419 72.9174 63.9724 73.307C62.9041 73.7321 62.3524 74.0154 60.9908 73.9328C59.6173 73.8147 58.2791 73.7321 56.847 73.2952C54.7341 73.2126 48.63 71.7368 47.1744 70.8513C46.9514 70.9221 40.6947 67.0378 40.8473 66.5419C39.967 65.9043 39.967 65.9043 37.7366 64.0979C37.3727 64.4521 36.9032 65.1723 36.4923 65.4085C36.4923 65.4675 36.5628 65.5383 36.4923 65.5974C36.4336 65.6564 32.1608 69.6942 29.2027 71.0284C28.7097 71.2527 28.4045 71.3353 26.8784 71.8902C25.0942 72.2563 23.6034 73.0473 21.9482 73.1417C18.861 73.3307 18.861 73.4605 16.0907 73.3543C15.4216 73.3306 14.9168 73.189 14.4708 73.0119C14.4708 72.9765 14.4942 72.941 14.4942 72.9056C17.8515 72.2563 16.3489 72.2681 13.8838 72.3153C13.8838 72.2799 13.8251 71.8784 13.8251 71.843C13.9308 71.8076 14.6938 71.6187 14.8229 71.5951C14.6351 71.4652 13.8017 71.5124 13.6256 71.3826C13.5082 71.052 13.5786 71.0638 13.5786 70.8277C13.8017 70.745 13.9308 70.6151 14.2125 70.5797C14.0482 70.4499 14.0364 70.6506 13.6256 70.5089C13.4378 70.1547 13.696 69.2338 13.696 69.0685C13.7547 69.0331 13.8251 68.9976 13.8956 68.9504C13.8251 68.915 13.743 68.8914 13.6725 68.8796C13.6843 68.6907 13.6021 68.8087 14.0834 68.5608C14.9403 68.3955 16.1024 68.2893 17.0767 68.1594C19.894 67.7934 23.0869 66.8843 25.5872 65.2077C27.794 63.7201 28.6979 62.9527 30.4587 61.2998C30.5291 61.1463 30.7639 60.9928 33.276 58.2773C33.3464 58.1238 33.4755 58.0884 33.769 57.687C34.3207 57.1793 35.1541 56.2112 35.835 55.7743C35.835 55.7389 35.835 55.7035 35.835 55.6681C36.2223 55.3729 38.4996 54.5582 38.8987 54.4638C39.65 53.6728 42.1738 55.7035 42.5847 56.2584C42.6199 56.1876 42.8077 56.5181 42.8664 56.4591C43.0777 56.8487 43.4064 57.9231 43.6411 58.5371C44.1459 60.5206 46.6579 62.0318 48.137 63.2833C48.4657 63.4604 49.9917 64.6174 50.7547 65.1605C52.6329 66.2821 55.2388 67.4864 57.61 67.6989C57.7039 67.7107 58.5139 67.8288 59.23 67.9705" fill="#008EC7"/>
<path d="M58.6426 0C57.2457 0 56.2245 0.200711 55.5671 0.61394C55.2267 0.920911 55.0624 1.19246 55.0624 1.42859C55.0624 1.77098 55.4263 2.05434 56.1658 2.26686C55.708 2.5266 55.4263 2.69189 55.3206 2.77454C55.0389 2.97525 54.9098 3.18777 54.9098 3.41209C54.9098 3.55377 54.9685 3.70726 55.0741 3.86074C55.3793 4.09687 55.7902 4.21494 56.3067 4.21494C56.5766 4.21494 57.0814 4.1559 57.8209 4.03784V4.10868C57.8209 4.52191 57.504 4.94694 56.8584 5.37198C56.694 5.39559 56.4123 5.4074 56.0015 5.4074C55.5906 5.4074 55.0741 5.39559 54.4402 5.37198L54.6046 5.80882C55.215 5.97411 55.5202 6.17482 55.5202 6.41095C55.5202 6.48179 55.485 6.55263 55.4028 6.61167C54.945 7.00128 54.1937 7.46174 53.149 7.99303C53.1255 7.99303 53.102 7.99303 53.0668 7.99303C52.6677 7.99303 52.2686 7.95761 51.8812 7.87497L51.6817 8.1111L52.2216 8.39445C52.5034 8.42987 52.7381 8.45349 52.9377 8.45349C53.2781 8.45349 53.5364 8.39445 53.689 8.2882C54.8041 7.67426 55.9545 7.00128 57.1284 6.25747C57.3984 6.22205 57.6096 6.19844 57.774 6.19844C57.7857 6.19844 57.7975 6.19844 57.8092 6.19844V7.30825H57.7975L57.7857 7.43812C57.7036 7.61522 57.4923 7.81593 57.1284 8.04026C56.7762 8.35903 56.0367 8.81949 54.9098 9.43343C54.8628 9.51608 54.8863 9.57511 55.0037 9.61053L57.0227 9.16188C57.0814 9.16188 57.1518 9.15007 57.1988 9.15007C57.4923 9.15007 57.6918 9.22091 57.8092 9.36259V9.85847V10.0592C56.964 10.6967 56.0836 11.3933 55.1798 12.1607C55.0389 12.3024 54.8863 12.3733 54.7102 12.3733C54.628 12.3733 54.5341 12.3615 54.4402 12.3378C53.865 12.2316 53.3251 12.0191 52.8438 11.7003L52.609 11.7475C52.7734 12.0073 52.9494 12.2552 53.1138 12.5031C53.3016 12.7983 53.3955 13.058 53.3955 13.2824C53.3955 13.3532 53.3955 13.4122 53.372 13.4831C53.4777 13.5657 53.642 13.6129 53.8533 13.6366C54.3698 13.5067 54.9333 13.2469 55.5671 12.8691C55.7197 12.7747 56.2714 12.4087 57.2105 11.7711C57.3397 11.6767 57.457 11.6294 57.5627 11.6294C57.727 11.6294 57.8092 11.7239 57.8092 11.9128V12.9518C57.8092 13.0226 57.7857 13.1053 57.7505 13.2233C57.5275 13.4004 57.0814 13.6248 56.424 13.9199C56.3771 13.9553 56.3419 13.9908 56.3419 14.0144C56.3419 14.0262 56.3536 14.0498 56.3888 14.0498L57.7036 14.1679C57.774 14.2387 57.8092 14.2977 57.7975 14.3331L57.8092 14.5693V14.6755C56.3184 14.9353 55.4145 15.195 55.0858 15.443C54.6985 15.7381 54.4989 16.0097 54.4989 16.2576C54.4989 16.5764 54.8276 16.8597 55.485 17.1077C55.931 17.1667 56.3536 17.1903 56.7527 17.1903C57.1284 17.1903 57.4688 17.1667 57.8092 17.1195V17.2376H57.7857V17.639C57.504 17.757 57.2927 17.9459 57.1636 18.2293C57.1518 18.2765 57.1518 18.3238 57.1518 18.3592C57.1518 18.9967 57.9383 19.41 59.4996 19.5989C60.7086 19.9295 61.7299 20.2718 62.5751 20.6378C63.2559 20.7795 63.7841 20.8504 64.1598 20.8504C64.6293 20.8504 64.9228 20.7087 65.0402 20.4135L65.944 19.1502V18.8314L65.2515 18.8905C65.1341 18.9023 65.0167 18.9023 64.8876 18.9023C64.5824 18.9023 64.2185 18.8787 63.8076 18.8196C63.1268 18.678 62.3638 18.5009 61.5186 18.2765C60.8612 18.0994 60.2039 17.9223 59.5465 17.7334V17.2376V14.5693L59.5582 14.2033C59.4996 13.9435 59.2648 13.79 58.8305 13.731C58.7952 13.7192 58.7718 13.7074 58.76 13.6956C58.76 13.6838 58.8774 13.6366 59.1122 13.5421C59.347 13.4477 59.4761 13.3414 59.5113 13.2351L59.5582 13.0935L59.5465 12.9518V12.1371C59.5465 11.7003 59.3939 11.4405 59.0887 11.3579C58.7248 11.2634 58.49 11.1572 58.3727 11.0509C58.6779 10.9211 58.9361 10.8148 59.1474 10.7322C59.3587 10.6613 59.4878 10.5078 59.523 10.2835C59.5348 10.2245 59.5465 10.0828 59.5465 9.84666V9.72859V9.3744C59.3822 9.05562 58.9948 8.80768 58.3727 8.60697C58.2905 8.57155 58.2435 8.52433 58.2435 8.48891C58.2435 8.45349 58.267 8.41807 58.3257 8.38265L59.03 8.15832C59.3587 8.05206 59.5348 7.80413 59.5465 7.42632V7.36728V7.34367V6.29289C59.5465 6.10398 59.4878 5.92689 59.3587 5.76159C58.9948 5.57269 58.7248 5.44282 58.537 5.37198C59.0183 5.10043 59.2883 4.95875 59.347 4.95875C59.4643 4.85249 59.523 4.59275 59.5348 4.17952V4.12048V3.76629C60.4621 3.47112 61.1077 3.23499 61.4834 3.03428C62.2346 2.64467 62.6103 2.19602 62.6103 1.68834C62.6103 1.03898 62.082 0.543101 61.0256 0.212518C60.2978 0.0708393 59.4878 0 58.6426 0ZM57.0462 1.75918C56.9053 1.75918 56.7527 1.73556 56.5884 1.70014C56.3419 1.6175 56.2245 1.49943 56.2245 1.35775C56.2245 1.22788 56.3184 1.06259 56.518 0.873684C56.6823 0.672973 57.1284 0.566714 57.8562 0.531295L57.8209 1.4404C57.6214 1.65292 57.3749 1.75918 57.0462 1.75918ZM59.5348 2.73912C59.5348 2.47937 59.2883 2.29047 58.807 2.1606C58.7835 2.07795 58.7952 2.01892 58.8305 1.9835C59.1591 1.81821 59.3117 1.57027 59.3117 1.23969V1.03898V0.566714C60.2156 0.64936 60.6617 0.944524 60.6617 1.45221C60.6617 1.68834 60.556 1.92447 60.3447 2.1606C60.1334 2.39673 59.8635 2.59744 59.5348 2.73912ZM56.8936 3.67184C56.5884 3.58919 56.4358 3.44751 56.4358 3.2468C56.4358 2.95164 56.694 2.68009 57.2105 2.45576C57.3044 2.42034 57.3866 2.40854 57.4688 2.40854C57.5979 2.40854 57.7153 2.44395 57.8444 2.50299L57.9031 3.41209C57.7153 3.58919 57.3749 3.67184 56.8936 3.67184ZM56.9405 16.4465C56.7879 16.4465 56.6471 16.4347 56.5062 16.4111C56.3771 16.3403 56.3184 16.2576 56.3184 16.175C56.3184 16.1277 56.3771 16.0333 56.4945 15.868C56.7175 15.6437 57.1166 15.5138 57.6918 15.4548C57.727 15.6909 57.727 15.9388 57.6683 16.2104C57.5744 16.3639 57.3397 16.4465 56.9405 16.4465ZM58.3257 21.4997C58.2201 21.4997 58.1614 21.5351 58.1614 21.5942C58.3257 21.7831 58.4196 21.9248 58.5018 22.0074C58.6074 22.1255 58.6896 22.2435 58.6896 22.3498C58.6896 22.4915 58.5605 22.6213 58.3374 22.763C57.8796 23.0582 57.0814 23.4006 55.9662 23.8256C55.8489 23.8728 55.8723 23.9437 55.9897 24.0145L57.3279 24.2625C57.5979 24.3097 57.8092 24.4277 57.8092 24.5812V24.841V24.9236C56.3184 25.1834 55.4145 25.4431 55.0858 25.691C54.6985 25.9862 54.4989 26.2578 54.4989 26.5057C54.4989 26.8245 54.8276 27.1078 55.485 27.3558C55.931 27.4148 56.3536 27.4384 56.7527 27.4384C57.1284 27.4384 57.4688 27.4148 57.8092 27.3676V27.4856C57.8092 27.8989 57.4923 28.3239 56.8466 28.7489C56.6823 28.7726 56.4006 28.7844 55.9897 28.7844C55.5789 28.7844 55.0624 28.7726 54.4285 28.7489L54.5928 29.1858C55.2032 29.3511 55.5084 29.5518 55.5084 29.7879C55.5084 29.8588 55.4732 29.9296 55.3911 29.9886C54.9332 30.3782 54.182 30.8387 53.1372 31.37C53.1138 31.37 53.0786 31.37 53.0551 31.37C52.656 31.37 52.2686 31.3346 51.8695 31.2519L51.6699 31.4881L52.2099 31.7714C52.4916 31.8068 52.7264 31.8304 52.926 31.8304C53.2664 31.8304 53.5011 31.7596 53.6772 31.6652C54.7689 31.0394 55.9428 30.3782 57.1166 29.6344C57.3749 29.599 57.5862 29.5754 57.7505 29.5754C57.7622 29.5754 57.7857 29.5754 57.7975 29.5754V30.7915V30.8741C56.3067 31.1339 55.4028 31.3936 55.0741 31.6415C54.6867 31.9367 54.4872 32.2083 54.4872 32.4562C54.4872 32.775 54.8159 33.0583 55.4732 33.3063C55.9193 33.3653 56.3419 33.3889 56.741 33.3889C57.1166 33.3889 57.457 33.3653 57.7975 33.3181V33.4361H57.774V33.8376C57.4923 33.9556 57.2692 34.1445 57.1518 34.4279C57.1284 34.4751 57.1401 34.5223 57.1401 34.5578C57.1401 35.1953 57.9618 35.5141 59.4878 35.7974C60.7556 36.0336 61.7181 36.4704 62.5633 36.8364C63.2442 36.9781 63.7724 37.0489 64.148 37.0489C64.6176 37.0489 64.8289 36.8955 65.0284 36.6121L65.9323 35.3488V35.03L65.2632 35.1009C65.1341 35.1127 64.9815 35.1245 64.8171 35.1245C64.5237 35.1245 64.1833 35.1009 63.8194 35.03C63.1268 34.912 62.3755 34.7112 61.5303 34.4869C60.873 34.3098 60.2156 34.1327 59.5582 33.9438V33.4243V30.697V29.6462C59.5582 29.4573 59.4996 29.2802 59.3704 29.1149C59.0065 28.926 58.7365 28.7962 58.5487 28.7253C59.03 28.4538 59.3 28.3121 59.3587 28.3121C59.4761 28.2058 59.5348 27.9697 59.5465 27.5801V27.4738V24.7347C59.5465 24.3923 59.4761 24.1562 59.3117 24.0499C59.2061 23.9791 58.9009 23.8846 58.3961 23.7784C58.314 23.7075 58.3022 23.6367 58.3609 23.5895L60.2978 23.4242C60.7556 23.3888 60.9434 23.1526 60.9434 22.8929C60.9434 22.8102 60.9199 22.7276 60.8847 22.6213C60.3565 22.1373 59.5465 21.7477 58.4313 21.5233C58.3961 21.5115 58.3609 21.4997 58.3257 21.4997ZM56.9405 26.6828C56.7879 26.6828 56.6471 26.671 56.5062 26.6474C56.3771 26.5765 56.3184 26.4939 56.3184 26.4112C56.3184 26.364 56.3536 26.2578 56.4945 26.1043C56.694 25.88 57.1166 25.7501 57.6918 25.691C57.727 25.9272 57.7622 26.1751 57.6683 26.4467C57.6096 26.612 57.3397 26.6828 56.9405 26.6828ZM56.9405 32.6451C56.7879 32.6451 56.6471 32.6333 56.5062 32.6097C56.3771 32.5388 56.3184 32.4562 56.3184 32.3736C56.3184 32.3263 56.3536 32.2201 56.4945 32.0666C56.694 31.8423 57.1166 31.7124 57.6918 31.6652C57.727 31.9013 57.7622 32.1492 57.6683 32.4208C57.6096 32.5743 57.3397 32.6451 56.9405 32.6451ZM59.1591 37.7101C59.077 37.7101 58.8892 37.7337 58.5957 37.7691C58.2905 37.8046 57.997 37.8282 57.7153 37.8282C57.4101 37.8282 57.0931 37.8046 56.7293 37.7691C57.0814 38.3713 57.6566 38.7609 58.4783 38.938C58.5253 38.938 58.5722 38.938 58.6192 38.938C59.1004 38.938 59.4291 38.8081 59.6522 38.5484C59.7226 38.4539 59.793 38.3713 59.793 38.265C59.793 38.1115 59.6756 37.9344 59.4526 37.7337C59.3587 37.7101 59.2648 37.7101 59.1591 37.7101ZM59.1591 39.7054C59.077 39.7054 58.8892 39.729 58.5957 39.7645C58.2905 39.7999 57.997 39.8235 57.7153 39.8235C57.4101 39.8235 57.0931 39.7999 56.7293 39.7645C57.0814 40.3666 57.6566 40.7562 58.4783 40.9333C58.5253 40.9333 58.5722 40.9333 58.6192 40.9333C59.1004 40.9333 59.4291 40.8034 59.6522 40.5437C59.7226 40.4492 59.793 40.3666 59.793 40.2603C59.793 40.1068 59.6756 39.9297 59.4526 39.729C59.3587 39.7172 59.2648 39.7054 59.1591 39.7054Z" fill="#2C2B7C"/>
<path fill-rule="evenodd" clip-rule="evenodd" d="M77.9765 57.0964C77.5422 56.9429 77.5304 56.6478 77.3896 56.3762C76.1453 55.9394 76.4035 55.1955 74.2906 55.0539C72.4711 55.1011 72.9524 55.0893 69.4308 55.0539C66.5549 54.9004 64.125 53.9322 61.9064 50.8389C61.3782 50.0597 59.8052 47.356 59.6409 46.6358C58.4905 44.6641 57.8214 45.7503 55.2389 44.5224C53.9124 43.5071 52.0695 42.6334 51.5295 41.2166C51.1891 40.5554 50.966 39.7054 50.9308 39.2921C50.8252 38.9261 50.9308 38.1233 50.8017 37.533C50.0387 36.7537 48.4188 36.3877 47.7614 36.2224C45.4372 34.8883 43.019 32.7985 42.5847 30.3664C42.1621 29.4691 41.8686 28.6072 41.4461 27.7217C40.8709 26.9189 39.8731 26.4938 39.6853 26.1514C38.934 25.9507 39.0749 25.5021 37.9714 25.6083C37.3258 25.7736 36.598 25.9035 35.8585 26.7654C35.7998 26.7063 35.5885 26.8952 35.5885 27.0133C35.1424 28.4065 34.4616 28.9024 34.1916 29.4927C33.3464 31.2401 33.3464 31.2401 32.3369 33.0228C31.1631 34.5577 29.3436 36.187 27.4419 36.8364C27.2424 37.0253 26.9254 37.2732 26.8198 37.9934C26.8433 38.017 26.8785 38.1351 26.9137 38.1705C26.4559 40.1894 24.7421 42.3972 23.7443 43.5307C22.9813 44.1682 21.3848 46.0809 20.3166 46.4705C19.4362 46.683 18.8493 46.9546 18.2037 47.1789C18.1567 47.3442 17.7224 47.3088 17.6167 48.4186C16.3842 50.9452 15.809 52.48 14.5764 53.7433C11.184 56.754 6.25379 55.9276 2.13354 56.7068C1.41749 56.8012 0.631005 57.1554 0.466664 57.2853C0.478403 57.6749 -0.296343 59.2334 0.126246 59.3633C0.137984 59.3751 0.607527 59.3751 0.607527 59.3751L0.1732 59.5049C0.161461 59.6348 0.126246 59.8946 0.0440756 60.4495C-0.0146173 60.8037 0.0205984 61.1579 0.102768 61.5357L1.76965 61.4648L0.50188 61.819C0.66622 61.8781 1.06533 62.0906 2.50918 62.7635C3.27219 62.9406 3.68304 63.3775 7.85023 62.492C11.3601 61.7482 13.52 61.3704 16.7716 60.0835L18.1684 59.198C18.8141 58.6785 19.2014 58.1826 19.2601 58.1236C20.2931 57.0846 19.9527 57.368 20.3988 56.8249C20.9388 56.0574 21.2557 55.1483 21.6196 54.3573C22.7113 51.996 22.5939 52.6571 24.0143 52.1731C25.012 51.6654 27.3715 50.0007 28.2636 49.1152C30.0362 47.3442 31.433 45.3607 32.1374 42.8931C32.6304 42.5153 35.5298 40.6499 35.9524 40.095C36.375 39.729 37.5723 37.651 37.9245 36.9426C38.2297 37.2614 39.2979 38.4302 39.6383 38.7963C41.2817 40.2721 42.2443 40.8624 44.1459 41.7951C44.4511 42.5862 44.8855 43.5307 45.4959 44.3099C45.6133 44.3571 46.0241 46.3642 49.5222 48.8672C50.4378 49.5048 51.9051 50.1423 53.1142 50.6736C53.842 50.65 54.6285 51.8071 54.9572 52.5391C56.2484 55.1837 58.42 57.486 61.9534 59.682C63.7846 60.8037 65.9327 60.7446 68.0339 60.8391C68.7148 60.8745 69.5482 60.8037 70.2408 60.7564L72.4242 60.8037C72.8702 60.7919 75.3119 61.0162 75.3705 60.4377C75.3001 61.1342 77.2839 58.3715 77.4718 57.734C77.6361 57.6395 77.8122 57.5332 78 57.4388C77.9883 57.3207 77.9883 57.2027 77.9765 57.0964Z" fill="#2C2B7C"/>
</svg>
